<svg width="35" height="35" viewBox="0 0 35 35" fill="none" xmlns="http://www.w3.org/2000/svg">
<path d="M33.75 2.18751H24.375L23.6406 0.909191C23.4851 0.6359 23.2454 0.406014 22.9487 0.245394C22.6519 0.0847737 22.3099 -0.00020699 21.9609 1.19853e-05H13.0312C12.6831 -0.00115905 12.3416 0.0835047 12.0459 0.244303C11.7503 0.405102 11.5123 0.635532 11.3594 0.909191L10.625 2.18751H1.25C0.918479 2.18751 0.600537 2.30275 0.366117 2.50786C0.131696 2.71298 0 2.99118 0 3.28126L0 5.46876C0 5.75884 0.131696 6.03704 0.366117 6.24216C0.600537 6.44728 0.918479 6.56251 1.25 6.56251H33.75C34.0815 6.56251 34.3995 6.44728 34.6339 6.24216C34.8683 6.03704 35 5.75884 35 5.46876V3.28126C35 2.99118 34.8683 2.71298 34.6339 2.50786C34.3995 2.30275 34.0815 2.18751 33.75 2.18751ZM4.15625 31.9238C4.21587 32.7569 4.63606 33.5387 5.33129 34.1102C6.02653 34.6817 6.94453 34.9999 7.89844 35H27.1016C28.0555 34.9999 28.9735 34.6817 29.6687 34.1102C30.3639 33.5387 30.7841 32.7569 30.8438 31.9238L32.5 8.75001H2.5L4.15625 31.9238Z" fill="#DB3939"/>
</svg>
