<svg width="35" height="35" viewBox="0 0 35 35" fill="none" xmlns="http://www.w3.org/2000/svg">
<path d="M24.4635 5.68177L29.9444 11.849C30.1753 12.1088 30.1753 12.5327 29.9444 12.7925L16.6736 27.7251L11.0347 28.4294C10.2812 28.5251 9.64323 27.8072 9.7283 26.9594L10.3542 20.6144L23.625 5.68177C23.8559 5.42196 24.2326 5.42196 24.4635 5.68177ZM34.3073 4.11604L31.342 0.779449C30.4184 -0.259816 28.9175 -0.259816 27.9878 0.779449L25.8368 3.19984C25.6059 3.45966 25.6059 3.88357 25.8368 4.14339L31.3177 10.3106C31.5486 10.5704 31.9253 10.5704 32.1562 10.3106L34.3073 7.89021C35.2309 6.84411 35.2309 5.1553 34.3073 4.11604ZM23.3333 23.6638V30.6241H3.88889V8.74487H17.8524C18.0469 8.74487 18.2292 8.65599 18.3689 8.50557L20.7995 5.77066C21.2613 5.25103 20.9332 4.36902 20.283 4.36902H2.91667C1.30642 4.36902 0 5.83903 0 7.65091V31.7181C0 33.53 1.30642 35 2.91667 35H24.3056C25.9158 35 27.2222 33.53 27.2222 31.7181V20.9289C27.2222 20.1973 26.4384 19.8349 25.9766 20.3477L23.546 23.0826C23.4123 23.2399 23.3333 23.445 23.3333 23.6638Z" fill="#9EAB0B"/>
</svg>
