<svg width="35" height="35" viewBox="0 0 35 35" fill="none" xmlns="http://www.w3.org/2000/svg">
<path d="M17.5 13.125C19.9162 13.125 21.875 15.0838 21.875 17.5C21.875 19.9162 19.9162 21.875 17.5 21.875C15.0838 21.875 13.125 19.9162 13.125 17.5C13.125 15.0838 15.0838 13.125 17.5 13.125Z" fill="#4ECB71"/>
<path d="M33.8406 17.8719C32.5542 21.1994 30.3209 24.0771 27.4168 26.1493C24.5127 28.2214 21.0651 29.3972 17.5 29.5312C13.935 29.3972 10.4873 28.2214 7.58321 26.1493C4.6791 24.0771 2.44582 21.1994 1.1594 17.8719C1.07252 17.6316 1.07252 17.3684 1.1594 17.1281C2.44582 13.8006 4.6791 10.9229 7.58321 8.85072C10.4873 6.77858 13.935 5.60281 17.5 5.46875C21.0651 5.60281 24.5127 6.77858 27.4168 8.85072C30.3209 10.9229 32.5542 13.8006 33.8406 17.1281C33.9275 17.3684 33.9275 17.6316 33.8406 17.8719ZM17.5 10.3906C16.0939 10.3906 14.7194 10.8076 13.5503 11.5888C12.3811 12.37 11.4699 13.4803 10.9318 14.7794C10.3937 16.0784 10.2529 17.5079 10.5273 18.887C10.8016 20.2661 11.4787 21.5328 12.4729 22.5271C13.4672 23.5214 14.734 24.1985 16.1131 24.4728C17.4921 24.7471 18.9216 24.6063 20.2207 24.0682C21.5197 23.5301 22.6301 22.6189 23.4113 21.4498C24.1924 20.2806 24.6094 18.9061 24.6094 17.5C24.6065 15.6154 23.8566 13.8087 22.5239 12.4761C21.1913 11.1435 19.3847 10.3935 17.5 10.3906Z" fill="#4ECB71"/>
</svg>
