<svg xmlns="http://www.w3.org/2000/svg" xmlns:xlink="http://www.w3.org/1999/xlink" viewBox="0 0 563.14 400"><defs><style>.cls-1{fill:#fff5e9;}.cls-2{fill:#663c05;}.cls-3{fill:#84530b;}.cls-4{fill:#b78439;}.cls-5{fill:#5e3702;}.cls-6{fill:#d8a364;}.cls-7{fill:#c4904b;}.cls-8{fill:#f93;}.cls-9{fill:#e87e25;}.cls-10{fill:#d86f21;}.cls-11{fill:#807a83;}.cls-12{fill:#726e75;}.cls-13{fill:#5e5563;}.cls-14{fill:#c6bdba;}.cls-15{fill:#b2aaa8;}.cls-16{fill:#3d3335;}.cls-17,.cls-20{fill:#938d8a;}.cls-17{opacity:0.58;}.cls-18{fill:#160c0f;}.cls-19{fill:#bcbbbb;}.cls-21{fill:#8c8a85;}.cls-22{fill:#565145;}.cls-23{fill:#a09b98;}.cls-24{fill:#8e8a87;}.cls-25{fill:#eadece;}.cls-26{fill:#ddd3c3;}.cls-27{fill:#7a8182;}.cls-28{fill:#ffab17;}.cls-29{fill:url(#linear-gradient);}.cls-30{fill:url(#linear-gradient-2);}.cls-31{fill:#ff8308;}.cls-32{fill:#474237;}.cls-33{fill:#d9d1ce;}.cls-101,.cls-33{opacity:0.38;}.cls-34{fill:#e2dedc;}.cls-35{fill:#a59888;}.cls-36{fill:url(#radial-gradient);}.cls-37{fill:url(#radial-gradient-2);}.cls-38{fill:url(#radial-gradient-3);}.cls-39{fill:#847464;}.cls-40{fill:url(#linear-gradient-3);}.cls-41{fill:#b2aaa3;}.cls-42{fill:#918271;}.cls-43{fill:url(#radial-gradient-4);}.cls-44{fill:#ef2c06;}.cls-45{fill:#010000;}.cls-46{fill:#77727a;}.cls-47{fill:#48424c;}.cls-48{fill:#848787;}.cls-49{fill:#afaaa8;opacity:0.5;}.cls-50{fill:#a39b98;}.cls-51{fill:#8f8a91;}.cls-52{fill:#77707a;}.cls-53{fill:#f48a2a;}.cls-54{fill:#ea802a;}.cls-55,.cls-60{fill:#e88328;}.cls-55{opacity:0.31;}.cls-56{fill:#aac636;}.cls-57{fill:#92b71d;}.cls-58{fill:#b4d844;}.cls-59{fill:#769908;}.cls-61{fill:url(#linear-gradient-4);}.cls-62{fill:url(#linear-gradient-5);}.cls-63{fill:#dd7426;}.cls-64{fill:#ffbc73;}.cls-65{fill:#eda06b;}.cls-66{fill:#4ab6a0;}.cls-67{fill:#18a086;}.cls-68{fill:#b1fce6;}.cls-69{fill:#428474;}.cls-70{fill:#efa452;}.cls-71{fill:url(#linear-gradient-6);}.cls-72{fill:#70360f;}.cls-102,.cls-72{opacity:0.4;}.cls-73{fill:#7a4d27;}.cls-74{fill:#88dd19;}.cls-75{fill:#75bf00;}.cls-76,.cls-77{fill:#41a004;}.cls-76{opacity:0.65;}.cls-78{fill:#fcb17e;}.cls-79{fill:#7a471e;}.cls-80{fill:#f9a458;}.cls-81{fill:#020202;}.cls-111,.cls-82{fill:#fff;}.cls-83{fill:#b56f2a;}.cls-84{fill:#ffce94;}.cls-85{fill:#fce4d0;}.cls-86{fill:#bc7742;}.cls-87{fill:#d8975b;}.cls-88{fill:#f29e66;}.cls-89{fill:#754525;}.cls-90{fill:#a5714e;}.cls-91{fill:#b27c54;}.cls-92{fill:#8e6342;}.cls-93{fill:#378caa;}.cls-94{fill:#85bdcf;}.cls-95{fill:#68b0c1;}.cls-96{fill:#4897af;}.cls-97{fill:#498791;}.cls-98{fill:#ff8812;}.cls-99{fill:#ef7507;}.cls-100{fill:url(#linear-gradient-7);}.cls-101,.cls-102,.cls-103{fill:#012128;}.cls-103{opacity:0.3;}.cls-104{fill:#a3d0d8;}.cls-105{fill:#67b4c1;}.cls-106{fill:#4696af;}.cls-107{fill:#69adbc;}.cls-108{fill:#55a4b7;}.cls-109{fill:#cc7833;}.cls-110{fill:#351d0d;}.cls-111{opacity:0.25;}.cls-112{fill:#8e5a3d;}.cls-113{fill:#8dc9d3;}.cls-114{fill:#ceeaef;}.cls-115{fill:#acdae2;}.cls-116{fill:#9bcad5;}.cls-117{fill:#b78630;}</style><linearGradient id="linear-gradient" x1="101.92" y1="122.45" x2="121.79" y2="122.45" gradientUnits="userSpaceOnUse"><stop offset="0" stop-color="#ffd81a"/><stop offset="1" stop-color="#ffab17"/></linearGradient><linearGradient id="linear-gradient-2" x1="122.25" y1="133.73" x2="150.59" y2="128.22" xlink:href="#linear-gradient"/><radialGradient id="radial-gradient" cx="128.82" cy="139.57" r="2.12" gradientUnits="userSpaceOnUse"><stop offset="0" stop-color="#eadece"/><stop offset="1" stop-color="#c6bdba"/></radialGradient><radialGradient id="radial-gradient-2" cx="136.3" cy="139.57" r="2.12" xlink:href="#radial-gradient"/><radialGradient id="radial-gradient-3" cx="143.77" cy="139.57" r="2.12" xlink:href="#radial-gradient"/><linearGradient id="linear-gradient-3" x1="102.92" y1="124.28" x2="112.02" y2="124.28" xlink:href="#radial-gradient"/><radialGradient id="radial-gradient-4" cx="145.39" cy="153.33" r="6.82" gradientTransform="translate(-17.33 12.81) rotate(-3.33)" xlink:href="#radial-gradient"/><linearGradient id="linear-gradient-4" x1="43.82" y1="171.17" x2="102.39" y2="171.17" gradientUnits="userSpaceOnUse"><stop offset="0" stop-color="#ffab17"/><stop offset="1" stop-color="#ffd81a"/></linearGradient><linearGradient id="linear-gradient-5" x1="39.11" y1="191.56" x2="83.75" y2="191.56" xlink:href="#linear-gradient"/><linearGradient id="linear-gradient-6" x1="340.64" y1="285.37" x2="340.64" y2="177.33" gradientUnits="userSpaceOnUse"><stop offset="0.25" stop-color="#b48329"/><stop offset="0.79" stop-color="#986501"/></linearGradient><linearGradient id="linear-gradient-7" x1="448.51" y1="317.68" x2="448.51" y2="167.7" gradientUnits="userSpaceOnUse"><stop offset="0.25" stop-color="#417d87"/><stop offset="0.79" stop-color="#024a5b"/></linearGradient></defs><title>Asset 1</title><g id="Layer_2" data-name="Layer 2"><g id="Layer_1-2" data-name="Layer 1"><rect class="cls-1" width="563.14" height="400"/><path class="cls-2" d="M39.51,335.86c6-2.05,7.73-12.44-.54-13.89C27.07,319.88,30,339.14,39.51,335.86Z"/><path class="cls-2" d="M195.51,335.86c6-2.05,7.74-12.44-.54-13.89C183.07,319.88,186,339.14,195.51,335.86Z"/><path class="cls-3" d="M78.75,309.59c4.46-5,9.83-5.79,16.2-5.79H110c8.69,0,17.38.33,26.07.55,8.22.21,16.18-.65,24.39-.25,2.4.12,6.1.27,8.38,1.6.88-5.19-6.43-5.47-10.3-5.66-8.21-.4-16.17.46-24.4.25-8.68-.22-17.37-.55-26.06-.55H93c-6.37,0-11.74.78-16.2,5.79-2.17,2.45-8.25,7-5,10.16.08.07.09.32.18.4a9.53,9.53,0,0,0,1.12.64C73.93,314.19,77.25,311.28,78.75,309.59Z"/><path class="cls-3" d="M228.17,296.37a6.93,6.93,0,0,1-4.77,4.18c-5.05,1.46-7.68,7.33-11.07,11.13-4.9,5.5-11.14,8.11-18.46,8.45S31.14,321.35,25.2,317.48l-6.28,5.34v3.92H213l17.48-26.51v-3.91Z"/><path class="cls-4" d="M44.45,296.56l-25.53,26.5H213l17.48-26.5Zm124.06,10.71c-3.28,8.72-9.06,9.33-17.36,9.84-21.33,1.3-42.92.46-64.3.44-4.33,0-10.87,1.67-14.56-1.41l-.26-.23c-3.24-3.15,2.63-7.68,4.8-10.13,4.46-5,9.83-5.79,16.2-5.79h15.08c8.69,0,17.38.33,26.06.55,8.23.21,16.19-.65,24.4-.25C162.75,300.5,170.94,300.8,168.51,307.27Z"/><polygon class="cls-5" points="213.01 326.74 213.01 322.82 230.49 296.31 230.49 300.23 213.01 326.74"/><polygon class="cls-6" points="23.05 321.36 36.05 305.04 18.92 322.82 213.01 322.82 230.49 296.31 213.01 321.09 23.05 321.36"/><path class="cls-7" d="M220.37,296.32c-3.12,1.14-6.33,2.06-9,3.06a244.13,244.13,0,0,1-32.21,9.7c-4.36,1-8.74,1.8-13.14,2.55-3.41,4.37-8.37,4.83-14.87,5.23-10.82.66-21.7.77-32.59.72-2.32.21-4.64.4-7,.55-17.7,1.15-36.51,1.38-53.87-2.81-6.38-1.53-16.93-4.25-21.68-10.28L18.92,322.82H213l17.48-26.5Z"/><path class="cls-3" d="M185,224.77a110.7,110.7,0,0,1,13.28-26.72c1.32-1.94,2.34-3.18-.34-3.85-1.6-.41-4.08.09-5.07,1.39-15,19.63-22.51,49.14-22.5,73.9,0,10.18,6.94,56.93,26.57,47.89-15.56-10.55-17.83-30.41-18.71-48.47C177.66,256.3,180.55,237.5,185,224.77Z"/><path class="cls-3" d="M205.43,206.61a110.7,110.7,0,0,1,13.28-26.72c1.32-1.94,2.34-3.18-.34-3.85-1.6-.41-4.08.09-5.07,1.39-15,19.63-22.51,49.14-22.5,73.91,0,10.17,6.94,56.92,26.57,47.88-15.56-10.55-17.83-30.41-18.71-48.46C198.05,238.14,200.94,219.34,205.43,206.61Z"/><path class="cls-3" d="M46.27,224.77A111.44,111.44,0,0,0,33,198.05c-1.33-1.94-2.34-3.18.33-3.85,1.61-.41,4.08.09,5.07,1.39,15,19.63,22.51,49.14,22.5,73.9,0,10.18-6.94,56.93-26.57,47.89C49.88,306.83,52.16,287,53,268.91,53.64,256.3,50.75,237.5,46.27,224.77Z"/><path class="cls-3" d="M65.79,206.61a110.7,110.7,0,0,0-13.28-26.72c-1.33-1.94-2.34-3.18.33-3.85,1.61-.41,4.08.09,5.08,1.39,15,19.63,22.51,49.14,22.49,73.91,0,10.17-6.93,56.92-26.57,47.88,15.57-10.55,17.84-30.41,18.71-48.46C73.16,238.14,70.28,219.34,65.79,206.61Z"/><polygon class="cls-3" points="213.01 196.33 18.92 196.33 18.92 192.41 44.72 170.48 230.49 165.91 230.49 169.83 213.01 196.33"/><polygon class="cls-5" points="213.01 196.33 213.01 192.41 230.49 165.91 230.49 169.83 213.01 196.33"/><polygon class="cls-4" points="213.01 192.41 18.92 192.41 44.45 165.91 230.49 165.91 213.01 192.41"/><path class="cls-7" d="M211.37,169a242.59,242.59,0,0,1-32.21,9.69,325.57,325.57,0,0,1-33,5.34c-11.49,1.36-23,3-34.57,3.72-17.7,1.15-36.51,1.38-53.87-2.81-6.38-1.54-16.93-4.25-21.68-10.29L18.92,192.41H213l17.48-26.5H220.37C217.25,167.06,214,168,211.37,169Z"/><polygon class="cls-6" points="23.05 190.95 36.05 174.63 18.92 192.41 213.01 192.41 230.49 165.91 213.01 190.69 23.05 190.95"/><path class="cls-8" d="M82.22,165.42C78.14,172,70.78,172.92,65,177.51c-4.36,3.47.1,2.42.55,5.54.31,2.17-4,3.49-5.49,4.49-2.44,1.66-2.72,2.38-2.06,5,.53,2.07.42,4.14.81,6.12,2.55,13.13,6.05,26.21,4.91,39.71-.84,9.89-7.19,29.36-15,11.87-8.11,4.07-9.14-4.19-12.43-9.5-3.51-5.67-7.36-6.25-14-8-.23-8.68,4.28-17.38,6-25.87.63-3.17-.34-5-1-8-.51-2.35.26-5.11,1.05-7.34.9-2.52,2.82-3.64,4.24-5.81s1.58-3.44,3.75-4.95c1.92-1.33,4.23-2.51,5.69-4.28,1.6-1.92.92-4.16,2.1-5.88s3.65-2.07,5.61-2.6c2.3-.61,3.16-1.52,5-2.61,4-2.37,8.18-.07,12.45-.28S78.44,163.2,82.22,165.42Z"/><path class="cls-9" d="M60.85,244.89a74.93,74.93,0,0,0-5-20.39C51.71,213.9,42.64,205.25,40.19,194c-4.21.84-8.66,1.53-12.67.27a10.58,10.58,0,0,0-.21,4.53c.64,3,1.61,4.82,1,8-1.69,8.49-6.2,17.19-6,25.87,6.59,1.75,10.44,2.33,14,8,3.29,5.31,4.32,13.57,12.43,9.5,5.26,11.74,9.85,6.83,12.56-.66C61.13,248,61,246.44,60.85,244.89Z"/><path class="cls-10" d="M65,177.51c5.77-4.59,13.13-5.51,17.21-12.09-3.78-2.22-10.76-.54-15-.33a20.71,20.71,0,0,1-4.3-.37A5.07,5.07,0,0,1,64.41,168c.16,2.78-4.11,4.37-6.13,4.91-4.47,1.19-7.23,3.49-10.91,6.07-3.29,2.31-8.57,2.79-11.13,6-2.27,2.83-2.14,4.48-1.15,7.73.47,1.56.91,3.14,1.24,4.74a1.77,1.77,0,0,1,.55,1c.92,3.87,1.34,7.94,2.76,11.67a9.21,9.21,0,0,0,3.2,4.59l.16,0c8.59,3.27,9.56,10.38,10.11,18.72.44,6.62.87,12.46,4.5,18.21L59.16,254c2.5-4,4.17-10.94,4.57-15.68,1.14-13.5-2.36-26.58-4.91-39.71-.39-2-.28-4.05-.81-6.12-.66-2.58-.38-3.3,2.06-5,1.45-1,5.8-2.32,5.49-4.49C65.11,179.93,60.65,181,65,177.51Z"/><rect class="cls-11" x="87.63" y="141.06" width="1.79" height="11.42"/><path class="cls-12" d="M87.63,141.06v1.84c1.57.38.82,8.12.25,8.82a.25.25,0,0,1-.25.08v.69h1.8V141.06Z"/><path class="cls-13" d="M87.63,141.06v1.36a1.39,1.39,0,0,1,1.11.65,21.12,21.12,0,0,1,.18,4.16,25.36,25.36,0,0,1-.18,4.22,1.28,1.28,0,0,1-1.11.71v.33h1.8V141.06Z"/><rect class="cls-14" x="146.7" y="111.56" width="2.16" height="2.19"/><path class="cls-15" d="M146.7,111.56v.6c.42-.06,1-.13,1.34.19a.27.27,0,0,1-.13.46,3.08,3.08,0,0,1-1.21.1v.84h2.16v-2.19Z"/><path class="cls-11" d="M143.79,112.27c-.17.24-.9.1-1.17.13a17.82,17.82,0,0,1-.08-1.84c0-.37-.14-1.43.12-1.69s.61-.11.8-.08c.35.06.34.18.36.53A18.65,18.65,0,0,1,143.79,112.27Z"/><path class="cls-13" d="M143.82,109.32c0-.35,0-.47-.36-.53l-.25,0a4,4,0,0,1,.25,1.63c0,.45-.09,1.14-.6,1.29a.38.38,0,0,1-.3,0,4.45,4.45,0,0,0,.06.72c.27,0,1,.11,1.17-.13A18.65,18.65,0,0,0,143.82,109.32Z"/><path class="cls-11" d="M144.41,112.1c.32.28.45,1.22.14,1.47s-1.14.16-1.47.17a4.26,4.26,0,0,1-1-.06c-.3-.06-.32,0-.36-.33s0-1.07.35-1.25a2,2,0,0,1,.82-.06,4,4,0,0,1,1.43,0Z"/><path class="cls-13" d="M144.41,112.1l-.1,0-.08,0c-.34.76-1.75.94-2.5.74a2.35,2.35,0,0,0,0,.58c0,.31.06.27.36.33a4.26,4.26,0,0,0,1,.06c.33,0,1.22,0,1.47-.17S144.73,112.38,144.41,112.1Z"/><path class="cls-16" d="M95.25,112.28a2.55,2.55,0,0,1-.78,0s-.15,0-.18,0,0-.15.07-.21a.9.9,0,0,0,0-.28,5.25,5.25,0,0,0,0-.56c0-.14-.05-.35,0-.47s.34-.1.49-.1c.31,0,.61,0,.92,0,.16,0,.41,0,.39.21a3.84,3.84,0,0,0,0,.68,1.49,1.49,0,0,0,.08.43c0,.08.2.21.07.27a1.25,1.25,0,0,1-.43.07C95.68,112.26,95.46,112.26,95.25,112.28Z"/><path class="cls-17" d="M95.81,111.36a3,3,0,0,1-1.34-.41,3.93,3.93,0,0,0,1.09.15,3.48,3.48,0,0,1-1-.25,1.82,1.82,0,0,0,.77,0,3.59,3.59,0,0,1-.73-.12l-.21-.09s0,0,0,0,0,.33,0,.47a5.25,5.25,0,0,1,0,.56s0,.11,0,.17h0a2.87,2.87,0,0,0,1.13,0,4.34,4.34,0,0,1-.52-.07c-.11,0-.42-.13-.47-.25a2.39,2.39,0,0,1,.45.09,1.32,1.32,0,0,0,.56,0,2.33,2.33,0,0,1-.69-.17c-.08,0-.43-.2-.4-.3a2.71,2.71,0,0,0,.51.12A5.34,5.34,0,0,0,95.81,111.36Z"/><path class="cls-18" d="M96.33,112a.3.3,0,0,1-.07-.1,1.49,1.49,0,0,1-.08-.43,3.84,3.84,0,0,1,0-.68c0-.18-.1-.2-.22-.21a1.84,1.84,0,0,1-.3.07,1.48,1.48,0,0,1-.47,0,1,1,0,0,0,.39.07,2.82,2.82,0,0,0,.41,0,2.21,2.21,0,0,1-.74.13,1.54,1.54,0,0,0,.77,0,1.88,1.88,0,0,1-.71.1,2.62,2.62,0,0,0,.74.06,1.22,1.22,0,0,1-.68.13,1.89,1.89,0,0,0,.62.06.91.91,0,0,1-.4.24,1.4,1.4,0,0,1-.5,0,1.63,1.63,0,0,0,.45.09c.09,0,.34,0,.41,0a1,1,0,0,1-.41.16,1.4,1.4,0,0,1-.41,0l.34,0a1.29,1.29,0,0,0,.62-.06.55.55,0,0,1-.3.16,1.43,1.43,0,0,0-.37.08,3.69,3.69,0,0,0,.88,0Z"/><path class="cls-19" d="M96.8,113.39c-.64,0-1.28,0-1.92,0a4.07,4.07,0,0,0-.78,0c-.11,0-.45.16-.54,0s.39-.38.28-.66-.27-.18-.34-.31c-.22-.41.62-.36.84-.35.44,0,.89,0,1.34,0a5.56,5.56,0,0,1,1.22,0c.58.14-.22.52-.12.75s.31.18.38.35S97,113.4,96.8,113.39Z"/><path class="cls-20" d="M95.32,112.88c-.84.05-1.16.07-1.16-.32-.28-.06-.52-.18-.53-.44-.14,0-.22.13-.13.3s.27.15.34.31-.35.53-.28.66.43,0,.54,0a4.07,4.07,0,0,1,.78,0c.64,0,1.28,0,1.92,0,.22,0,.47,0,.36-.24s-.32-.2-.38-.35.7-.61.12-.75h-.09c.11,0-.12.36-.17.4a2.29,2.29,0,0,1-.83.19,4.75,4.75,0,0,0-.93.05,5.34,5.34,0,0,1,1.18.09C96.15,113,95.41,112.88,95.32,112.88Z"/><path class="cls-21" d="M89.87,110.47a4.71,4.71,0,0,1,0,.76c0,.4-.06.81-.08,1.21s.2,1-.06,1.47c-.68,1.18-.75-1.28-.78-1.59a6.72,6.72,0,0,1-.2-1.89c.07-.44.64-.8,1-.36A.79.79,0,0,1,89.87,110.47Z"/><path class="cls-22" d="M89.87,110.47a.79.79,0,0,0-.14-.4.47.47,0,0,0-.39-.2,4.53,4.53,0,0,1,.15,2,1.21,1.21,0,0,1-.52.9c.06.76.22,2.06.75,1.14.26-.48,0-1,.06-1.47s.06-.81.08-1.21A4.71,4.71,0,0,0,89.87,110.47Z"/><rect class="cls-23" x="148.26" y="118.24" width="8.07" height="12.83" rx="2.37"/><path class="cls-24" d="M155.3,129.4c-2.2.46-2.44-2.92-2.46-4.24s-.42-5.59.94-6.92h-3.15a2.37,2.37,0,0,0-2.37,2.37v8.09a2.38,2.38,0,0,0,2.37,2.37H154a2.37,2.37,0,0,0,2.35-2.19A2.22,2.22,0,0,1,155.3,129.4Z"/><path class="cls-23" d="M151.65,173.72A2.29,2.29,0,0,1,149.3,176H73.7a2.29,2.29,0,0,1-2.35-2.24h0a2.29,2.29,0,0,1,2.35-2.24h75.6a2.29,2.29,0,0,1,2.35,2.24Z"/><path class="cls-25" d="M78.22,113.11c-9.15,0-8.17,21.25-4.12,26.08,2.75,3.29,10.48,2.84,14.61,2.78,8-.11,9.48.1,10.9-5.45.52-2,.3-3.78,2.18-5s14.92-2.4,18.48,1.16c3.24,3.24,4,18.94.8,19.25-2.61.26-44.15.11-46.51,1-4.43,1.61-7.11,4.17-8.28,8.34-1.24,4.39-.31,9.52,5.07,11.87l81.14,0c3.5-3,3.11-13.52,2.27-17.6a141,141,0,0,1-2.55-15.07c-.52-5.17,1.62-26.31-3-27.26Z"/><path class="cls-26" d="M154.76,155.44a141,141,0,0,1-2.55-15.07c-.52-5.17,1.62-26.31-3-27.26H78.22c-9.15,0-8.17,21.25-4.12,26.08,2.75,3.29,10.48,2.84,14.61,2.78,8-.11,9.48.1,10.9-5.45.52-2,.3-3.78,2.18-5s14.92-2.4,18.48,1.16c3.24,3.24,4,18.94.8,19.25-2.61.26-44.15.11-46.51,1-4.43,1.61-7.11,4.17-8.28,8.34-1.24,4.39-.31,9.52,5.07,11.87l81.14,0C156,170,155.6,159.52,154.76,155.44Zm-12.38,8.13c-3.57.53-7-.11-10.56-.16-4.47,0-8.93.08-13.39.26-9.42.37-18.78,1-28.19,1.61a65.46,65.46,0,0,1-12.44.11c-2-.25-4.68-.58-6.26-2-4.72-4.39,4.8-7.91,7.87-8.4,6.54-1,13.15.33,19.71.55,6.41.22,13.16,1.47,19.52.17,3.12-.64,7.43-2.12,8.26-5.68.65-2.82-.16-5.84-.12-8.71a2,2,0,0,1,.17-.79,41.57,41.57,0,0,0-.67-5.92c-.7-2.7-2.43-4-4.84-5.31-4.58-2.41-9.84-4.43-15.09-3.79a42.59,42.59,0,0,1-5.48.5c-1.65.1-4.51.17-5.43,1.9-.62,1.16-.92,2.55-1.65,3.65-2.67,4-9,5.87-13.56,4.27-9-3.16-6.26-17,1.51-20,.16-.12,9.5.11,18,.85,12.29-2.55,25.11-.52,37.52-.08,3.88.13,9.12.65,9.75,5.37a58.79,58.79,0,0,1,0,6.9c0,.95,0,1.91,0,2.87a42.44,42.44,0,0,1,1.06,7.8c.28,3.14,1.12,6.16,1.55,9.27C150.44,154.58,149.62,162.5,142.38,163.57Z"/><path class="cls-14" d="M154.76,155.44a141,141,0,0,1-2.55-15.07c-.52-5.17,1.62-26.31-3-27.26H78.22c-9.15,0-8.17,21.25-4.12,26.08,2.75,3.29,10.48,2.84,14.61,2.78,8-.11,9.48.1,10.9-5.45.52-2,.3-3.78,2.18-5s14.92-2.4,18.48,1.16c3.24,3.24,4,18.94.8,19.25-2.61.26-44.15.11-46.51,1-4.43,1.61-7.11,4.17-8.28,8.34-1.24,4.39-.31,9.52,5.07,11.87l81.14,0C156,170,155.6,159.52,154.76,155.44Zm-6.5,14.9c-1.4.3-73.85,2.16-77.52-.22-5.38-2.58-4-10.25,0-13.68,4.89-4.24,12.35-2.93,18.23-2.68,8.62.37,17.18-.07,25.79-.08a26.87,26.87,0,0,0,7.06-.46c2.6-3,2.81-7.6,2.82-11.81,0-5.37-.57-11.72-6.64-13.44a1.85,1.85,0,0,1-1.06-.72,85.62,85.62,0,0,0-11.8.29c-1.4.27-5.59,0-6.59,1.13-1.79,2-1,6.44-3.15,8.27-3.82,3.23-12.41,3.7-16.75,1.34-4.77-2.59-6.83-8.13-6-13.36,1.08-6.4,5.56-10.21,12.11-10.08,9.13.19,18.27,1,27.41,1.2,7.66.19,28.61-1.25,33.61.24a4.92,4.92,0,0,1,4.28,3.51c1.48,4,.68,8.27.28,12.38-.45,4.58.5,9.07,1.08,13.61a106.45,106.45,0,0,1,1.2,14.6C153.06,164.76,152.45,169.42,148.26,170.34Z"/><path class="cls-27" d="M89,113.05c-.07.61-.11,1.16-.12,1.29,0,1.58.16,19,.23,21.33.07,2-.07,4.25.15,6.24h.38c.53-3.89.07-23.34.07-26.11,0-.94.06-1.83.08-2.74Z"/><path class="cls-27" d="M93.57,135.75c.06,1.95,0,4.09.07,6.1l.66-.06c.4-6.12,0-23.91,0-28.68h-1C93.32,119.12,93.49,133.45,93.57,135.75Z"/><path class="cls-28" d="M140.83,146a25.12,25.12,0,0,0,5.34-.56c5.68-1.34,2.63-10.5,2.38-14.51a86,86,0,0,1,.34-9.5c.1-2.09.09-5.35-2.52-5.9-3.93-.82-8.12-.47-12.11-.35-4.41.13-8.82,0-13.23,0-4.58,0-9.16-.27-13.76-.27-2.57,0-5.52-.52-8,.44-2.91,1.14-3,5.39-2.79,8,.2,2.9,1.3,6.16,4.66,6.45,3,.26,5.78-1,8.71-1.16,3.2-.15,7.18-.2,10.08,1.41s3.72,5.11,3.88,8.26c.14,2.67-.52,6.91,2.78,7.51,3,.56,6.53.19,9.69.19C137.76,146,139.3,146.06,140.83,146Z"/><path class="cls-29" d="M118.66,124.57a35.52,35.52,0,0,1,2.48-8.19c.2-.41.42-.81.65-1.21H121c-1.86,0-3.72,0-5.58-.1a25.59,25.59,0,0,0-2.66,1.71,32.58,32.58,0,0,0-7.45,7.69,33.87,33.87,0,0,0-3.42,5.38c2.69,0,5.27-1.07,7.94-1.19a26.25,26.25,0,0,1,7.91.54C118,127.64,118.33,126.09,118.66,124.57Z"/><path class="cls-30" d="M131.12,146.13a19.35,19.35,0,0,0,4.87-4.66,59.55,59.55,0,0,0,6.75-10.11,109.44,109.44,0,0,0,4.88-11.55c.26-.74.57-1.52.88-2.33a2.86,2.86,0,0,0-2.13-1.92c-.6-.12-1.22-.21-1.83-.29-.57.75-1.13,1.5-1.61,2.27a100.53,100.53,0,0,1-6.26,8.92,40.64,40.64,0,0,1-7.49,7.16,29.4,29.4,0,0,1-5.43,3.69c0,.34,0,.68.07,1,.14,2.67-.52,6.91,2.78,7.51A23.06,23.06,0,0,0,131.12,146.13Z"/><path class="cls-31" d="M148.55,131a86,86,0,0,1,.34-9.5c.1-2.09.09-5.35-2.52-5.9-3.93-.82-8.12-.47-12.11-.35-4.41.13-8.82,0-13.23,0-4.58,0-9.16-.27-13.76-.27-2.57,0-5.52-.52-8,.44-2.91,1.14-3,5.39-2.79,8,.2,2.9,1.3,6.16,4.66,6.45,3,.26,5.78-1,8.71-1.16,3.2-.15,7.18-.2,10.08,1.41s3.72,5.11,3.88,8.26c.14,2.67-.52,6.91,2.78,7.51,3,.56,6.53.19,9.69.19,1.47,0,3,0,4.54,0a25.12,25.12,0,0,0,5.34-.56C151.85,144.13,148.8,135,148.55,131ZM146,143.18c-3,1.26-7,1.14-10.22,1.3-2.69.14-5.36.37-7.8-.95s-2.37-4.55-2.65-6.93c-.43-3.52-1-6.75-4.56-8.4a20.53,20.53,0,0,0-12.28-1c-2.84.69-6.15,1.84-8.83.11-3.61-2.32-3.29-7.73-.56-10.18a7.34,7.34,0,0,1,4.65-1.44c3.16.41,6.17.84,9.38,1,4.58.24,9.21.6,13.8.48,4.37-.11,8.77-.95,13.14-.88,2.26,0,4.8.28,6.4,2.06,1.77,2,0,5,0,7.25-.11,4.35,1.55,8.45,1.61,12.76C148.1,140.3,148.05,142.35,146,143.18Z"/><path class="cls-32" d="M89.82,122c0-.87-.08-1.75-.08-2.63a15,15,0,0,1,0-2.12c.08-.58.17-1-.48-1.12s-.85,0-.93.68a21.76,21.76,0,0,0,0,2.68c0,1,0,1.9.12,2.83.06.54.09,1.94,1,1.53C90.21,123.53,89.85,122.6,89.82,122Z"/><path class="cls-33" d="M88.61,118.75c0,.38,0,1.39.24,1.64a5.82,5.82,0,0,0,.25-2,7.89,7.89,0,0,0,0-1.29c-.09-.41-.37-.43-.49,0A7.39,7.39,0,0,0,88.61,118.75Z"/><path class="cls-34" d="M96.59,112.31a15,15,0,0,0-1.5,0c-.26,0-.5-.09-.75-.09s-.55,0-.34.19a.91.91,0,0,0,.46.1c.42,0,.83,0,1.24,0C95.92,112.51,96.48,112.59,96.59,112.31Z"/><path class="cls-14" d="M154,123.68c0,1-.33,4.13.69,4.47,1.17.4,1-3.72.91-4.57s-.18-3.29-.73-4C153.83,118.33,154,122.94,154,123.68Z"/><path class="cls-26" d="M149.42,111.56a.47.47,0,0,1-.47.47h-2.37a.47.47,0,0,1-.47-.47h0a.47.47,0,0,1,.47-.47H149a.47.47,0,0,1,.47.47Z"/><path class="cls-14" d="M149,111.09h-2.37a.47.47,0,0,0,0,.94H149a.47.47,0,0,0,0-.94Zm.16.63a6.3,6.3,0,0,1-2.38.07c-.37.07-.53-.5-.15-.57h0a12.55,12.55,0,0,1,2.45,0A.3.3,0,0,1,149.11,111.72Z"/><path class="cls-35" d="M131.49,139.57a2.67,2.67,0,1,1-2.67-2.67A2.66,2.66,0,0,1,131.49,139.57Z"/><path class="cls-36" d="M130.94,139.57a2.12,2.12,0,1,1-2.12-2.11A2.12,2.12,0,0,1,130.94,139.57Z"/><path class="cls-25" d="M127.77,139.61c.18-.24.18-.53.42-.75a3.82,3.82,0,0,1,.95-.47c.71-.35.17-.65-.39-.6a2,2,0,0,0-1.46.83C127.07,139,127.28,140.29,127.77,139.61Z"/><path class="cls-35" d="M139,139.57a2.67,2.67,0,1,1-2.67-2.67A2.67,2.67,0,0,1,139,139.57Z"/><path class="cls-37" d="M138.41,139.57a2.12,2.12,0,1,1-2.11-2.11A2.11,2.11,0,0,1,138.41,139.57Z"/><path class="cls-25" d="M135.25,139.61c.17-.24.18-.53.42-.75a3.51,3.51,0,0,1,1-.47c.71-.35.16-.65-.4-.6a2.07,2.07,0,0,0-1.46.83C134.55,139,134.76,140.29,135.25,139.61Z"/><path class="cls-35" d="M146.44,139.57a2.67,2.67,0,1,1-2.67-2.67A2.66,2.66,0,0,1,146.44,139.57Z"/><path class="cls-38" d="M145.89,139.57a2.12,2.12,0,1,1-2.12-2.11A2.12,2.12,0,0,1,145.89,139.57Z"/><path class="cls-25" d="M142.72,139.61c.18-.24.18-.53.42-.75a3.66,3.66,0,0,1,1-.47c.71-.35.17-.65-.39-.6a2,2,0,0,0-1.46.83C142,139,142.23,140.29,142.72,139.61Z"/><path class="cls-35" d="M113.56,124.26a1.35,1.35,0,0,1-1.2,1.45H102.27a1.35,1.35,0,0,1-1.2-1.45h0a1.34,1.34,0,0,1,1.2-1.45h10.09a1.34,1.34,0,0,1,1.2,1.45Z"/><path class="cls-39" d="M112.94,124.28a1.08,1.08,0,0,1-1.08,1.07h-9.09a1.08,1.08,0,0,1-1.08-1.07h0a1.08,1.08,0,0,1,1.08-1.06h9.09a1.08,1.08,0,0,1,1.08,1.06Z"/><path class="cls-40" d="M112,124.28a1,1,0,0,1-.87,1.07h-7.36a1,1,0,0,1-.87-1.07h0a1,1,0,0,1,.87-1.06h7.36a1,1,0,0,1,.87,1.06Z"/><path class="cls-25" d="M103.26,125.12c1.91-2.27,5.91-2.07,8.75-1a.94.94,0,0,0-.86-.86h-7.36a1,1,0,0,0-.87,1.06A1.15,1.15,0,0,0,103.26,125.12Z"/><path class="cls-41" d="M107.84,124.31a3.08,3.08,0,0,1-.2.86,2.93,2.93,0,0,1-.19-.4,2.71,2.71,0,0,1-.1-.51,1.22,1.22,0,0,1,.26-1,1.4,1.4,0,0,1,.23.94Z"/><path class="cls-42" d="M107.64,125.17a2.93,2.93,0,0,1-.19-.4,2.71,2.71,0,0,1-.1-.51,1.22,1.22,0,0,1,.26-1Z"/><path class="cls-35" d="M144.2,157.44a7.49,7.49,0,1,1-7.49-7.49A7.49,7.49,0,0,1,144.2,157.44Z"/><path class="cls-43" d="M143.52,157a6.82,6.82,0,1,1-7.21-6.41A6.82,6.82,0,0,1,143.52,157Z"/><path class="cls-25" d="M133.33,157.76c.53-.82.5-1.73,1.22-2.49a11.45,11.45,0,0,1,3-1.7c2.22-1.27.41-2.13-1.38-1.84a6.51,6.51,0,0,0-4.53,2.93C131,155.88,131.88,160,133.33,157.76Z"/><path class="cls-44" d="M130.42,157.28h0a.08.08,0,0,1-.07-.09c.07-.52.16-.63.27-.65s.22.14.3.29l.08.15.07.06.05-.16c0-.12.1-.27.22-.33a.2.2,0,0,1,.15,0c.11,0,.16.18.21.31a1.21,1.21,0,0,0,.08.19l0,0a.61.61,0,0,0,.09-.16.51.51,0,0,1,.26-.3c.26-.09.37.18.42.35a.67.67,0,0,0,.06.12.1.1,0,0,1,.06.09.09.09,0,0,1-.09.08h0c-.1,0-.14-.11-.18-.23s-.13-.28-.21-.25-.12.11-.16.21a.69.69,0,0,1-.13.2.19.19,0,0,1-.18.08c-.11,0-.16-.15-.21-.29s-.07-.2-.11-.21-.11.15-.15.24-.08.24-.19.26-.17-.06-.22-.12a1.94,1.94,0,0,1-.1-.17.7.7,0,0,0-.14-.21,3.13,3.13,0,0,0-.12.51A.08.08,0,0,1,130.42,157.28Z"/><path class="cls-44" d="M133.06,154.86l0-.09a.07.07,0,0,1,0-.11l0,0a1,1,0,0,1,0-.17,3.93,3.93,0,0,1,.06-.59,6.16,6.16,0,0,0-.87.5l-.09.06,0-.1a1.44,1.44,0,0,1,0-.59c0-.08,0-.15,0-.21l-.21.09a1.88,1.88,0,0,0-.61.35.09.09,0,0,1-.12,0,.08.08,0,0,1,0-.12,1.85,1.85,0,0,1,.66-.38l.32-.15.12-.07v.13a2.44,2.44,0,0,1,0,.38,1.85,1.85,0,0,0,0,.4,9,9,0,0,1,1-.52l.18-.09-.07.19a2.75,2.75,0,0,0-.09.73c0,.1,0,.19,0,.27v.06l-.05,0Z"/><path class="cls-44" d="M134.27,153a.06.06,0,0,1-.06,0,.07.07,0,0,1,0-.12l.42-.41-.7.35.61-.72-.85.41.57-.61-.81.4.62-.62-.65.28a.08.08,0,0,1-.11,0,.08.08,0,0,1,.05-.11l1.45-.64-.53.53.73-.36-.58.63.76-.37-.58.68.9-.46L134.33,153Z"/><path class="cls-44" d="M138.93,163.4a.08.08,0,0,1-.08-.07l-.8-2.93,2.09,1.88-.79-2.45,1.79,1.42-.83-2,1.74,1-.86-1.5,1.44.15-.79-1,1.14-.14-.68-.63.73-.34-.49-.56.52-.52-.29-.41a.1.1,0,0,1,0-.12.07.07,0,0,1,.11,0l.37.53-.51.51.54.61-.71.33.76.71-1.2.14.86,1.05L141.5,159l1,1.75-1.84-1,.89,2.11-1.87-1.48.8,2.51-2.12-1.91.65,2.38a.08.08,0,0,1-.06.1S138.94,163.4,138.93,163.4Z"/><path class="cls-44" d="M137.69,152.73h-.11c-.36,0-.72,0-.82-.2a.25.25,0,0,1,0-.24.39.39,0,0,1,.21-.17.46.46,0,0,1-.27-.18.22.22,0,0,1,0-.22.55.55,0,0,1,.33-.2.58.58,0,0,1-.36-.21.18.18,0,0,1,0-.22c.1-.18.53-.2,1-.19h.08a.09.09,0,0,1,.08.08.09.09,0,0,1-.08.09h-.08c-.67,0-.81.06-.84.1a.11.11,0,0,0,0,.05c.09.14.58.22.9.23v.17c-.28,0-.76,0-.86.19s0,0,0,0,.63.22.83.22v.17h-.13c-.21,0-.56,0-.64.13s0,.07,0,.07.51.12.68.13h.12a.09.09,0,0,1,.08.09A.1.1,0,0,1,137.69,152.73Z"/><path class="cls-44" d="M132.15,159.36a.72.72,0,0,1-.64.73,1.11,1.11,0,0,0-.09-1.58C131.89,158.62,132.22,158.85,132.15,159.36Z"/><rect class="cls-45" x="90.8" y="144.18" width="0.79" height="0.46"/><path class="cls-45" d="M92.88,144.35c0,.53-.31,1-.71,1s-.71-.44-.71-1,.32-1,.71-1S92.88,143.82,92.88,144.35Z"/><path class="cls-46" d="M89.38,144.9a3,3,0,0,0,1.51,0c.22-.11.24-.33.22-.6s-.09-.44-.44-.44-.61,0-.93,0-.5,0-.61.29A.6.6,0,0,0,89.38,144.9Z"/><path class="cls-47" d="M89.76,144.5a.53.53,0,0,1-.35-.52l0-.1a.39.39,0,0,0-.31.28.6.6,0,0,0,.25.74,3,3,0,0,0,1.51,0,.41.41,0,0,0,.22-.39A1.8,1.8,0,0,1,89.76,144.5Z"/><rect class="cls-45" x="90.6" y="149.94" width="0.39" height="0.23"/><path class="cls-45" d="M91.63,150c0,.27-.16.48-.35.48s-.35-.21-.35-.48.16-.47.35-.47S91.63,149.76,91.63,150Z"/><path class="cls-46" d="M89.41,150.5a2.16,2.16,0,0,0,1.1,0c.16-.08.17-.24.16-.43s-.07-.32-.32-.32-.45,0-.68,0-.37,0-.44.22A.43.43,0,0,0,89.41,150.5Z"/><path class="cls-47" d="M89.69,150.21a.4.4,0,0,1-.26-.38.25.25,0,0,0,0-.07.25.25,0,0,0-.22.2.43.43,0,0,0,.18.54,2.16,2.16,0,0,0,1.1,0,.29.29,0,0,0,.16-.28A1.28,1.28,0,0,1,89.69,150.21Z"/><path class="cls-14" d="M95.91,155.79c5.59-.13,11.19-.1,16.78-.41,2-.11,5,.22,6.79-.52,1.37-.56,2.3-1.64,1.89-3a1,1,0,0,1-.3.08c-2.61.26-44.15.11-46.51,1a16.51,16.51,0,0,0-3.69,1.84,10.73,10.73,0,0,0,1.87.6,36,36,0,0,0,6.56.6C84.84,156.08,90.36,155.93,95.91,155.79Z"/><path class="cls-48" d="M94.68,154.75c-.3-.84-.73-1.67-1-2.54-3,0-5.9.08-8.51.13-.31,1.22-.63,2.43-1,3.64,3.6,0,7.2-.08,10.81-.17C94.91,155.45,94.8,155.1,94.68,154.75Z"/><path class="cls-49" d="M94.16,153.46l-.57-.06a21.92,21.92,0,0,1-5.44-1.11l-1.29,0a13.51,13.51,0,0,0,5.52,2.5c.82.2,1.66.35,2.48.54-.06-.2-.11-.41-.18-.6C94.52,154.32,94.34,153.89,94.16,153.46Z"/><path class="cls-49" d="M90.09,155.17a8.36,8.36,0,0,1-4.7-2.84h0c-.13.49-.51,2.93-.59,3.63,2.78,0,5.56-.05,8.35-.11C92.09,155.66,91.08,155.45,90.09,155.17Z"/><path class="cls-49" d="M88,155.94c1.69,0,3.38,0,5.07-.08-1-.2-2-.41-3-.69a8.57,8.57,0,0,1-4.53-2.64A5.32,5.32,0,0,0,88,155.94Z"/><path class="cls-50" d="M121.37,151.83a1,1,0,0,1-.3.08l-.38,0a2.57,2.57,0,0,1-.63,1.13c-1.23,1.32-3.19,1.58-4.92,1.59-2.45,0-4.89-.33-7.35-.2-3.26.17-6.53.16-9.8.19-6.42.06-12.78.64-19.2.31-1.45-.07-3.44.08-4.63-.92a1.16,1.16,0,0,1-.48-.82,15.21,15.21,0,0,0-2.81,1.49,10.73,10.73,0,0,0,1.87.6,36,36,0,0,0,6.56.6c5.54.17,11.06,0,16.61-.12s11.19-.1,16.78-.41c2-.11,5,.22,6.79-.52C120.85,154.3,121.78,153.22,121.37,151.83Z"/><path class="cls-14" d="M90.53,152.25a1.65,1.65,0,0,0,0-.88c-.05-.1-.43-.05-1.07,0a.93.93,0,0,1-.4.53,1.33,1.33,0,0,1-.86.05.91.91,0,0,1-.53-.6s-.94-.06-1,.1-.17.82-.06.88Z"/><path class="cls-51" d="M89.35,152.08a6,6,0,0,1-2.64-.18l-.12-.07c0,.22,0,.45,0,.48l3.92-.06s0-.2,0-.41A4.87,4.87,0,0,1,89.35,152.08Z"/><path class="cls-52" d="M90.49,152.29s-1,0-1.25,0l-.19,0c0-.06.1-.11.14-.18s.07-.16.11-.25a.42.42,0,0,1,.28-.31,1.55,1.55,0,0,1,.93.06.28.28,0,0,1,.18.23S90.63,152.23,90.49,152.29Z"/><path class="cls-51" d="M89.67,151.73c-.25.1-.43.57-.43.57l-.19,0c0-.06.1-.11.14-.18s.07-.16.11-.25a.42.42,0,0,1,.28-.31,1.55,1.55,0,0,1,.93.06.28.28,0,0,1,.18.23S90.09,151.56,89.67,151.73Z"/><path class="cls-52" d="M86.59,152.3H88c0-.07-.1-.11-.14-.18a2,2,0,0,1-.11-.26.42.42,0,0,0-.28-.31,1.64,1.64,0,0,0-.93.07.32.32,0,0,0-.18.22S86.45,152.24,86.59,152.3Z"/><path class="cls-51" d="M87.41,151.74c.25.09.43.56.43.56H88c0-.07-.1-.11-.14-.18a2,2,0,0,1-.11-.26.42.42,0,0,0-.28-.31,1.64,1.64,0,0,0-.93.07.32.32,0,0,0-.18.22S87,151.57,87.41,151.74Z"/><path class="cls-28" d="M77.94,158.71a5.72,5.72,0,0,0-.94,2.61,15.23,15.23,0,0,0-.14,4.47c.32,1.56,1.51,2.71,1.64,4.38.52,6.56-10.38,4.79-14.24,5-4.42.2-9-.65-12.28,2.85a26.3,26.3,0,0,0-2,2.67c-3.1,4.22-12.51,1.83-12.87,9-.27,5.3,5.14,9.69,6.68,14.48.64,2,.36,4.45,1.29,6.28,1.44,2.81,5,3.8,6.67,6.59,2.29,3.86,2.34,9,2.37,13.34,0,6.21,0,5.13,3.12,11.31,4,7.78,3.32,17.14,8.17,24.49,7-4.54,11.36-19.17,14.31-27,2.42-6.44-1.5-21.56,6.89-22.65,3.8-7.39-2.2-18.25,2.5-24.78,4.52-6.28,20.55-4,27.76-4.53,1.55-.1,3.46.19,4.64-1.16,1.31-1.5-.86-2.62-2-3.39-2.23-1.5-5.54-1.1-7.54-2.67-.76-.6-1-1.72-1.71-2.38-.94-.86-2.2-1.23-3.12-2.16a23.78,23.78,0,0,0-2.28-2.52c-1.06-.81-2.29-1.44-3.37-2.28a10,10,0,0,1-2.89-3.2c-.7-1.42-.34-2.3-.07-3.73.52-2.81-1.28-4-2.25-6.33a4,4,0,0,1,.06-3c.13-.31,1.62-2.51,2-2.29a5.94,5.94,0,0,0-4.25-.31,27.56,27.56,0,0,1-4.5.64,35.53,35.53,0,0,1-3.56-.19c-.76,0-3.16-.31-3.68.28-.37.42-.16,1.69-.54,2.31-.76,1.24-2.06,2-3.06,3A5.77,5.77,0,0,0,77.94,158.71Z"/><path class="cls-53" d="M88.05,193.69c-16.72,1.6-33.56.25-50.35-.65,1.39,3.85,4.91,7.34,6.11,11.06.64,2,.36,4.45,1.29,6.28,1.44,2.81,5,3.8,6.67,6.59,2.29,3.86,2.34,9,2.37,13.34,0,6.21,0,5.13,3.12,11.31,4,7.78,3.32,17.14,8.17,24.49,7-4.54,11.36-19.17,14.31-27,2.42-6.44-1.5-21.56,6.89-22.65C90.06,209.77,85.51,200.27,88.05,193.69Z"/><path class="cls-54" d="M88.05,193.69c-16.72,1.6-33.56.25-50.35-.65q.16.45.36.9a.53.53,0,0,1,.12,0c5.2,1.83,10.72,1.52,16,2.93s10.31,3.75,15.52,5.54c3.4,1.16,7.33,1.9,9.31,5.22,1.25,2.1.57,4.92-.08,7.09-.53,1.82-1.62,4.2-1.5,6.11s.82,4.07,0,5.76a10,10,0,0,0-1.22,6.93,74.54,74.54,0,0,1,.32,7.49,36.85,36.85,0,0,1-.89,9.19c1.62-4.08,3-8.11,4.1-11.14,2.42-6.44-1.5-21.56,6.89-22.65C90.06,209.77,85.51,200.27,88.05,193.69Z"/><path class="cls-55" d="M119.52,182.58c-2.23-1.5-5.54-1.1-7.54-2.67-.76-.6-1-1.72-1.71-2.38-.94-.86-2.2-1.23-3.12-2.16a23.78,23.78,0,0,0-2.28-2.52c-1.06-.81-2.29-1.44-3.37-2.28a10,10,0,0,1-2.89-3.2c-.7-1.42-.34-2.3-.07-3.73.52-2.81-1.28-4-2.25-6.33a4,4,0,0,1,.06-3c.13-.31,1.62-2.51,2-2.29a4.62,4.62,0,0,0-1.92-.53c-2.76,4.72-6.47,10.62-2.8,15.82,1.79,2.53,4.7,3.47,6.73,5.78,1.5,1.71,2.42,3.93,3.71,5.81a1.93,1.93,0,0,1-1.14,2.8c-3.26,1.32-6.49,1.5-10,1.58-3.94.08-6,1.24-9.31,3-5.68,3.14-12.33,2.25-18.57,2.32-9.34.11-18.59.3-27.86.17,0,.14,0,.27-.06.42,18.17,1,36.47,2.59,54.55.27,6.34-3.49,19-1.92,25.17-2.33,1.55-.1,3.46.19,4.64-1.16C122.84,184.47,120.67,183.35,119.52,182.58Z"/><path class="cls-56" d="M212.3,164.94c.35-.57-29.2-2.12-32.63-1.41-16.22,3.37-29.13,18.66-39.38,30.63,11.35,6.36,7.06,38.16,10.14,50,8.54-13,12.79-29.11,20.31-42.76C180.18,184.29,202.24,181.21,212.3,164.94Z"/><path class="cls-57" d="M188.75,178.9c-12.58,6.16-28.06,12-42,7.84-2.26,2.52-4.41,5-6.45,7.42,11.35,6.36,7.06,38.16,10.14,50,8.54-13,12.79-29.11,20.31-42.76,9.44-17.12,31.46-20.21,41.53-36.44A192.52,192.52,0,0,1,188.75,178.9Z"/><path class="cls-58" d="M142.51,191.57l-2.22,2.59c11.35,6.36,7.06,38.16,10.14,50,8.54-13,12.79-29.11,20.31-42.76a35,35,0,0,1,6.78-8.61C165.87,193.49,154.07,192.72,142.51,191.57Z"/><path class="cls-59" d="M166.43,197.38c-6.19.43-12.55.78-18.73,0-1.48-.19-3-.39-4.53-.69,7.7,9.82,4.48,36.77,7.26,47.48,8.54-13,12.79-29.11,20.31-42.76a32.78,32.78,0,0,1,3.13-4.67C171.39,197,168.92,197.21,166.43,197.38Z"/><path class="cls-55" d="M80.57,177.48A123.89,123.89,0,0,0,95.4,179c-3.5-3.63-8.78-5-12.15-8.59-1-1.07-1-2.05-1.67-3.15-.91-1.53-1.17-1.51-2.81-2.46a13.73,13.73,0,0,1-2-1.38,8.7,8.7,0,0,0,.09,2.34c.32,1.56,1.51,2.71,1.64,4.38.52,6.56-10.38,4.79-14.24,5-4.42.2-9-.65-12.28,2.85a26.3,26.3,0,0,0-2,2.67,5.19,5.19,0,0,1-1.25,1.18,26.73,26.73,0,0,1,3.57-.41c3-.14,12.69,1.24,14.42-1.33-.34-.31-.6-1.09-.79-1.29C70.8,178.67,75.66,176.82,80.57,177.48Z"/><path class="cls-60" d="M62.37,176.78c6.87-.82,14-1.77,20.84-.86a18.25,18.25,0,0,1-4.81-4.32c-1.1,4.85-10.59,3.37-14.14,3.53-4.42.2-9-.65-12.28,2.85a11.06,11.06,0,0,0-1,1.26C54,176.57,58.43,176.66,62.37,176.78Z"/><path class="cls-61" d="M83.27,163.56c-6.1,4.95,13.58,10.76,13.5,14.66-.1,4.59-22-.1-20,4.49-2.28,0-7.9-1.55-7.2,2.93-3.64,1.16-8.72-.26-12.43-.82-4.2-.63-9.26-.94-13.36.12,3.23,3.17,8.83,1.86,13,2.07,4.44.22,8.77-.26,13.32-.26,2.22,0,4.36.29,6.15-.79.17-.1,0-1,.51-1.28s1.12-.19,1.6-.39c1.06-.43,2.23-.62,3.21-1,4.21-1.62,7.69-1.77,12.25-2.2a37.17,37.17,0,0,0,8.49-1.85c-.24-3.14-6.21-5.39-8.46-7.21.15-.17.36-.52.53-.74-1.37-1.48-3.77-1.29-5.42-2.59-2.78-2.2-1.67-2.7-.46-4.8.59-1,1.34-1.37,1.06-2.73-.37-1.8-1.49-1.14-2.4-2.21-1.7-2,0-1.78,1.62-3.66.09-.1-5.27-.22-6.32.6C79.3,158.42,81.15,161.13,83.27,163.56Z"/><path class="cls-62" d="M73.65,193.94c2.91.15,7.87.7,10.1-1-7.86-.33-15.44-1.46-23.16-2.19-4-.37-7.64-.92-11.73-1.13-2.23-.11-6.57-1.39-8.54,0-4.45,3.15,4.68,2.45,6.08,2.46,4.24,0,8,1.2,12.15.61C63.54,192,68.64,193.69,73.65,193.94Z"/><path class="cls-54" d="M69.16,256.83c-.41-3-.25-6.22-.41-9.38-.29-6-.34-13.37-2.86-18.79-2.53,3.75-1.41,10.91-4.1,15.22a64.61,64.61,0,0,1-5.5-18.77c-1-6.7,1-14.64-.95-21.13-3.06,2.47-4.35,6.81-5.69,10.68A8.81,8.81,0,0,1,51.77,217c2.29,3.86,2.34,9,2.37,13.34,0,6.21,0,5.13,3.12,11.31,4,7.78,3.32,17.14,8.17,24.49a18.31,18.31,0,0,0,5-5.38A13.26,13.26,0,0,1,69.16,256.83Z"/><path class="cls-63" d="M60.49,251.47a3.41,3.41,0,0,0-1.93-.89c-4.39-.43-3.73.94-7-3.15-1.63-2.08-4.07-3.39-4.89-5.78-1.7-5,2.79-13.44-.62-17.68-.46,2.86-1.89,13.42-5.1,13.61-.25-.73-.57-2.76-1.15-3.16-1.46-1-1.73,0-3.23-.59-3-1.12-3.45-2.36-3.13-6.37.38-4.92,3.32-10.67,2.26-15.65.49,2.33-6.79,12.78-8.65,14.55A7.25,7.25,0,0,1,22.62,228a29,29,0,0,0-.3,4.73c6.59,1.75,10.44,2.33,14,8,3.29,5.31,4.32,13.57,12.43,9.5C53.49,260.89,57.73,257.77,60.49,251.47Z"/><path class="cls-28" d="M38,181.51c.15.23.65.26,1.25.07a26.28,26.28,0,0,0,6.47-3.23c1.59-1.14,3.9-2.28,4.87-4.06a5.83,5.83,0,0,1,3.68-2.86c1.89-.49,3.75,0,5.42-1.28s2.7-3.87.22-4.66a8.09,8.09,0,0,0-3.66.4A9,9,0,0,0,53.08,168c-1.4,1.23-3.28.62-4.87,1.48-1.83,1-1.54,2.65-2.06,4.38-.71,2.38-2.72,4.06-4.81,5.28a16.58,16.58,0,0,0-2.91,1.48C38,181,37.9,181.33,38,181.51Z"/><path class="cls-64" d="M322.64,174.17c.94-7.16,2-14.31,1.06-21.37-.56-4.3-3.08-11.52-5.89-14.4-6.64,11.57-5.79,26.06-6.9,38.89S309,204.54,315.76,216c7.8-5.65,6.21-17.95,5.82-26.13A89.59,89.59,0,0,1,322.64,174.17Z"/><path class="cls-65" d="M323.7,152.8c-.56-4.3-3.08-11.52-5.89-14.4a39.8,39.8,0,0,0-4.05,10.5c1.9,2.69,2.4,6.44,2.68,9.58a91.3,91.3,0,0,1-.52,18.55,120.69,120.69,0,0,1-3.28,17.8,56.13,56.13,0,0,1-1.87,6,40.28,40.28,0,0,0,5,15.23c7.8-5.65,6.21-17.95,5.82-26.13a89.59,89.59,0,0,1,1.06-15.73C323.58,167,324.62,159.86,323.7,152.8Z"/><path class="cls-66" d="M331.17,321.43c-.95-.27-4.2.3-5.41.32a8.52,8.52,0,0,1-3.43-1c-1.69,3.08-5.3,5.47-8.31,7.3s-8.94,2.42-9.68,5.94c-1.92,9.09,15.86,3.85,20,2.92,4.86-1.1,10-2.3,9.23-9.08C333.28,325.12,332.6,321.83,331.17,321.43Z"/><path class="cls-67" d="M331.17,321.43a6.65,6.65,0,0,0-1.93,0c.6,3,.94,5.8-.43,8.74a19,19,0,0,1-5.26,6.71l-.45.33,1.24-.29c4.86-1.1,10-2.3,9.23-9.08C333.28,325.12,332.6,321.83,331.17,321.43Z"/><path class="cls-68" d="M333.56,330.24c-2.32,2.23-6.87,3.28-9.48,4-3.24.94-17.32,5-19.73-.32,0,0,0,0,0,0-1.92,9.09,15.86,3.85,20,2.92,3.24-.74,7.84-2.12,9.53-3.71C334.52,332.59,334.18,330.42,333.56,330.24Z"/><path class="cls-64" d="M320.67,274.7c2.19,12.75,3.17,27.09,1.49,46.94-3.68,4,4.78,4.2,9.26,1.37,1.57-10.34,5.22-35.47,3.75-46.12A78.82,78.82,0,0,0,320.67,274.7Z"/><path class="cls-69" d="M318.39,336.59c-2.53.45-6.93,1-9.33.62s-4.4-1.1-4.78-2.86c-1.36,8.58,16,3.48,20.06,2.56,3.24-.74,7.84-2.12,9.53-3.71.55-.52.38-2.16-.06-2.74C332.93,332.91,323.86,335.63,318.39,336.59Z"/><path class="cls-70" d="M327.48,275.38a36.86,36.86,0,0,1,2.79,9,56.44,56.44,0,0,1,1,18.38,70.67,70.67,0,0,1-6.1,22.12,13.72,13.72,0,0,0,6.29-1.88c1.57-10.34,5.22-35.47,3.75-46.12C332.76,276.35,330.13,275.8,327.48,275.38Z"/><path class="cls-66" d="M359.15,322.83c-1-.12-4.1.93-5.3,1.14-1.41.24-2.19-1-3-1.15A37.67,37.67,0,0,1,343.2,332c-2.64,2.21-8.47,3.75-8.67,7.33-.53,9.28,16.25,1.42,20.2-.13,4.65-1.82,9.5-3.77,7.76-10.37C361.8,326.16,360.62,323,359.15,322.83Z"/><path class="cls-67" d="M359.15,322.83a5.71,5.71,0,0,0-1.62.22c2.43,5.51,1,11.1-2.23,15.89,4.46-1.77,8.87-3.82,7.19-10.15C361.8,326.16,360.62,323,359.15,322.83Z"/><path class="cls-68" d="M362.85,331.18c-2,2.55-6.3,4.28-8.77,5.43-3.06,1.41-16.37,7.49-19.55,2.66v0c-.53,9.28,16.25,1.42,20.2-.13,3.1-1.21,7.44-3.27,8.87-5.1C364.15,333.36,363.48,331.26,362.85,331.18Z"/><path class="cls-69" d="M350.51,338.89c-3.81,1.32-13.2,5.29-16,1,.22,8.34,16.34.8,20.2-.72,3.1-1.21,7.44-3.27,8.87-5.1a2.35,2.35,0,0,0-.05-2C360.4,334.85,353.53,337.84,350.51,338.89Z"/><path class="cls-64" d="M346.72,276.82c4,10.66,6.68,29.33,4,46.79-3.46,4.18,5,3.94,9.32.87,1-10.41,3.31-35.69,1.28-46.25A78,78,0,0,0,346.72,276.82Z"/><path class="cls-70" d="M354.11,277.19c4.76,9.34,5,20.38,4.18,30.7-.5,6.2-1,12.44-2.83,18.43l0,.12a13.31,13.31,0,0,0,4.62-2c1-10.41,3.31-35.69,1.28-46.25C359.05,277.85,356.59,277.46,354.11,277.19Z"/><path class="cls-71" d="M316.68,252c.86,9.28,2.24,18.06,2.24,30.88,4.55,2.5,13.63,3.27,20.66.31,1.05-6.11-3.41-25.7-4.07-31.06s.09-43.61.68-44.1c.23-.19,4.24,1.75,4.73,2,.18,3.19.19,33.79,1.88,44.4,1.87,11.71,3.92,21.29,3.92,28.44,0,0,2.53,2.66,9,2.49,4.88-.13,8.85-1,11.51-4.12,0-3.51-2.42-10-3-13.52-2.2-12.8-1.8-13.18-1.32-23.07.51-10.7,2-24.49,2.51-35.26.41-8.26.63-27.59-8.78-31.57-4.92-2.08-11.33,3.18-16.29,3.68-6.07.61-15.71-3.76-21,.26-4.84,3.65-5.56,26.91-5,37.43s1.46,21.83,2.41,32.26C316.64,251.63,316.66,251.81,316.68,252Z"/><path class="cls-72" d="M337.77,195c2.41-.39,9.67-2.36,11.25.69,1.35,2.6,0,4-.47,6.67s1.68,5.6,2.35,8c2,7.23.5,15.28.85,22.74,1.64-.25,3.29-.11,4.95-.45a.88.88,0,0,1,1.08.6c.78,3.79-.24,7.14-1.68,10.65-.52,1.28-5.35,10.85-3.07,11.62,5.18,1.75,5,6.52,3.14,10.74,8.42,2.65,5,11.8-.11,19.11,4.71-.16,8.55-1.1,11.14-4.1,0-3.51-2.42-10-3-13.52-2.2-12.8-1.8-13.18-1.32-23.07.51-10.7,2-24.49,2.51-35.26.41-8.26.63-27.59-8.78-31.57-4.92-2.08-11.33,3.18-16.29,3.68-6.07.61-15.71-3.76-21,.26-1.13.86-2,2.79-2.75,5.38C321.89,192.38,330.29,196.18,337.77,195Z"/><path class="cls-72" d="M336.19,208a10.55,10.55,0,0,1,2.62,1c1.17-3.81-5.88-3.3-9.31-3.31,2.23,7.25.12,15.78.45,23.22s-3.65,13.61-4.67,20.79a25,25,0,0,0,3.42-.44.88.88,0,0,1,1.08,1.07c-.56,3-.16,6.11-.55,9.14,2.38.78,4,2.38,3.4,5.22-1.06,4.73-3.12,8.26-2.84,13.33.12,2.24.56,4.68.53,7a26,26,0,0,0,9.26-1.89c1.05-6.11-3.41-25.7-4.07-31.06S335.6,208.51,336.19,208Z"/><path class="cls-73" d="M316.75,102.62c.53.87,1.26,1.59,1.78,2.43a16.33,16.33,0,0,0,2.37,2.37,18.52,18.52,0,0,1,3-1,23.24,23.24,0,0,1,3.65-.25,103.48,103.48,0,0,1,10.42-.06c2.61.22,5.27.32,7.84.57,1.13.11,4.85.13,4.86,1.91.5-.86,2.15-1.54,3-1.94s2-.67,3-1c.71-.24,1.3-.72,2-1a15,15,0,0,0,1.93-.63c.76-.38,1.54-.69,2.27-1.13,2.51-1.5,5.52-3.06,7.17-5.63s1.42-6.6,1-9.53c-.68-5-1-11.47-4.81-15.27A44.47,44.47,0,0,0,342,60.11C333.6,58.82,326.08,59,320,65.72a24.67,24.67,0,0,0-5.79,12.06c-.79,4-2.85,8-2.24,12.17a25.74,25.74,0,0,0,2.7,7.74,13.23,13.23,0,0,1,1.43,3.28A5.38,5.38,0,0,0,316.75,102.62Z"/><path class="cls-74" d="M362.56,179.27c-1.39-4-2.61-7.83-3.69-11.89-1.4-5.28-1.34-10.24-1-15.63a36.89,36.89,0,0,1,.7-5.46c.09-3.19.23-6.37.41-9.57,0-.24-.07-.48-.12-.72-1.88-2.4-2.51-5.65-2.39-9.08a39.88,39.88,0,0,1,.78-6.17c.28-1.39,1.49-4,.86-5.22s-3.69-2.65-4.92-3.36a23.18,23.18,0,0,0-5.4-2.42,38.81,38.81,0,0,0-6.66-1.64c-5.86-.57-10.76,1.77-15.62,4.69a10.64,10.64,0,0,0-3,2.41,15.91,15.91,0,0,0-2.22,3.55c-.9,1.93-2.05,3.8-2.86,5.8a5.82,5.82,0,0,0-.61,2.93,22.52,22.52,0,0,1,.66,2.6,6.43,6.43,0,0,1-.91,2.47c-1,2.19-2.58,4.15-2.29,6.71.47,4.11,2.91,6.58,4.17,10.12.94,2.66.63,13.4.42,15.66-.27,2.86-.09,5.8-.58,8.61a38.22,38.22,0,0,1-1.37,6.56c-.68,1.79-1.95,3.33-2.5,5.19a22.74,22.74,0,0,1,8.33,2.71c2.81,1.46,6.59,1.69,9.65,2a105.2,105.2,0,0,0,10.66.14c3.39,0,6.35-1.74,9.72-2a30.59,30.59,0,0,0,8.16-2c1-.39,2.87-1,3.38-2.09C365.05,182.57,363.06,180.69,362.56,179.27Z"/><path class="cls-75" d="M334.65,111.44c.84-.4,3-.69,3.43-1.65.33-.8-.22-1.31-1-1.62-4.18.51-7.91,2.4-11.63,4.63a10.64,10.64,0,0,0-3,2.41,15,15,0,0,0-1.78,2.68,2.18,2.18,0,0,0,1,1.09c2.39-2.49,5.52-3.81,8.53-5.29C331.76,113,333.21,112.14,334.65,111.44Z"/><path class="cls-75" d="M358.06,134.81h0c-.16-.29-.32-.59-.45-.89h0l-.06-.14h0c-.14-.34-.28-.69-.39-1.05,0,0,0,0,0,0v0c-.12-.39-.22-.78-.31-1.18-1.88,27.77-4.78,23.59-5.36,27.7-.32,2.3,2.46,3.76,2.46,4.56,0,2.09-3.4,1.94-3.1,4,.36,2.5,1.65,3.68.32,6.06a7.48,7.48,0,0,1-4.18,3.49c-1.54.61-4.16,1.7-5.12,3,2.34.65,6.25-.41,8.58-1.14,1-.3,2.05-1.19,3-.74,1.73.85-.79,4.67-1.6,5.52a7.89,7.89,0,0,1-4.55,2.14c-1.54.31-2.87.83-4.43,1.06-1,.15-3.1.3-3.74,1.05,2.11.91,5.66-.1,7.89-.21s4.38.12,6.59.1a31.34,31.34,0,0,0,7.37-1.91c1-.39,2.87-1,3.38-2.09.73-1.54-1.26-3.42-1.76-4.84-.8-2.3-1.54-4.56-2.24-6.83-.56-1.66-1-3.37-1.45-5.06-.1-.39-.18-.78-.27-1.16s-.12-.49-.17-.73h0l0-.09a39.47,39.47,0,0,1-.88-10.17c.06-1.17.25-2.31.32-3.47a36.89,36.89,0,0,1,.7-5.46c.09-3.19.23-6.37.41-9.57,0-.24-.07-.48-.12-.72a10.07,10.07,0,0,1-.76-1.16Z"/><path class="cls-76" d="M353.74,172.38c1.69-.22,2.79-.33,4,1.47.9,1.3-.19,4.5-.59,5.78A13.57,13.57,0,0,1,351.1,187a43.63,43.63,0,0,0,13.37-3.39c.15-1.43-1.47-3.05-1.91-4.31-.8-2.3-1.54-4.56-2.24-6.83-.56-1.66-1-3.37-1.45-5.06-.1-.39-.18-.78-.27-1.16s-.12-.49-.17-.73h0l0-.09a39.47,39.47,0,0,1-.88-10.17c.06-1.17.25-2.31.32-3.47a36.89,36.89,0,0,1,.7-5.46c.09-3.19.23-6.37.41-9.57,0-.24-.07-.48-.12-.72a10.07,10.07,0,0,1-.76-1.16l0,0h0c-.16-.29-.32-.59-.45-.89l-.06-.14h0c-.14-.34-.28-.69-.39-1.05,0,0,0,0,0,0v0c-.12-.39-.22-.78-.31-1.18-.24,3.56-.5,6.59-.77,9.18,1.69,3.27,0,10.13-.3,12.67-.4,3.52.34,6,.91,9.39a5.79,5.79,0,0,1-.2,2.62C356.06,168,354.76,170,353.74,172.38Z"/><path class="cls-75" d="M339.24,190c-2.39-.68-4.73-.92-7.14-1.38a17.6,17.6,0,0,1-3.58-1.16c-1-.42-3.19-.56-3.33-1.89,1.79,0,3.78.79,5.66.86,3,.11,6,0,9.07-.14,2.47-.13,6.73,0,8.22-2.53-.34-.11-.53,0-.89,0-1.59-.07-3.38.65-5,.83-2,.24-4.19.79-6.16.44-1.82-.32-3.7-.7-5.53-1.06-1.57-.31-4.09-.29-5.19-1.48,1.17-.07,2.59.14,3.33-.94-.79,1.16-6.86-3.6-7.39-4.31-2.47-3.3-.05-5.72,3.37-6.42-3.82-.17-5.36-3.45-4.27-4.12,1.87-1.15-1.58-1.67,0-11.23.44-2.63.53-5.32-.87-7.7-1.1-1.85-2.51-3.47-3.66-5.28a14.69,14.69,0,0,1-1.62-3.18,13.23,13.23,0,0,0,.23,1.31c.05.19.11.36.16.54s.14.5.22.74.13.35.2.52.19.47.29.7l.2.45c.14.28.28.57.43.85l.09.19a35.07,35.07,0,0,1,2.34,4.76,26,26,0,0,1,.63,6.7c0,1.89,0,3.84,0,5.47v.11c0,.27,0,.54,0,.79s0,.22,0,.32,0,.26,0,.39,0,.39,0,.57a1.48,1.48,0,0,1,0,.21c0,.2,0,.38,0,.55v.08c0,.18,0,.34,0,.47a.13.13,0,0,1,0,.06c0,.32,0,.63,0,.93,0,0,0,.07,0,.11-.08,1.39-.11,2.79-.18,4.18,0,.43-.05.86-.08,1.29,0,.13,0,.26,0,.39q-.08.83-.21,1.65a38.22,38.22,0,0,1-1.37,6.56c-.68,1.79-1.95,3.33-2.5,5.19a22.74,22.74,0,0,1,8.33,2.71c2.81,1.46,6.59,1.69,9.65,2a62.54,62.54,0,0,0,7.62.17C339.75,190.19,339.49,190.1,339.24,190Z"/><path class="cls-75" d="M356.64,124.56c.14-1.28.34-2.55.59-3.81s1.49-4,.86-5.22-3.69-2.65-4.92-3.36a23.18,23.18,0,0,0-5.4-2.42c-1.32-.38-2.68-.81-4.06-1.15-2.95.93-3.82,3.91-.15,5a20.82,20.82,0,0,1,3.54,1c4.72,2.25,7.5,6.41,9.38,11.12C356.52,125.38,356.57,125,356.64,124.56Z"/><path class="cls-75" d="M323.17,114.5a7.67,7.67,0,0,0-.66.71,15.91,15.91,0,0,0-2.22,3.55c-.9,1.93-2.05,3.8-2.86,5.8a5.82,5.82,0,0,0-.61,2.93,22.52,22.52,0,0,1,.66,2.6,2.83,2.83,0,0,1-.27,1.13c.83-.34,2.35-3.67,2.52-4.18.92-2.84,1.09-5.84,2.25-8.62a23.8,23.8,0,0,1,2.24-4.41Z"/><path class="cls-77" d="M322.51,115.21c-.31.37-.59.76-.87,1.16s-.29.58-.41.88c-1.14,2.66-1.38,5.31-2,8.06a23.07,23.07,0,0,1-.77,2.7c-.21.61-.73,1.32-1,2,0,0,0,.07,0,.11a3.82,3.82,0,0,1-.49,1.63,21.88,21.88,0,0,0,2.74-4.68c.89-2.77,1.46-5.67,2.11-8.48.45-1.94,1.78-3.41,2.66-5.13A9.4,9.4,0,0,0,322.51,115.21Z"/><path class="cls-75" d="M349.3,142.75c-2.4,1.79-3.75,2.18-8.34,3.33,2.35,1.4,7.59-.79,9.46-2.4,2.14-1.86,3.39-5.48,3.66-8.25C352.79,137.66,351.38,141.2,349.3,142.75Z"/><path class="cls-78" d="M332.75,101.4c-.06-.19-.11-.38-.18-.57v.55Z"/><path class="cls-65" d="M330.47,111a2.32,2.32,0,0,0,0,.24c.08.8.18,1.6.25,2.39a10.46,10.46,0,0,0,1.16,4.33c.7,1.07,2.29.72,3.37.54,4.84-.84,8.82-3.81,11.85-7.52,0,0-1.67-3.31-1.74-3.74-.16-1,.8-3.44.18-4.23-.49-.61-1.9.51-2.36.74a13.7,13.7,0,0,1-4.2,1,12.49,12.49,0,0,1-3.9-.6,14.74,14.74,0,0,1-2.27-.38,6.61,6.61,0,0,1-1.63-1.06,15.53,15.53,0,0,0,.41,2.36,15.56,15.56,0,0,1,.21,3.19,2.58,2.58,0,0,1-.56,1.49C330.82,110.21,330.47,110.35,330.47,111Z"/><path class="cls-64" d="M317.5,91.82a17.17,17.17,0,0,0,3.47,9.33,41,41,0,0,0,5,5.16c5.15,4.38,13.27,3.19,19.09.67A18.88,18.88,0,0,0,354,98.59c3.11-5.44,4.43-12.12,5.54-17.36,1.06-5.07-1.11-10.44-1.06-13.83-4.23-1.67-8.32,2-12.28-1.23-3.33-2.76-5.61-6.7-10.24-7.53-2.44-.44-4.64.31-6.86,1.18-10,3.91-14.67,11-10.77,21.55a7.43,7.43,0,0,1,.23,5.29A11.54,11.54,0,0,0,317.5,91.82Z"/><path class="cls-70" d="M358.25,67.5c-1.06-2.6-2.65-1-5.63-1.21-3.67-.3-7.09-3.74-10.63-5a30.15,30.15,0,0,0-12.38-1.73c-11.6,1-14.95,11.78-11.26,21.79a7.43,7.43,0,0,1,.23,5.29,14.67,14.67,0,0,0-1,3.45l.15-.43c.53-1.26,1.37-2.48,2-3.73.93-1.82-.86-5.34,0-7.7a18.07,18.07,0,0,1,5-6.76,22.54,22.54,0,0,1,3.93-3.15c2.22-1.11,2.63-.36,4.66.92,6.76,4.26,15.93,5.92,18.79,14.48,1.57,4.68,3.1,11.68,1,16.37.33-.5.65-1,.94-1.52,3.11-5.44,4.43-12.12,5.54-17.36.82-3.9,0-9-1-12.86C358.44,68,358.35,67.75,358.25,67.5Z"/><path class="cls-79" d="M321.77,79l.06,0c.46-.49,2.11-.55,3-.58,1.46-.06,1.34-.23,2-1a26.91,26.91,0,0,0-3.36,0C322.76,77.58,321.08,78.66,321.77,79Z"/><path class="cls-79" d="M342.4,78.18c.65.75.51.92,2.06,1,1,0,2.7.13,3.16.63l.07,0c.75-.28-1-1.39-1.71-1.53A28.56,28.56,0,0,0,342.4,78.18Z"/><path class="cls-80" d="M343.78,87.14c3.88,1.89,5.74-5.57,1.58-7C341.82,78.84,341.32,85.91,343.78,87.14Z"/><path class="cls-81" d="M344.47,81.67c-1.61,1-1.17,3.47-.42,4.3a3.46,3.46,0,0,0,1.69.1c.4-.07,1-.27,1.15-.77C348,83.16,346.05,80.68,344.47,81.67Z"/><path class="cls-82" d="M344.44,83.8c.58.26.77-.36.25-.68C344.22,83,344,83.58,344.44,83.8Z"/><path class="cls-83" d="M347.55,85.19c1.15-1.43,0-3.94-1.3-4.93-1.52-1.16-4-.47-3.32,1.8,1.52-3.48,6.43.32,4.39,2.89Z"/><path class="cls-83" d="M343.41,87c.55.93,1.6.58,2.39.3,1-.35,1.43-.7,1.53-1.83l-.06-.14C346.77,87.08,344.88,87.06,343.41,87Z"/><path class="cls-80" d="M323.1,79.6c-4.19,1.36-2.42,9.44,1.38,7.09l.43.1C326.79,85.52,326.68,78.45,323.1,79.6Z"/><path class="cls-81" d="M321.72,85.13c.13.51.72.73,1.12.8a3.29,3.29,0,0,0,1.69,0c.78-.81,1.3-3.27-.29-4.31S320.66,83,321.72,85.13Z"/><path class="cls-82" d="M322.62,83.68c.47-.2.24-.76-.22-.67C321.86,83.3,322,83.93,322.62,83.68Z"/><path class="cls-83" d="M325.52,81.68c.73-2.24-1.71-3-3.26-1.89-1.33.95-2.55,3.43-1.44,4.89l.23-.23C319.08,81.82,324.11,78.17,325.52,81.68Z"/><path class="cls-83" d="M321,85.14c.07,1.13.46,1.49,1.48,1.89.77.29,1.82.66,2.4-.25-1.48,0-3.37-.06-3.82-1.78Z"/><path class="cls-70" d="M357,87a4.25,4.25,0,0,0-1,1.39c-.38.81-.62,1.71-1,2.47-.54,1.22-1.82,4.25.28,4.83,1.82.51,3.41-2.29,4-3.57s3.11-4.45,1.73-5.8C360.13,85.4,357.9,86.24,357,87Z"/><path class="cls-83" d="M325.45,98.34c.1.32.33.32.37,0a1.44,1.44,0,0,1,.18-.71c.2-.22.6-.2.75-.49C326.11,96.65,325.27,97.76,325.45,98.34Z"/><path class="cls-83" d="M338.1,97.33c.26.21.61,0,.88.14s.35.38.46.57.4.21.36-.12C339.72,97.32,338.49,96.66,338.1,97.33Z"/><path class="cls-84" d="M328.25,90.83c.36,1.83,2,2.17,3.72,1.85a5.8,5.8,0,0,0,2-.57,2.83,2.83,0,0,0,.92-2.09c0-1.26-2.84-1.59-3.84-1.24l.22-.1C329.83,88.78,327.75,88.35,328.25,90.83Z"/><path class="cls-85" d="M328.59,89.19a13.65,13.65,0,0,1,5.36-.26c-1.54-.52-4.11-1-5.48.26Z"/><path class="cls-83" d="M331.65,93.33c1.78-.07,4.19-1.61,3.25-3.46.48,3.49-7.74,3-6.66-.1C327.28,92.09,329.87,93.41,331.65,93.33Z"/><path class="cls-83" d="M326,97.67a4.69,4.69,0,0,0,2.76,2.22,9.19,9.19,0,0,0,3.54.41,13.65,13.65,0,0,0,3.57-.67A14.37,14.37,0,0,0,339.2,98a9.7,9.7,0,0,1-6.87,3.26,8.21,8.21,0,0,1-3.87-.68A4.19,4.19,0,0,1,326,97.67Z"/><path class="cls-86" d="M345.64,74c4.17,2.7,6.81,6.26,7.77,12.66,1.11,7.44-.78,15.1-2.77,22.22.37-1.2,10.54-3,12.2-3.76,6.52-2.9,9.39-7.37,10.29-14.27.36-2.77-.2-5.51-.52-8.12-1-8.12-5.81-19.84-12.33-25.1S341.42,50,333.83,53.8c-1.93,1-2.91,1.81-5,2.11-11.4,1.61-16.44,11.17-18,21.87a47.27,47.27,0,0,0,0,9.44c.11,2.48-.27,4.78.47,7.25,1.58,5.26,5.79,9.29,9.67,13-7.53-7.11-6.09-21.2-2.45-29.71a22,22,0,0,1,5.5-7c.48-.45,6.36-6.26,5.75-6.55,1.24.6,2.54,2.41,3.86,3.36a29.34,29.34,0,0,0,5.51,3.15A42.3,42.3,0,0,1,345.64,74Z"/><path class="cls-64" d="M357.55,195.23a36.2,36.2,0,0,1-1.9,10.79c-1.13,3.1-3.26,6.61-2.64,10,0,.2,2.63-3.84,2.78-4,1.79-1.48,2.31.49,1.89,2.47-.37,1.72-6.19,8.74-.75,7.92,3.66-.55,7.5-4.5,8.59-7.95s-.49-8.22-.11-12c.75-7.51,2.59-14.85,3.74-22.3s1.15-14.42,1.15-21.8c0-3.7.32-7.7-.6-11.31-1.26-4.95-6.48-4.62-10.25-2.23-2.65,1.69-1.06,6.18-.74,9.44a66.06,66.06,0,0,1,.24,8.93Q358.34,179.25,357.55,195.23Z"/><path class="cls-65" d="M357.14,204.2c4-8.93,4.51-17.53,4.93-27.2.29-6.69-1.12-13.87.36-20.45,1.11-5,3.78-5.35,7.79-6.22a20.7,20.7,0,0,0-.52-3.26c-1.26-4.95-6.48-4.62-10.25-2.23-2.65,1.69-1.06,6.18-.74,9.44a66.06,66.06,0,0,1,.24,8.93q-.61,16-1.4,32a36.2,36.2,0,0,1-1.9,10.79c-.92,2.53-2.51,5.33-2.72,8.14C353.88,210.62,355.87,207.07,357.14,204.2Z"/><path class="cls-75" d="M357.86,115.3a16.48,16.48,0,0,0-2,3.84,26.45,26.45,0,0,0-1.56,4.91,20,20,0,0,0,.35,10.18c1.8,5.14,2,9.71,2.25,15.18,2.83,1.56,10.29,1.56,13.48-1.29-.69-5.47-1.26-10.73-2.79-16-1.62-5.56-4.93-13.33-9.62-17Z"/><path class="cls-77" d="M355.23,127.06a22.94,22.94,0,0,1,2-6.57c.15-.34,1.2-2.49,2.11-4.16a14.33,14.33,0,0,0-1.32-1.18l-.12.15-.31.47L356,118.88l-.15.35a25.19,25.19,0,0,0-1.49,4.65c0,.12-.05.23-.07.35l-.09.55a22,22,0,0,0,0,7.64l0,.09c.05.24.1.48.16.72s.19.67.3,1l.85,2.42A34,34,0,0,1,355.23,127.06Z"/><path class="cls-87" d="M315.8,76c3.4-4.84,12.15-8.52,11-15.56-.23.18-.42.39-.64.56-1.19-.8-1-2.3-.23-3.41-5.41.73-10.69,7.26-12.62,11.9,1-2.3,3.64-4.17,5.87-4.87-.74,2.37-2.78,5.08-4,7.4a15,15,0,0,1,3.39-3.3C318.55,71,316.54,73.73,315.8,76Z"/><path class="cls-87" d="M339.06,68.55c6.36,4.59,13.38,7.85,16.65,15.68-1.47-3.53-2-7.68-3.34-11.31a32.37,32.37,0,0,1,3.81,4.26c.32-3.24-2.38-6.92-2.92-10.08a23.82,23.82,0,0,1,8.4,5.69c-.2-3.61-3.73-6.76-4-10.08,1,.42,2.18,1.44,3.19,1.85,0-5-5.35-8.78-9.81-9.84-3.63-.86-11.65-3.45-14.5,0,1.55,0,3.65.27,4.05,1.92a7.89,7.89,0,0,0-3.21.39,5.44,5.44,0,0,1,1.85,2.34c-2.5-.58-4.75-1-7.34-.15,1.46,1.39,5.53,2.59,5.68,4.83,0,.15-5.9-1.57-6.53-1.56,2.17,0,4.51,3.37,6.1,4.64C337.77,67.59,338.41,68.08,339.06,68.55Z"/><path class="cls-88" d="M319,91.8c1,1.35,3,1.21,4.53.72s4.59-2.54,2.6-4.21c-.88-.73-2.89.09-3.91.07-1.78,0-4.63-.29-3.55,2.78A2.41,2.41,0,0,0,319,91.8Z"/><path class="cls-88" d="M341.9,93.32c2.06.86,7.05-.25,5.72-3.51-.56-1.39-1-.79-2.33-.64-1.85.2-5.42-1.83-7-.72C336.28,89.92,340.71,92.82,341.9,93.32Z"/><path class="cls-89" d="M438.47,326.33c-2.79.79-4.31,4.05-6.54,5.66-3.29,2.38-7.52,3.71-11.45,4.62a29.16,29.16,0,0,1-7,.94,11.89,11.89,0,0,1-3.35-.47c-.71-.23-1.89-1.16-2.63-1.09-1.84.19-1.24,2.09-.21,3.17a3.28,3.28,0,0,0,.58.49c4.57,2.91,10.42.66,15-.91,2.49-.86,4.71-2.33,7.1-3.4.85-.38,4.25-2.67,4.33-.77,2.47-.4,6.23-.93,6.88-3.76C441.63,329.08,440.92,325.64,438.47,326.33Z"/><path class="cls-90" d="M423.51,323.67c-4.14,1.79-22.26,10-15.32,14.25,6.53,4,24.55-4.65,31.61-9.18,3.18-2,.56-13.95-1-16.47l-11.85-.18C428.63,315.77,430.09,320.82,423.51,323.67Z"/><path class="cls-91" d="M423.51,323.67c-4.14,1.79-22.26,10-15.32,14.25a6.21,6.21,0,0,0,1,.47c0-3.6,4.32-6.6,7.69-8.12,4.29-1.92,8.76-3.85,12.06-7.51,2.78-3.09,4.28-6.76,2.35-10.6l-4.34-.07C428.63,315.77,430.09,320.82,423.51,323.67Z"/><path class="cls-92" d="M437.88,320.33c.07,6.26-7.44,9.43-12.88,12.3-5,2.62-13.16,4.81-17.76,1.36l-.05,0c-.92,1.47-.82,2.85,1,4,6.53,4,24.55-4.65,31.61-9.18,3.18-2,.56-13.95-1-16.47l-1.47,0a1.79,1.79,0,0,1,.51,1.27c.06,2.29.58,4.54.07,6.8Z"/><path class="cls-89" d="M483.44,324.19c-2.82.73-6.6,4.78-8.51,6.88-2.84,3.12-7.55,4.6-11.65,5.17-1.61.22-6.12.15-6.46,2.38-.29,1.88,3.63,3,4.92,3.42a17.07,17.07,0,0,0,6.87,1,15.82,15.82,0,0,0,6.32-1.78c3.09-1.59,4.95-7.89,8.47-7.9.87,1.78,5.07-2.77,5.34-3.95A4.48,4.48,0,0,0,483.44,324.19Z"/><path class="cls-90" d="M458.45,338.67c6.3,4.59,14.85,3.67,19.16-2,2.76-3.64,8.24-6.93,9.7-9.87,2.47-5-3.52-8.06-4.54-13.83l-10.42-.73c1,3,.48,10-3.35,15.73C466.47,331.7,453.74,335.23,458.45,338.67Z"/><path class="cls-91" d="M458.45,338.67l.38.25c1.81-2.7,5.57-4.7,8.39-6.17,7.34-3.83,9.92-12.45,8.9-20.26l-3.77-.26c1,3,.48,10-3.35,15.73C466.47,331.7,453.74,335.23,458.45,338.67Z"/><path class="cls-92" d="M478,331c-5.11,4.21-13,9-18.78,3.61-1.8,1.36-2.59,2.7-.77,4,6.3,4.59,14.85,3.67,19.16-2,2.76-3.64,8.24-6.93,9.7-9.87,2.47-5-3.52-8.06-4.54-13.83l-2-.14c.26,3.37,2.14,6.45,2.29,9.88C483.17,326.29,480.58,328.89,478,331Z"/><path class="cls-93" d="M479.72,107.76a14.51,14.51,0,0,0,.45,1.46c.33.94.73,2.22,1.92,2.12,1.34-.12,2.41-1.7,2.93-2.82a2.45,2.45,0,0,0-1.07-3.4c-.88-.5-2.82-1.49-3.76-.71-.71.58-.31,1.51-.39,2.28A2.93,2.93,0,0,0,479.72,107.76Z"/><path class="cls-94" d="M434,116.32c-3,1.28-6,2.73-9.05,4.06-1.14.5-2.29,1-3.44,1.44-9,3.54-18.26,4.45-27.54.84-3-1.17-8.73-5.65-13.44-6.7-2.3-.52-4.61,2.58-5.14,4.83-1.1,4.68-.22,8.66,6.41,12.63,7.05,4.23,18.13,8,29.14,7.18,14.1-1.07,25.7-6.43,32.31-9.89,7.12-3.73,11.19-7.71,8.66-15.61C448.77,105.46,439.5,114,434,116.32Z"/><path class="cls-95" d="M431,130.21c-.77-.41-.24-1.57-1.41-1.62s-1,1.12-1.41,1.85-1,1.53-1.88,1.08c-.73-.37-.69-1.71-1.2-2.24-2.14-2.21-3.43,1.86-5.5,1.68-1.26-.12-1.6-1.29-2.76-1.71-2.34-.83-4.27.35-5.57,2.15-.9,1.24-1,2.61-2.61,2.51s-2.76-1.21-4.27-.56c-1.09.46-1,1.08-2.4.73a15.29,15.29,0,0,1-3.79-1.41c-3-1.57-6.39-1.78-9.45-3.1-2-.87-2.11-1.49-2.76-3.46a20.65,20.65,0,0,0-4.32-7.43c-2.72-2.88-5.4-1.61-6.28,2.11-1.1,4.68-.22,8.66,6.41,12.63,7.05,4.23,18.13,8,29.14,7.18,14.1-1.07,25.7-6.43,32.31-9.89,7.12-3.73,11.19-7.71,8.66-15.61-1.95-6.1-6.38-4.94-10.77-2.66-1.23,2.2-1,5-2.26,7.18-1.34,2.43-4.49,1.7-5.56,4.45a7.32,7.32,0,0,0-.56,2.52c0,.84.7,1.69.39,2.53S431.65,130.56,431,130.21Z"/><path class="cls-96" d="M402.29,138.2c-1.78-.76-3.49-1.68-5.24-2.5-3.24-1.53-6.69-3-10.33-3.12a4,4,0,0,1-3.36-1.43c-.53-.69-.63-1.52-1.59-1.47s-2.17,1.25-3.12,1.46a15.49,15.49,0,0,0,3.1,2.28c7.05,4.23,18.13,8,29.14,7.18,14.1-1.07,25.7-6.43,32.31-9.89,7.12-3.73,11.19-7.71,8.66-15.61-1.1-3.45-3.61-5.16-7.17-4.16-4.4,1.23-3,6.42-3.95,9.79-.39,1.46-2,2.12-2.23,3.52-.36,2.06.93,4.21-.33,6.25s-4.6,3.26-6.68,4.05c-3,1.14-5.87,0-8.83.89-1.09.31-7.44,2.81-5.9.15.23-.41,4.11-3.55,2.42-3.68-1.87-.16-2.49,3.64-4.74,3.5-.18-.95,1.33-2.43.74-3.24-.79-1.09-1.87.31-2.21.89-.78,1.36-.62,4-2,4.93s-3.31-1-4.44-1.64c-.33-.18-3.31-1.67-3.17-.53.1.83,1.44.78,1.68,1.61C405.56,139.15,403,138.5,402.29,138.2Z"/><path class="cls-97" d="M377.64,117a8,8,0,0,0-2.3,3.81c-.92,3.94-.4,7.38,3.72,10.74,3.14-.47,5.89-2,4.94-5.94A14.66,14.66,0,0,0,377.64,117Z"/><path class="cls-64" d="M374.94,120.23c-1.26.69-.86,2.17-1.78,3s-3.09.45-4.26.33-3.26-.61-4.11.25c-1.22,1.23.15,2.8,1.29,3.45a8.64,8.64,0,0,0,3.47.84l.8.1c2.79.45,5.59,2.12,8.48,1.63,1.57-.26,2.08-1.21,2.25-2.68.24-2,.41-4.72-1.38-6.19C378.64,120.1,376.19,119.54,374.94,120.23Z"/><path class="cls-98" d="M407.7,185.06c2.48-6.83,4.83-13.28,4.84-20.15,0-9.91-10.6-14.9-19.12-18.9a59.28,59.28,0,0,1-8.46-4.49c-11.85-8.52-14.67-14.34-16.35-17.82-1.05-2.17-2-4.23-4.68-5a3.79,3.79,0,0,0-3.52.71c-2.82,2.3-2.56,8.23-1.7,21.45.61,9.34,1.31,19.94.06,27.58-.34,2.11-.73,4.13-1.11,6.11-2,10.41-3.83,20.23.44,37.9l5.12-1.24c-4-16.56-2.32-25.42-.38-35.67.39-2,.78-4.09,1.13-6.25,1.35-8.23.63-19.15,0-28.78-.34-5.19-.78-11.9-.46-15.3.11.21.22.46.36.74,1.77,3.67,5.08,10.5,18,19.8a62.48,62.48,0,0,0,9.29,5c7.54,3.54,16.09,7.56,16.09,14.13,0,5.94-2.1,11.69-4.52,18.35-1.32,3.62-2.68,7.36-3.81,11.45a66,66,0,0,0-1.11,30.72c.35,1.62.71,3.16,1.06,4.67,1.7,7.2,3,12.89,1.1,20.62-.39,1.57-.82,3.17-1.25,4.78-2.3,8.64-4.69,17.58-3.34,26.91,1.06,7.4,5,14.39,8.79,21.14,1.18,2.09,2.33,4.15,3.37,6.16l4.69-2.4c-1.07-2.07-2.26-4.19-3.47-6.34-3.56-6.33-7.24-12.88-8.17-19.31-1.19-8.26,1.05-16.67,3.23-24.8.43-1.64.86-3.26,1.26-4.86,2.25-9,.63-15.84-1.08-23.11-.34-1.47-.7-3-1-4.55a60.54,60.54,0,0,1,1-28.23C405.09,192.23,406.42,188.59,407.7,185.06Z"/><path class="cls-99" d="M364,169.34c1.35-8.23.63-19.15,0-28.78-.33-5.05-.75-11.52-.48-15-.35-1-.71-1.91-1-2.87-.78-1.21-1.76-2.18-3-2.15a7.79,7.79,0,0,0-1,2.72c.48,7.79,3.29,15,4.51,22.61a62.65,62.65,0,0,1,.18,17.3,59.14,59.14,0,0,1-4,16.68c-1.14,2.65-2.37,5.25-3.5,7.88a68.56,68.56,0,0,0-.07,9,9.94,9.94,0,0,1,5.81,5.3c-1.53-11-.16-18.29,1.39-26.45C363.23,173.56,363.62,171.5,364,169.34Z"/><path class="cls-99" d="M411,175a38.93,38.93,0,0,0,1.5-10.1c0-6.12-4.05-10.37-9.15-13.66-1.9.92-3.83,1.74-5.62,2.79,5.2,2.84,9.5,6.21,9.5,10.87a28.15,28.15,0,0,1-.23,3.3A8.86,8.86,0,0,1,411,175Z"/><path class="cls-100" d="M466.78,313.94c.73,4.05,6.19,4,10.07,3.56,3.13-.32,9.83-.25,11.87-3.22,2.32-3.36-1.46-12-2.2-15.75-2.36-12.16-6.58-23.72-10.82-35.32-3.37-9.2-2.78-17.66-1.83-27.19.77-7.56,2-14.83,3.06-22.43,1.74-12.37,4.52-24.84-.62-36.84-1.7-4-5.45-3.79-9.55-4.57-7.44-1.43-15.23-3.41-22.82-3.83-2.91-.16-8.09-1.62-10.38.43-1.88,1.68-1.93,6-2.69,8.17-2.31,6.51-6.5,12.44-9,18.84C416.6,209,411.38,221,409.11,234.91c-1,6.44-2.58,14.47-.56,21s3.82,12.82,5.77,19.52,5.13,13.25,6.91,20.1c1.66,6.38,1.27,13,2.38,19.45.54,3.11,21.35,1.74,21.58.63,2.47-12-4.12-23.42-8-34.28-3.62-10.1-8.52-22-8.7-32.89-.1-5.39,2.46-9.8,3.91-14.88a145.54,145.54,0,0,1,6.48-17c.62-1.44,2-7,3.44-7.59,1.6-.65,6.06,2.36,7.63,3,.93,16-.1,32.26,3.88,47.94a94.27,94.27,0,0,0,3.81,11.45c1.94,4.92,3.38,10.13,5,15.19,1.15,3.65,2.11,7.53,3,11.23C467,303.16,465.83,308.63,466.78,313.94Z"/><path class="cls-101" d="M466.46,310.93c5.05-1.54,10-10.18,10-13.38-4.89,6.68-8.91,6.39-8.35,5.52,5.48-8.47,6.32-13.72,6.32-18.18-2.11,2.43-4.34,13-8.68,13.19C466.72,302.38,466.21,306.69,466.46,310.93Z"/><path class="cls-101" d="M438.86,216.54c.62-1.44,2-7,3.44-7.59,1.6-.65,6.06,2.36,7.63,3,0,.33,0,.66.05,1a23.7,23.7,0,0,1,2.08-3.48c-2.73-2-6.34-4.11-9.21-2.09-2.53,1.77-4.16,4.43-5.63,7.08-3.55,6.41-7,13.13-9.9,19.85-.74,1.69-1.06,5-3.77,4.54a7,7,0,0,1-3.75-2,12.81,12.81,0,0,0,2.92,5.12,1.25,1.25,0,0,1,0,1.75c-2,2.07-4.53,3.08-7,4.3a38.36,38.36,0,0,0,6.47.71,1.25,1.25,0,0,1,1.07,1.86c-1.76,2.53-4.53,4.68-5.57,7.67,2.42-.51,4.67-1.33,7.22-1.39a1.24,1.24,0,0,1,1.24,1.23c-1.07,8.88,3.18,18.52,5.71,26.8,1.24,4,4.93,8.23,5.14,12.54.18,3.77-1.72,6.2,1.33,9.29a1.24,1.24,0,0,1,0,1.75c-3,2.5-5.05,5.79-8,8.37,6.28.3,14.68-.51,14.83-1.21,2.47-12-4.12-23.42-8-34.28-3.62-10.1-8.52-22-8.7-32.89-.1-5.39,2.46-9.8,3.91-14.88A145.54,145.54,0,0,1,438.86,216.54Z"/><path class="cls-102" d="M477.3,312.69a28.74,28.74,0,0,1-7.46,4.45,17.91,17.91,0,0,0,7,.36c3.13-.32,9.83-.25,11.87-3.22,2.32-3.36-1.46-12-2.2-15.75-2.36-12.16-6.58-23.72-10.82-35.32-3.37-9.2-2.78-17.66-1.83-27.19.77-7.56,2-14.83,3.06-22.43.7-5,1.56-9.94,2-14.9-4.34,1.4-8.67,2.81-13.13,3.81,2.33.29,4.71,1,5.55,3.15,1.53,3.91-1,8.78-.61,12.81.64,7.29-.85,15.66-1.55,23-.6,6.17-3,11.92-4.05,18,.71-.5,1.43-1,2.18-1.43a1.26,1.26,0,0,1,1.87,1.07,17.59,17.59,0,0,1-1.29,8.26c1.14-.77,2.28-1.54,3.49-2.21a1.26,1.26,0,0,1,1.82.74c1.61,4.13-.94,6.63-2.7,10,10.07,1,7.54,13.65,10.13,21.31C482.64,303.05,482.46,308.51,477.3,312.69Z"/><path class="cls-103" d="M421.23,295.52a67.2,67.2,0,0,1,1.57,12c3.83-8.43,2.7-18.42-.29-27.13-.77,3.86-1.42,7.75-2.37,11.58C420.52,293.13,420.92,294.32,421.23,295.52Z"/><path class="cls-104" d="M494.51,152.15c3.23-8.18,6.82-16.39,4.77-25.34-1.5-6.61-9.31-13.43-15.37-16.18-4.25-1.93-8.28-1.22-12.66-1.78-3.2-.41-5.75-2.23-9.17-1.85-5,.56-11.26.75-15.77,3.11-5.31,2.78-3.67,7.09-3.74,12.22a97.37,97.37,0,0,1-1.7,16.68,106.31,106.31,0,0,1-10.73,30.51,118.43,118.43,0,0,0-7,14.37c-1.53,4.13-4.25,8.64-4.88,13-.2,1.46,18.49,7.66,20.37,8.67-.63-.34,9.75-20.5,10-22.6.18,7.84,2.43,15.64,2.66,23.35a23.53,23.53,0,0,0,5.49-.32c9.18-1.17,26.75-4.38,28.81-4.46-.77,0-2.95-11-3-12.26a60.46,60.46,0,0,1,.4-11.53C484.3,168.94,491.15,160.63,494.51,152.15Z"/><path class="cls-94" d="M494.51,152.15c3.23-8.18,6.82-16.39,4.77-25.34-1.5-6.61-9.31-13.43-15.37-16.18-4.25-1.93-8.28-1.22-12.66-1.78-3.2-.41-5.75-2.23-9.17-1.85-5,.56-11.26.75-15.77,3.11-4.12,2.16-4.05,5.24-3.85,8.91a9.21,9.21,0,0,1,4.12-2c3.4-.6,5.07.72,7.63,2.79,4.54,3.66,11.19-.34,16.29,1.38,4.9,1.64,6.46,6.72,5,11.49-1.5,4.94-4.52,6.33-8.85,7.48-2.09.55-3.57,2.26-5.79,2.71-2.48.5-4.08-.89-6.45-1-3.43-.19-3.92,2.76-6.4,4.1-1,.55-8.84.54-8.53-.71a106.12,106.12,0,0,1-9.35,24.3l-1.09,2c16.08,3.46,9,19.91,2.59,31.37,3.4,1.26,6.3,2.31,7,2.68-.55-.3,7.5-16.1,9.54-21.19,2.57-9.39,4.33-13.66,9.73-15.34,2.4-.76,9.33-3.68,12.85-2.29,4,.21,3.95,5.32,3.72,8.92-.58,9.12-1.77,18.67.74,27.47,5.2-.86,9.44-1.57,10.39-1.6-.77,0-2.95-11-3-12.26a60.46,60.46,0,0,1,.4-11.53C484.3,168.94,491.15,160.63,494.51,152.15Z"/><path class="cls-105" d="M449.92,178.61q.78-5.21,1.75-10.37a.15.15,0,0,1,0-.07c.12-2.32.29-4.63.59-6.93.37-2.68-1.21-3.57-1.74-.6-.22,1.23-.44,2.46-.67,3.68-.58,3.12-1.17,6.24-1.9,9.32-2.6,11-6.39,21.54-13.79,30.21,2.22.82,3.93,1.47,4.43,1.74-.55-.3,7.5-16.1,9.54-21.19C448.77,182.18,449.34,180.28,449.92,178.61Z"/><path class="cls-105" d="M494.51,152.15c2.47-6.26,5.13-12.54,5.34-19.15-.46.59-.94,1.15-1.43,1.7-2.38,6.45-18,15.29-14.49,19.47a1.26,1.26,0,0,1,0,1.75c-1.14,1-2.22,2-3.3,3a25.09,25.09,0,0,0,2.75.68,1.24,1.24,0,0,1,.74,1.82c-1.33,1.88-2.72,3.65-3.91,5.58H481a1.25,1.25,0,0,1,1.2,1.56c-.67,2.92-2.86,5.35-3.41,8.24a61.66,61.66,0,0,0-.68,11.68c0,4.81,1.39,9.26,2.69,13.73,2.45-.39,4.24-.66,4.81-.68-.77,0-2.95-11-3-12.26a60.46,60.46,0,0,1,.4-11.53C484.3,168.94,491.15,160.63,494.51,152.15Z"/><path class="cls-106" d="M462.08,107c-4.35.49-9.64.7-13.91,2.29a1.15,1.15,0,0,1-.15.32,9.07,9.07,0,0,0-1.91,5.07c3.44-1.18,6.91-1.88,9.5,1.58.38.51.72,1,1.05,1.56,1.18,1.88,3.83,2.6,5.87,2.49,3.17-.18,6-.81,9.09.26,4.4,1.51,7.32,5.62,11.74,6.86,1.49-1.75,2.75-4.22,4.57-5.63.94-.73,5.5-4.45,6.61-3.22a34.41,34.41,0,0,0-10.63-8c-4.25-1.93-8.28-1.22-12.66-1.78C468.05,108.44,465.5,106.62,462.08,107Z"/><path class="cls-94" d="M462.05,103.15c-2-3.56-6.33-3.58-9.37-1.32-2.73,2-6.83,9.67-6.86,13.14,1.21-1.59,4.58-5.3,6.74-4.55,3.25,1.13,3.61,7,7.22,8.7-.73-.35-1.59-7.66-1.59-8.64C458.22,107.49,459.71,105.14,462.05,103.15Z"/><path class="cls-107" d="M462.05,103.15c-1.81-3.17-5.41-3.53-8.32-2a5.48,5.48,0,0,1,.29,1.18c.82,2.37-.16,4.64-1.27,6.88-.09.39-.2.78-.26,1.18h.07c3.25,1.13,3.61,7,7.22,8.7-.73-.35-1.59-7.66-1.59-8.64C458.22,107.49,459.71,105.14,462.05,103.15Z"/><path class="cls-108" d="M462.05,103.15c-1.81-3.17-5.41-3.53-8.32-2,0,.06,0,.12,0,.18s.05.06.06.09l.62,1.38a8.57,8.57,0,0,1,1.18,3.17,11.45,11.45,0,0,1,.53,3.25c0,1.71-.17,3.41-.24,5.1,1,1.88,2,3.87,3.85,4.77-.73-.35-1.59-7.66-1.59-8.64C458.22,107.49,459.71,105.14,462.05,103.15Z"/><path class="cls-78" d="M461,100.87l-.18-.58v.56Z"/><path class="cls-79" d="M455.17,67.69c-1-1.48-.33-4.66-1.57-5.73s-2.92.55-3.69,1.54c-2.81,3.58-1.23,8.92.14,12.79a33.15,33.15,0,0,1,2.1,7c.23,1.79-.59,5.75,2.25,5.46,5.16-.53,4.36-9.92,4.22-13.26a11.6,11.6,0,0,0-.75-3.85C457.25,69.9,456.12,69.15,455.17,67.69Z"/><path class="cls-65" d="M456.92,111.18a17.72,17.72,0,0,0,.38,2.6c.19,1.36,1.28,4.51,2.69,5,1.62.59,5.05-1.56,6.61-2.08l.75-.24c3.12-1,6.28-2,9.43-2.92,2.08-.62,4.08-1.61,6.05-2.32a31.24,31.24,0,0,1-1.63-5.76,9.38,9.38,0,0,1,.07-3c.08-.43.24-2.25.55-2.44-1.06.66-1.75,1.76-2.85,2.46-2.94,1.91-6,2.2-9.46,2.5a28,28,0,0,1-5.77-.58c-1.11-.16-2.25-.12-3.35-.38-.21-.06-2.42-1-2.42-1-.1,2,.76,4.07-.16,5.94C457.39,109.79,456.94,110.17,456.92,111.18Z"/><path class="cls-64" d="M448.6,89.11a17.54,17.54,0,0,0,3.54,9.53,42.78,42.78,0,0,0,5.16,5.27c5.27,4.48,13.57,3.26,19.51.69A19.36,19.36,0,0,0,485.92,96c3.17-5.57,4.52-12.39,5.66-17.75,1.09-5.17-1.14-10.67-1.09-14.13-2.46-1-6.7.81-9.69.4-2.76-.38-7.93-.39-10.95-.58h-.43c-3,.08-8.18-.06-11,.24-3.57.38-7.74-2.95-9.63,1-1.79,3.73-.75,9.42.64,13.2a7.56,7.56,0,0,1,.23,5.4A11.91,11.91,0,0,0,448.6,89.11Z"/><path class="cls-70" d="M448.6,89.11a17.54,17.54,0,0,0,3.54,9.53,42.78,42.78,0,0,0,5.16,5.27c5.27,4.48,13.57,3.26,19.51.69A19.36,19.36,0,0,0,485.92,96c3.17-5.57,4.52-12.39,5.66-17.75,1.09-5.17-1.14-10.67-1.09-14.13-2.46-1-6.7.81-9.69.4-2.76-.38-7.93-.39-10.95-.58h-.43c-3,.08-8.18-.06-11,.24-3.57.38-7.74-2.95-9.63,1-1.79,3.73-.75,9.42.64,13.2a7.56,7.56,0,0,1,.23,5.4A11.91,11.91,0,0,0,448.6,89.11Zm1.13-14.42a1.14,1.14,0,0,1,1.79-1.08c-.31-2-1.83-5.69.6-7.16a17.54,17.54,0,0,0,9.14,4.94c1.9.33,3.86.85,5.83,1.15,1.22.18,4.69.79,5.47.11a5.86,5.86,0,0,1-2.74-1.15c.78.74,2.74.79,3.74.86,2.35.17,2.11-.37,2.28-2.51,2.89-.45,8.89,2.68,10.59,4.92,3.08,4-.81,12.65-2.42,16.52-1.53,3.66-6.24,9.93-11.1,8.33-2.85-.93-2.87-2.64-6.09-1.93a12.68,12.68,0,0,1-7.66-.39,3.51,3.51,0,0,1,0,.73c-.11,1.53-2.33,2.31-3.53,1.51a12.26,12.26,0,0,1-5.27-7.76c-.4-2.47.72-5,.58-7.51C450.79,81,450.17,77.88,449.73,74.69Z"/><path class="cls-79" d="M450.51,77.81l.12.12c.88-1.68,4.05-1.88,5.75-2,2.8-.2,2.56-.81,3.82-3.35a28.4,28.4,0,0,0-6.45,0C452.41,73.1,449.19,76.82,450.51,77.81Z"/><path class="cls-79" d="M471,72.76c1.26,2.57,1,3.17,4,3.46,1.82.15,5.18.45,6.06,2.16l.14-.12c1.44-1-1.88-4.77-3.3-5.28A32.82,32.82,0,0,0,471,72.76Z"/><path class="cls-88" d="M452.1,82.32c-1-.63-1.54.24-1.73,2a5,5,0,0,0,1,3.84c1.49,1.56,3.15.76,4.83-.43,1.47-1,3-3.38.5-4C454.88,83.26,453.64,83.78,452.1,82.32Z"/><path class="cls-88" d="M474.08,83.54c-2.88-.3-2.22,2.41-1.06,3.91,1.31,1.7,2.77,3,5,2.11a5.05,5.05,0,0,0,2.61-3.23c.49-1.7.22-2.71-1.06-2.46C477.31,84.69,476.21,83.76,474.08,83.54Z"/><path class="cls-80" d="M475.81,83.38c3.28,1.59,4.85-4.7,1.34-5.94C474.16,76.38,473.74,82.34,475.81,83.38Z"/><path class="cls-81" d="M476.4,78.76c-1.36.85-1,2.93-.35,3.63a2.86,2.86,0,0,0,1.42.09,1.16,1.16,0,0,0,1-.66C479.39,80,477.73,77.93,476.4,78.76Z"/><path class="cls-82" d="M476.38,80.56c.48.22.64-.3.2-.57C476.19,79.91,476,80.38,476.38,80.56Z"/><path class="cls-83" d="M479,81.74c1-1.21,0-3.32-1.09-4.17-1.28-1-3.36-.39-2.8,1.52,1.28-2.93,5.43.28,3.7,2.44Z"/><path class="cls-83" d="M475.5,83.29c.46.79,1.35.5,2,.26A1.52,1.52,0,0,0,478.81,82l-.05-.11C478.34,83.33,476.75,83.31,475.5,83.29Z"/><path class="cls-83" d="M481.56,82.38c-.52-.91-1.95-.46-2.71-.42-.4.14.58.85.75,1a5.64,5.64,0,0,1,1,1c-.34-.55-.61-1.29-1.28-1.54A14.94,14.94,0,0,1,481.56,82.38Z"/><path class="cls-80" d="M455.21,77.08c-3.54,1.14-2,8,1.16,6l.37.08C458.32,82.07,458.22,76.11,455.21,77.08Z"/><path class="cls-81" d="M454,81.75c.11.42.61.61.94.67a2.88,2.88,0,0,0,1.44,0c.65-.69,1.09-2.76-.25-3.64S453.15,79.92,454,81.75Z"/><path class="cls-82" d="M454.8,80.52c.39-.17.21-.64-.19-.57C454.16,80.2,454.31,80.73,454.8,80.52Z"/><path class="cls-83" d="M457.25,78.83c.61-1.89-1.44-2.53-2.75-1.59-1.13.8-2.16,2.89-1.22,4.12l.2-.19C451.82,79,456.06,75.87,457.25,78.83Z"/><path class="cls-83" d="M451.6,83.67a5.34,5.34,0,0,1,1-1c.17-.11,1.17-.78.77-.94-.76-.07-2.17-.55-2.71.33a18.08,18.08,0,0,1,2.21.13C452.24,82.4,452,83.12,451.6,83.67Z"/><path class="cls-83" d="M453.45,81.75c.06,1,.39,1.26,1.25,1.6.65.25,1.53.56,2-.21-1.24,0-2.84,0-3.22-1.5Z"/><path class="cls-70" d="M489,84.21a4.36,4.36,0,0,0-1,1.43c-.38.82-.63,1.74-1,2.51-.55,1.25-1.86,4.34.29,4.94,1.85.53,3.48-2.33,4.08-3.65s3.18-4.54,1.77-5.92C492.16,82.55,489.88,83.4,489,84.21Z"/><path class="cls-79" d="M489.76,84.76a6.64,6.64,0,0,1,1.67-1.47c.63-.48.73-1.81,1-2.53.53-1.45,1.09-2.9,1.52-4.39.95-3.23,3.61-10.46-.17-16.15-9.22-13.89-24.45-12.54-26.37-10.94.44-.84,2.72-2.32,4-2.11-8.27-1.56-12.77,1-16.11,4.92a1.55,1.55,0,0,1-.52.33h-.14c-1.3.78-2.68,1.4-4,2.17a9.6,9.6,0,0,0-4.29,8.06A13.88,13.88,0,0,0,448,69.91a1,1,0,0,0,0-.17c0,.08,0,.15,0,.23a16.31,16.31,0,0,0,1.52,2.3c.47.34,1,.66,1.54,1a7,7,0,0,1-1.43-5.33,7.83,7.83,0,0,1,2.2-4c3.87,4.94,11.43,6.74,17.15,8.5-1.26-1.35-3.19-2.33-4.11-3.91,3.1,1.18,6.56,2,9.44,3.3.47-1.17.14-2.13.07-3.32,2.15-.24,4.59,1.26,6.57,1.86,2.34.7,4.52,1.63,6.75,2.48a24.09,24.09,0,0,0-.64-4.12c2.46,2.68,2.91,6.33,2.54,10A73.58,73.58,0,0,1,487.76,86c-.46,1.4-1.09,2.8-1.64,4.16-.09.22-.2.45-.31.67l.09.14-.12,0c-.35.74-.87,1.29-1.16,2.06a6.87,6.87,0,0,1-1.45,2,6.7,6.7,0,0,1-4,2.48c-1.63.18-2.3-.8-2.93-2.13A13.58,13.58,0,0,0,473.09,91c-2.33-2.15-5.36-2.07-8.19-1.11a4.61,4.61,0,0,1-3.17,0c-2.47-.59-3.49-1.58-5.67.38a11.52,11.52,0,0,0-3.07,4.3c-.46,1.32-.26,2.23-1.56,3.11-.35.23,5.09,7.09,5.82,7.52a20.55,20.55,0,0,0,7.38,2.45A20,20,0,0,0,475.7,106c3.23-1.44,5.25-4,7.78-6.41a22.28,22.28,0,0,0,1.59-2,9.51,9.51,0,0,0,.85-1,16.2,16.2,0,0,0,.92-1.93,8.3,8.3,0,0,1,.47-.88c.27-.44.26-.41,0-.82-.71-1.33.06-2.91.55-4.22A18.7,18.7,0,0,1,489.76,84.76ZM473.23,99.68c-.86,1.88-3.9,3-5.86,2.79a4,4,0,0,1-2.8-1.68c-.16-.22-1.18-3-.53-3-.61,0-1.09-.16-1.69-.16a3.87,3.87,0,0,1-1.23,3.32c-2.93,2-7-1.37-6.77-4.5.16-2.16,1.81-2.52,3.7-2.39s3.56,1,5.39,1.17c2.61.3,5.11-1.25,7.7-.91a2.92,2.92,0,0,1,2.17,2.25A4.55,4.55,0,0,1,473.23,99.68Z"/><path class="cls-109" d="M463.66,97c-4.41.12-5.21-1.33-6.45-2.17-.42,1.65,2.31,3.43,3.63,3.7a13.65,13.65,0,0,0,6,.12,5.62,5.62,0,0,0,2.63-1.38,4.79,4.79,0,0,0,1.35-2.43l-.09-.06a7.16,7.16,0,0,1-1.84,1.11A11.93,11.93,0,0,1,463.66,97Z"/><path class="cls-83" d="M457.29,94.87l-.08-.06c-.42,1.65,2.31,3.43,3.63,3.7a13.65,13.65,0,0,0,6,.12,5.62,5.62,0,0,0,2.63-1.38,5,5,0,0,0,1.37-2.42h0C467.85,98.85,459.56,99.77,457.29,94.87Z"/><path class="cls-83" d="M456.73,95.77c.1.33.33.32.37,0a1.42,1.42,0,0,1,.19-.73c.2-.22.61-.2.76-.5C457.4,94,456.54,95.17,456.73,95.77Z"/><path class="cls-83" d="M469.65,94.74c.27.21.62,0,.9.14s.35.38.47.58.41.22.36-.12C471.3,94.72,470.05,94.05,469.65,94.74Z"/><path class="cls-110" d="M449.47,74.69c-2.79-.23-3,7.08-1.68,8.54s4.22,1.58,6.08,1.69c2.31.14,4.95,1.19,6-1.31.71-1.74,1.68-5.13,1.49-7-2.47-.82-5.66-.66-8.23-1.11C451.9,75.27,450.71,74.79,449.47,74.69Zm9.37,2.39c.7.08,1.43.13,1.41,1a13.07,13.07,0,0,1-.75,3.2,12.42,12.42,0,0,1-.77,2.17c-.39.77-.82.8-1.65.79-1.84,0-3.63-.28-5.44-.47-1.28-.13-2.8-.46-3.36-1.77a6.66,6.66,0,0,1-.14-5.25c1.13-2.24,4.37-.54,6.19-.2C455.82,76.84,457.32,76.91,458.84,77.08Z"/><path class="cls-111" d="M454.33,76.56c-1.82-.34-5.06-2-6.19.2a6.66,6.66,0,0,0,.14,5.25c.56,1.31,2.08,1.64,3.36,1.77,1.81.19,3.6.44,5.44.47.83,0,1.26,0,1.65-.79a12.42,12.42,0,0,0,.77-2.17,13.07,13.07,0,0,0,.75-3.2c0-.88-.71-.93-1.41-1C457.32,76.91,455.82,76.84,454.33,76.56Z"/><path class="cls-111" d="M448.14,76.76a6.66,6.66,0,0,0,.14,5.25,1.19,1.19,0,0,0,.16.23,10,10,0,0,1,3.1-3.83,12.7,12.7,0,0,1,3.16-1.8c-.13,0-.25,0-.37,0C452.51,76.22,449.27,74.52,448.14,76.76Z"/><path class="cls-110" d="M477.73,76.79c-2.71,0-6-.65-8.62-.24-.5,1.83,0,5.33.41,7.17.65,2.63,3.54,2,5.93,2.27,1.92.19,4.88.57,6.5-.67s2.54-8.48-.36-8.71C480.29,76.5,479,76.78,477.73,76.79Zm4.89,2.09a6.41,6.41,0,0,1-1,5.16c-.79,1.19-2.4,1.28-3.73,1.19-1.9-.11-3.77-.15-5.66-.42-.86-.13-1.29-.23-1.57-1.06a12.22,12.22,0,0,1-.45-2.26A13.46,13.46,0,0,1,470,78.2c.12-.87.88-.8,1.62-.77,1.57.08,3.13.26,4.7.23C478.23,77.63,481.82,76.48,482.62,78.88Z"/><path class="cls-111" d="M476.3,77.66c-1.57,0-3.13-.15-4.7-.23-.74,0-1.5-.1-1.62.77a13.46,13.46,0,0,0,.26,3.29,12.22,12.22,0,0,0,.45,2.26c.28.83.71.93,1.57,1.06,1.89.27,3.76.31,5.66.42,1.33.09,2.94,0,3.73-1.19a6.41,6.41,0,0,0,1-5.16C481.82,76.48,478.23,77.63,476.3,77.66Z"/><path class="cls-111" d="M470,78.2a13.46,13.46,0,0,0,.26,3.29,12.22,12.22,0,0,0,.45,2.26,1.46,1.46,0,0,0,.43.66,11.42,11.42,0,0,1,5.8-6.79c-.22,0-.43,0-.62,0-1.57,0-3.13-.15-4.7-.23C470.86,77.4,470.1,77.33,470,78.2Z"/><path class="cls-110" d="M460.43,79.78a6.17,6.17,0,0,1-.18,1.28,13.52,13.52,0,0,1,4.11-.83,9.27,9.27,0,0,1,5.26,1.68,6.7,6.7,0,0,1-.14-1.72C467.68,79.27,462.62,78.74,460.43,79.78Z"/><path class="cls-110" d="M489.46,81a13.57,13.57,0,0,0-1.77-.47c-1.35-.27-2.72-.46-4.09-.6l-.1,0a7,7,0,0,1-.31,1.31c.35,0,.69.07,1,.12a38.57,38.57,0,0,1,4,.84c.89.23,1.79.59,2.67.74.67.11,2.22.67,1.91-.43S490.38,81.24,489.46,81Z"/><path class="cls-84" d="M457.86,86.46c.59,3,3.25,3.56,6.1,3a10.12,10.12,0,0,0,3.33-.93,4.73,4.73,0,0,0,1.51-3.44c0-2.07-4.66-2.61-6.3-2l.35-.17C460.46,83.1,457.05,82.4,457.86,86.46Z"/><path class="cls-85" d="M458.42,83.77a22.14,22.14,0,0,1,8.79-.42c-2.52-.86-6.74-1.71-9,.41Z"/><path class="cls-83" d="M463.44,90.57c2.92-.12,6.87-2.64,5.33-5.68.79,5.72-12.69,4.91-10.92-.16C456.27,88.53,460.52,90.7,463.44,90.57Z"/><path class="cls-112" d="M483,59.05a29.22,29.22,0,0,1,7,2.81c1.36-2.2-2.94-5.14-4.36-6a16.44,16.44,0,0,0-3.69-1.93c-1.34-.41-3.4.14-4.42-1a16.19,16.19,0,0,0,1.86-1.35c-3.38-.27-8-.72-11.28.47a17.71,17.71,0,0,0,2.68-1.6c-1.84-1.32-5.73,0-7.55.83A3.51,3.51,0,0,1,464.57,49a25.08,25.08,0,0,0-3.78,1.39c-1.1.64-1.74,1.74-2.68,2.32-3.44,2.12-7.73,3.57-3.8,8.1,2,2.33,4.73,3.9,7.14,5.79-1.43-1.21-4.45-5.36-1.06-5.8,1-.12,6.39.93,7,1.63-1.71-2-4.69-2.66-6.26-4.61,1.69-.55,4.18.07,5.94.41,1.58.3,4.56.47,5.89,1.36a18.24,18.24,0,0,1-3-1.94c3.15.09,5.87,2.28,8.57,3.56-.78-1.92-3.79-3.07-5.29-4.37.43.37,3,.24,3.67.37C479.05,57.56,480.86,58.63,483,59.05Z"/><path class="cls-104" d="M476.52,112.79c-2.74,1.5-6,1.75-9,2.43-2.46.57-7.05,1.62-8.12,4.26,2.19-.07,4.66-1.85,6.8-2.41a20.21,20.21,0,0,1,7.13-1,6.22,6.22,0,0,1,3.48,1.4,6.93,6.93,0,0,1,1.91,2.78c.8,2,1,4.94,3.44,5.89a5.19,5.19,0,0,1,.77.48c.79-1.11,1-2.59,2-3.7a13.65,13.65,0,0,1,3.87-2.63,21,21,0,0,1,4.34-1.6c1.23-.29,2.9-.22,3.39-1.67-4.27.38-5.35-5.08-6.45-8.1a12.51,12.51,0,0,0-2.39-4.46c-.5-.53-6.12-3.69-6.33-2.49l-.23,1.32v1.2c1.13.09,3.16-.09,1.88,2.72C481.92,109.61,478.65,111.62,476.52,112.79Z"/><path class="cls-107" d="M476.52,112.79c-2.74,1.5-6,1.75-9,2.43-2.46.57-7.05,1.62-8.12,4.26,2.19-.07,4.66-1.85,6.8-2.41a20.21,20.21,0,0,1,7.13-1,6.26,6.26,0,0,1,3,1.15c4.8-4.37,12.11-10.13,8.77-13.91a1.3,1.3,0,0,1-.27-.52c-1.64-.82-3.38-1.48-3.5-.82l-.23,1.32v1.2c1.13.09,3.16-.09,1.88,2.72C481.92,109.61,478.65,111.62,476.52,112.79Z"/><path class="cls-107" d="M488.51,105.58c0,4.77-6.44,9.36-10.59,13.27a7.86,7.86,0,0,1,.76,1.44,34.49,34.49,0,0,0,1.42,4,12,12,0,0,1,6-5.56,18.69,18.69,0,0,1,4.73-1,23.89,23.89,0,0,0,3.31-1.28c-2.37-1.39-3.25-5.16-4.11-7.52A17.51,17.51,0,0,0,488.51,105.58Z"/><path class="cls-113" d="M475,116.53a5.77,5.77,0,0,1,1.75,1,5.05,5.05,0,0,1,.53.6,8.8,8.8,0,0,1,1.69-2.46c3.18-3.29,8.93-6.53,7.68-11.83a24,24,0,0,0-3.33-1.65C487.87,107.2,481.2,112.61,475,116.53Z"/><path class="cls-99" d="M363.93,118.75a3.79,3.79,0,0,0-3.52.71,4.24,4.24,0,0,0-.8.88c.22.22.48.41.68.64a12.07,12.07,0,0,1,2.22,2.75,4.9,4.9,0,0,1,5.6,2.21c1.88,2.95,3.51,5.2,6.64,6.81a33.41,33.41,0,0,1-6.14-9C367.56,121.53,366.57,119.47,363.93,118.75Z"/><path class="cls-64" d="M360.94,124.25c.61.21,1.4-.29,1.85-.63,1.07-.83,1.7-2.24,3-2.73,4-1.5,6.12,1.66,7.54,3,1.7,1.67,1.83,4.12,4.22,5.27a3.43,3.43,0,0,0,2,.3c2.8-.33,2.62-5.59,2.19-7.56-.85-3.91-4.11-6.46-9-7.46-3.42-.71-7.12-.76-10.09,1.33a7.47,7.47,0,0,0-2.78,3.39c-.36.86-1,2.62.44,2.75C360.33,122.77,359.91,123.91,360.94,124.25Z"/><path class="cls-64" d="M408.6,149.6c-3.17.32-7,2.46-8.63,5.19-1.28,2.15-1.18,4.67,1.71,7,1.2.95,4.28,4.17,5.88,4.23,3.15.11,6.12-3.61,9.47-3.87,2.45-.19,3.38,0,3.57-3.39C420.94,152.63,413.92,149.09,408.6,149.6Z"/><path class="cls-70" d="M407.75,162.13c-2.91-.39-6-2.19-8.52-4.35a5.72,5.72,0,0,0,2.45,4c1.2.95,4.28,4.17,5.88,4.23,3.15.11,6.12-3.61,9.47-3.87,2.45-.19,3.38,0,3.57-3.39.25-4.4-3.36-7.46-7.38-8.63a18.41,18.41,0,0,0-.52,7c.14.9.38,2.4-.21,3.22A4.63,4.63,0,0,1,407.75,162.13Z"/><path class="cls-70" d="M360.45,121.64A18.15,18.15,0,0,1,363.7,118c1.21-1,2.79-1.17,3.92-2a7.18,7.18,0,0,0-5,1.41C361.51,118.27,359.86,120.13,360.45,121.64Z"/><path class="cls-70" d="M364.33,120.54a10,10,0,0,0-1.58,1.86,2.32,2.32,0,0,1-2.29,1.27c.75,1.08,2,.31,2.66-.34,1.78-1.82,2.07-2.77,4.67-3.08a4.91,4.91,0,0,1,3.41,1.17c1.08.89,1.74,1.92,2,1.82s2.47-1.25,2.28-1.46a6.83,6.83,0,0,0-2.67-2.15C370.2,118.61,366.54,118.44,364.33,120.54Z"/><path class="cls-70" d="M379.4,125.65a5.1,5.1,0,0,1-3.35,1.07,25.75,25.75,0,0,1-3.73-.08,16.4,16.4,0,0,1-1.75-.22,1.08,1.08,0,0,0,.14.78c.55,1.14,1.49,1,2.53,1.36,1.56.47,3.11,1.2,4.78,1a4.22,4.22,0,0,0,2.64-1.38c.75-.87,1.67-3.78.8-4.81C380.6,123.94,380.19,125,379.4,125.65Z"/><path class="cls-114" d="M480.39,120.81c-.4-1.76-.56-4.39-2.4-5.27a13.33,13.33,0,0,0-6.2-1.17c-1.45.3-2.91.54-4.31.85-2.46.57-7.05,1.62-8.12,4.26,2.19-.07,4.66-1.85,6.8-2.41a20.21,20.21,0,0,1,7.13-1,6.22,6.22,0,0,1,3.48,1.4,6.93,6.93,0,0,1,1.91,2.78c.8,2,1,4.94,3.44,5.89a5.19,5.19,0,0,1,.77.48,5,5,0,0,0,.4-.71C481.63,125,480.86,122.86,480.39,120.81Z"/><path class="cls-114" d="M446.44,112a10.3,10.3,0,0,0-.62,3c1.21-1.59,4.58-5.3,6.74-4.55,3.25,1.13,3.61,7,7.22,8.7-.19-.09-.38-.65-.57-1.44-1.31-1.88-1.8-4.13-2.83-6.22C454,106.59,449.25,108.58,446.44,112Z"/><path class="cls-114" d="M452.9,167.86c.45-3,7.61-44.27,6.18-47.69-2,5.83-2.56,12.53-3.46,18.61-1,6.67-2.48,13.37-3.14,20.19-.32,3.27-1.18,6.53-1.65,9.71s-.62,6.57-1.25,9.7a51,51,0,0,0-.85,6.54c.45,7.19,2.35,14.35,2.56,21.42a12.88,12.88,0,0,0,2.24,0c-.07-1.05-2.91-15.52-2.91-18.88a60,60,0,0,1,.4-9.92C451.58,174.32,452.41,171.05,452.9,167.86Z"/><path class="cls-115" d="M459.29,119.52l-.41.41c.08,0,.15.11.2.24C459.16,120,459.22,119.73,459.29,119.52Z"/><path class="cls-94" d="M475.51,138.17a48.49,48.49,0,0,1-24.25,13.32c-5,1-10.63,1.87-15.85,1.43-15.93-1.35-17.89-5-19.91-3.3-3.3,2.85-1.05,12.41,1.55,15,4.79,4.71,23.29,4.74,28.86,4.25a99.7,99.7,0,0,0,18.63-3.33c15.87-4.46,35.95-18.29,36.74-33.15.27-5.23-.6-12.28-8-10.91C484.73,123,481.08,132.7,475.51,138.17Z"/><path class="cls-116" d="M464.55,147.93a46.6,46.6,0,0,1,8.56-3.89c4.88-1.67,5.29-4.71,7.7-8.59,1.7-2.72,5.57-3.92,7-6.64,1.16-2.27,2-4,4.06-5.47a10,10,0,0,1,5.19-1.73,7.48,7.48,0,0,0-3.77-.15c-8.52,1.57-12.17,11.24-17.74,16.71a48.49,48.49,0,0,1-24.25,13.32c-5,1-10.63,1.87-15.85,1.43-15.93-1.35-17.89-5-19.91-3.3a3.9,3.9,0,0,0-1,1.33,2.62,2.62,0,0,1,2.56.05c3.92,1.95,6.47,4.32,11.42,3.57,3.25-.49,6.42,1.27,9.62,1.35,4,.11,6.7,0,10.43-1.55.8-.33,3.12-1.1,4-.45,1.58,1.19,3,2.54,3.8,0,.52-1.69,1.93-3.59,3.92-2.43,1.65,1,2.25,1.79,2.05-.81C462.19,149.3,463.58,148.53,464.55,147.93Z"/><path class="cls-95" d="M478.25,155.06c-1.49.81-4.07,1.92-5.79,1.38-1.38-.44-2.41-3.14-4.13-2.34s-1.6,5-3.41,4.85c-1.38-.1-2.52-2.72-4.2-1.57s.79,2.82-.33,4.08c-1.53,1.72-3.84-2.38-5.82,0-1,1.25-.56,1.42-2.5,1.58a26.49,26.49,0,0,1-3.69.25c-4.07-.2-8.13.4-12.21.31a26.73,26.73,0,0,1-6-.87c-1.61-.4-3.21-.16-4.86-.52-2.27-.51-3.88-3.22-6.35-3.91-3.38-.93-4.31-4.39-4.39-7.5-1.86,3.72.15,11.48,2.46,13.76,4.79,4.71,23.29,4.74,28.86,4.25a99.7,99.7,0,0,0,18.63-3.33c15.87-4.46,35.95-18.29,36.74-33.15.22-4.23-.36-9.59-4.51-10.78,2.8,8.33-3.34,18.34-8.63,24.43C485.24,149.35,482.18,152.91,478.25,155.06Z"/><path class="cls-96" d="M478.08,158.27A14.28,14.28,0,0,1,466.14,161c-2.16-.54-2.8,2.29-4.61,2.79-2.49.68-4.43-1.2-6.93.67-2.07,1.55-3.66,1.58-6.26,1.44-4.29-.24-8.56,0-12.83-.19-5.28-.2-15.87-.91-20.7-5.36a11.22,11.22,0,0,0,2.24,4.26c4.79,4.71,23.29,4.74,28.86,4.25a99.7,99.7,0,0,0,18.63-3.33c15.87-4.46,35.95-18.29,36.74-33.15.19-3.67-.27-8.14-3.09-10,2.47,9.58-1.23,17.41-7.05,24C487.37,150.92,482.91,154.17,478.08,158.27Z"/><path class="cls-117" d="M408.25,310.16a8.88,8.88,0,0,0,2.6-1.45c.42-.27,1.63-.86,1.74-1.4.19-.95-1.95-3.73-2.62-2-.29.75,0,.67-.82.53a1,1,0,0,0-.76.05c-.3.21-.09.3-.24.59-.35.63-.92.15-1.43.46s-.35,1-.14,1.48l-.11-.53C406.75,308.76,407.09,310.43,408.25,310.16Z"/><path class="cls-117" d="M358.44,213.16a8.93,8.93,0,0,0,2.92-.55c.49-.13,1.82-.32,2.09-.79.49-.84-.68-4.16-1.84-2.75-.51.61-.21.63-.94.24a1,1,0,0,0-.74-.2c-.35.11-.18.26-.42.48-.53.5-.92-.14-1.5,0s-.64.81-.59,1.35l.05-.53C357.45,211.36,357.25,213,358.44,213.16Z"/></g></g></svg>