<svg xmlns="http://www.w3.org/2000/svg" xmlns:xlink="http://www.w3.org/1999/xlink" viewBox="0 0 437.75 297.03"><defs><style>.cls-1{fill:#41403b;}.cls-2{fill:#c4b990;}.cls-3{fill:#d7cca6;}.cls-4{fill:#b6aa81;}.cls-5{fill:#a79a75;}.cls-6{fill:#663c05;}.cls-7{fill:#84530b;}.cls-8{fill:#564e45;}.cls-9{fill:#443c35;}.cls-24,.cls-9{opacity:0.58;}.cls-10{fill:#827b75;}.cls-11{fill:#b78439;}.cls-12{fill:#5e3702;}.cls-13{fill:#d8a364;}.cls-14{fill:#c4904b;}.cls-15{fill:#f93;}.cls-16{fill:#e87e25;}.cls-17{fill:#d86f21;}.cls-18{fill:#807a83;}.cls-19{fill:#726e75;}.cls-20{fill:#5e5563;}.cls-21{fill:#c6bdba;}.cls-22{fill:#b2aaa8;}.cls-23{fill:#3d3335;}.cls-24,.cls-27{fill:#938d8a;}.cls-25{fill:#160c0f;}.cls-26{fill:#bcbbbb;}.cls-28{fill:#8c8a85;}.cls-29{fill:#565145;}.cls-30{fill:#a09b98;}.cls-31{fill:#8e8a87;}.cls-32{fill:#eadece;}.cls-33{fill:#ddd3c3;}.cls-34{fill:#7a8182;}.cls-35{fill:#ffab17;}.cls-36{fill:url(#linear-gradient);}.cls-37{fill:url(#linear-gradient-2);}.cls-38{fill:#ff8308;}.cls-39{fill:#474237;}.cls-40{fill:#d9d1ce;}.cls-108,.cls-40{opacity:0.38;}.cls-41{fill:#e2dedc;}.cls-42{fill:#a59888;}.cls-43{fill:url(#radial-gradient);}.cls-44{fill:url(#radial-gradient-2);}.cls-45{fill:url(#radial-gradient-3);}.cls-46{fill:#847464;}.cls-47{fill:url(#linear-gradient-3);}.cls-48{fill:#b2aaa3;}.cls-49{fill:#918271;}.cls-50{fill:url(#radial-gradient-4);}.cls-51{fill:#ef2c06;}.cls-52{fill:#010000;}.cls-53{fill:#77727a;}.cls-54{fill:#48424c;}.cls-55{fill:#848787;}.cls-56{fill:#afaaa8;opacity:0.5;}.cls-57{fill:#a39b98;}.cls-58{fill:#8f8a91;}.cls-59{fill:#77707a;}.cls-60{fill:#f48a2a;}.cls-61{fill:#ea802a;}.cls-62,.cls-67{fill:#e88328;}.cls-62{opacity:0.31;}.cls-63{fill:#aac636;}.cls-64{fill:#92b71d;}.cls-65{fill:#b4d844;}.cls-66{fill:#769908;}.cls-68{fill:url(#linear-gradient-4);}.cls-69{fill:url(#linear-gradient-5);}.cls-70{fill:#dd7426;}.cls-71{fill:#ffbc73;}.cls-72{fill:#eda06b;}.cls-73{fill:#4ab6a0;}.cls-74{fill:#18a086;}.cls-75{fill:#b1fce6;}.cls-76{fill:#428474;}.cls-77{fill:#efa452;}.cls-78{fill:url(#linear-gradient-6);}.cls-79{fill:#70360f;}.cls-109,.cls-79{opacity:0.4;}.cls-80{fill:#7a4d27;}.cls-81{fill:#88dd19;}.cls-82{fill:#75bf00;}.cls-83,.cls-84{fill:#41a004;}.cls-83{opacity:0.65;}.cls-85{fill:#fcb17e;}.cls-86{fill:#7a471e;}.cls-87{fill:#f9a458;}.cls-88{fill:#020202;}.cls-118,.cls-89{fill:#fff;}.cls-90{fill:#b56f2a;}.cls-91{fill:#ffce94;}.cls-92{fill:#fce4d0;}.cls-93{fill:#bc7742;}.cls-94{fill:#d8975b;}.cls-95{fill:#f29e66;}.cls-96{fill:#754525;}.cls-97{fill:#a5714e;}.cls-98{fill:#b27c54;}.cls-99{fill:#8e6342;}.cls-100{fill:#378caa;}.cls-101{fill:#85bdcf;}.cls-102{fill:#68b0c1;}.cls-103{fill:#4897af;}.cls-104{fill:#498791;}.cls-105{fill:#ff8812;}.cls-106{fill:#ef7507;}.cls-107{fill:url(#linear-gradient-7);}.cls-108,.cls-109,.cls-110{fill:#012128;}.cls-110{opacity:0.3;}.cls-111{fill:#a3d0d8;}.cls-112{fill:#67b4c1;}.cls-113{fill:#4696af;}.cls-114{fill:#69adbc;}.cls-115{fill:#55a4b7;}.cls-116{fill:#cc7833;}.cls-117{fill:#351d0d;}.cls-118{opacity:0.25;}.cls-119{fill:#8e5a3d;}.cls-120{fill:#8dc9d3;}.cls-121{fill:#ceeaef;}.cls-122{fill:#acdae2;}.cls-123{fill:#9bcad5;}.cls-124{fill:#b78630;}</style><linearGradient id="linear-gradient" x1="83" y1="82.34" x2="102.86" y2="82.34" gradientUnits="userSpaceOnUse"><stop offset="0" stop-color="#ffd81a"/><stop offset="1" stop-color="#ffab17"/></linearGradient><linearGradient id="linear-gradient-2" x1="103.33" y1="93.62" x2="131.66" y2="88.11" xlink:href="#linear-gradient"/><radialGradient id="radial-gradient" cx="109.9" cy="99.46" r="2.12" gradientUnits="userSpaceOnUse"><stop offset="0" stop-color="#eadece"/><stop offset="1" stop-color="#c6bdba"/></radialGradient><radialGradient id="radial-gradient-2" cx="117.37" cy="99.46" r="2.12" xlink:href="#radial-gradient"/><radialGradient id="radial-gradient-3" cx="124.85" cy="99.46" r="2.12" xlink:href="#radial-gradient"/><linearGradient id="linear-gradient-3" x1="84" y1="84.17" x2="93.1" y2="84.17" xlink:href="#radial-gradient"/><radialGradient id="radial-gradient-4" cx="126.47" cy="113.21" r="6.82" gradientTransform="translate(-15.03 11.64) rotate(-3.33)" xlink:href="#radial-gradient"/><linearGradient id="linear-gradient-4" x1="24.9" y1="131.05" x2="83.46" y2="131.05" gradientUnits="userSpaceOnUse"><stop offset="0" stop-color="#ffab17"/><stop offset="1" stop-color="#ffd81a"/></linearGradient><linearGradient id="linear-gradient-5" x1="20.18" y1="151.44" x2="64.83" y2="151.44" xlink:href="#linear-gradient"/><linearGradient id="linear-gradient-6" x1="277.07" y1="238.66" x2="277.07" y2="130.62" gradientUnits="userSpaceOnUse"><stop offset="0.25" stop-color="#b48329"/><stop offset="0.79" stop-color="#986501"/></linearGradient><linearGradient id="linear-gradient-7" x1="384.95" y1="270.97" x2="384.95" y2="120.99" gradientUnits="userSpaceOnUse"><stop offset="0.25" stop-color="#417d87"/><stop offset="0.79" stop-color="#024a5b"/></linearGradient></defs><g id="Layer_2" data-name="Layer 2"><g id="Layer_1-2" data-name="Layer 1"><path class="cls-1" d="M97,198c0-4.07,1.27-13-2.62-14.71-4.4-1.92-3.29,4.94-3.3,8.15,0,17.35.77,35-3.32,51.9a84.59,84.59,0,0,1-4.37,13c-.81,1.87-2.38,3.87-1.35,5.93s3.79,1.45,5,.34c5.82-5.31,7-20.68,7.83-28.68A295.58,295.58,0,0,0,97,201C97,200,97,198.94,97,198Z"/><path class="cls-1" d="M148.51,198c0-4.07-1.27-13,2.62-14.71,4.4-1.92,3.29,4.94,3.3,8.15,0,17.35-.77,35,3.32,51.9a84.59,84.59,0,0,0,4.37,13c.81,1.87,2.38,3.87,1.35,5.93s-3.79,1.45-5,.34c-5.82-5.31-7-20.68-7.83-28.68A295.58,295.58,0,0,1,148.52,201C148.52,200,148.51,198.94,148.51,198Z"/><path class="cls-1" d="M110.55,182.72c0-4.07,1.26-13-2.63-14.71-4.4-1.92-3.29,4.94-3.3,8.15,0,17.36.77,35-3.32,51.9a82.5,82.5,0,0,1-4.37,13C96.12,243,94.56,245,95.58,247s3.79,1.46,5,.34c5.82-5.31,7-20.68,7.83-28.68a295.42,295.42,0,0,0,2.11-32.91C110.53,184.73,110.54,183.71,110.55,182.72Z"/><path class="cls-1" d="M134.5,182.72c0-4.07-1.26-13,2.63-14.71,4.4-1.92,3.29,4.94,3.29,8.15,0,17.36-.76,35,3.33,51.9a82.5,82.5,0,0,0,4.37,13c.81,1.87,2.37,3.87,1.35,5.93s-3.79,1.46-5,.34c-5.82-5.31-7-20.68-7.84-28.68a300.3,300.3,0,0,1-2.11-32.91C134.52,184.73,134.51,183.71,134.5,182.72Z"/><path class="cls-1" d="M105.61,169a1.57,1.57,0,0,0,1.69.45c1.93-.41,1.86-2.4,1.93-4,.09-2.1-.57-4.11-.77-6.18s-.59-4.42-.86-6.63a55.15,55.15,0,0,0-1.87-10.27c-.47-1.44-1.08-4.38-3.23-3.36-1.32.62-1.34,2.36-1.27,3.56.15,2.88,1.29,5.55,1.82,8.34.32,1.74.48,3.5.76,5.26a59,59,0,0,1,.77,7.38C104.61,165.12,104.63,167.83,105.61,169Z"/><path class="cls-1" d="M140.8,169a1.58,1.58,0,0,1-1.7.45c-1.92-.41-1.85-2.4-1.92-4-.09-2.1.56-4.11.77-6.18s.59-4.42.86-6.63a54.34,54.34,0,0,1,1.87-10.27c.47-1.44,1.07-4.38,3.23-3.36,1.31.62,1.33,2.36,1.27,3.56-.16,2.88-1.29,5.55-1.82,8.34-.33,1.74-.49,3.5-.76,5.26a57.16,57.16,0,0,0-.77,7.38C141.79,165.12,141.77,167.83,140.8,169Z"/><path class="cls-2" d="M110.67,147.44c3.24.06,6.45-.06,9.28.12,8.58.52,20,1.13,27.32-4.47,7.89-6.07,25.55-34.75,9.83-40.87-9.26-3.61-20.86-3.63-30.78-4.58a89.65,89.65,0,0,0-37,3.9c-9.51,3-5.76,9.47-4.44,16.48,1.72,9.15,3.25,16,9.41,23.64C98.14,146.51,104.45,147.31,110.67,147.44Z"/><path class="cls-3" d="M89.8,117.53A19.62,19.62,0,0,0,98,125.35c11.4,5.62,39.09,8.68,43.7-7.65,4.1-14.5-14.88-13.72-23.58-13.49-7.38.19-23.87-1.2-28.35,6A7.14,7.14,0,0,0,89.8,117.53Z"/><path class="cls-4" d="M157.1,102.22a56.62,56.62,0,0,0-13.76-3.12,16.23,16.23,0,0,1,7.41,7.72c2.53,6.09,0,12.69-3.87,17.62-14.91,19-44.58,16.51-60.63.38a39.71,39.71,0,0,0,8,16.84c3.89,4.85,10.2,5.65,16.42,5.78,3.24.06,6.45-.06,9.28.12,8.58.52,20,1.13,27.32-4.47C155.16,137,172.82,108.34,157.1,102.22Z"/><path class="cls-5" d="M157.1,102.22a42.32,42.32,0,0,0-4.17-1.35,23,23,0,0,1,4.44,7.79c4,12.34-6,25.48-16.59,31-15.84,8.27-42.57,5.18-53.3-10.44a37.91,37.91,0,0,0,6.77,12.44c3.89,4.85,10.2,5.65,16.42,5.78,3.24.06,6.45-.06,9.28.12,8.58.52,20,1.13,27.32-4.47C155.16,137,172.82,108.34,157.1,102.22Z"/><path class="cls-2" d="M165.42,180.93c0,8.79-18.9,15.91-42.22,15.91S81,189.72,81,180.93,99.89,165,123.2,165,165.42,172.13,165.42,180.93Z"/><path class="cls-4" d="M151.36,169.07c2,3.94.32,8.93-4.41,11a39.36,39.36,0,0,1-14.69,3.09,139,139,0,0,1-30.95-2.49c-4.14-.86-9.48-2-12.48-5.24a8.25,8.25,0,0,1-1.71-2.77c-3.89,2.41-6.14,5.24-6.14,8.27,0,8.79,18.91,15.91,42.22,15.91s42.22-7.12,42.22-15.91C165.42,176.22,160,172,151.36,169.07Z"/><path class="cls-5" d="M161.85,174.52a10.29,10.29,0,0,1-2.22,6.4c-4.84,6.7-14.53,9.41-22.4,9.71h0c-2.64.51-5.27.86-7.78,1.1a80.43,80.43,0,0,1-36.62-5c-4.16-1.69-8.78-3.81-11.55-7.5a6.18,6.18,0,0,0-.26,1.75c0,8.79,18.91,15.91,42.22,15.91s42.22-7.12,42.22-15.91C165.42,178.65,164.14,176.48,161.85,174.52Z"/><path class="cls-3" d="M116,173a56.46,56.46,0,0,1,11.21-.48c3.65.18,14.74,4.36,17.81,1.32,2.6-2.63-5.25-4.23-6.61-4.52-12-2.5-27.51-3.4-39.06,1.38-2.71,1.11-6.47,2.83-3.47,6,3.67,3.81,9.72-.65,13.34-2A35.22,35.22,0,0,1,116,173Z"/><path class="cls-6" d="M20.58,295.75c6-2.06,7.74-12.44-.53-13.9C8.14,279.77,11,299,20.58,295.75Z"/><path class="cls-6" d="M176.58,295.75c6-2.06,7.74-12.44-.53-13.9C164.15,279.77,167,299,176.58,295.75Z"/><path class="cls-7" d="M59.83,269.48c4.46-5,9.83-5.79,16.2-5.79H91.11c8.69,0,17.37.33,26.06.55,8.23.2,16.19-.65,24.4-.25,2.39.12,6.1.27,8.38,1.59.88-5.18-6.43-5.46-10.3-5.65-8.21-.4-16.18.45-24.4.25-8.69-.22-17.37-.55-26.06-.55H74.11c-6.38,0-11.74.78-16.2,5.79-2.18,2.44-8.25,7-5,10.15.08.08.09.33.18.4a8.29,8.29,0,0,0,1.12.64C55,274.08,58.33,271.17,59.83,269.48Z"/><path class="cls-8" d="M136.68,266.15c8.55.39,13.59,6.62,18.56,12.83-5,2.36-12.69.23-18.19.76a170.59,170.59,0,0,1-23.6.65c-7-.32-14.08-.06-21.08-.53-5.42-.37-11.62.28-16.88-1.49s-10-5.48-14-9.19c-1.7-1.57-.8-3.67,3.9-3.8C73,265.16,127.64,265.74,136.68,266.15Z"/><path class="cls-9" d="M73.17,274.27c2.88-2.88,7.57-3.64,11.48-3.36,7.92.57,15.85,1.23,23.79,1.31,13.22.12,26.13.8,37.11,7.78,3.49.22,7,.26,9.69-1-5-6.21-10-12.44-18.56-12.83-9-.41-63.65-1-71.29-.77-4.7.13-5.6,2.23-3.9,3.8a50.07,50.07,0,0,0,10,7.46A7.85,7.85,0,0,1,73.17,274.27Z"/><path class="cls-9" d="M65.45,272.57c5.57-4.06,13.62-2.69,20-2.87a350.93,350.93,0,0,1,35.38.83c11.91,1,23,.62,31.31,9.35a11.52,11.52,0,0,0,3.09-.9c-5-6.21-10-12.44-18.56-12.83-9-.41-63.65-1-71.29-.77-4.7.13-5.6,2.23-3.9,3.8C62.74,270.33,64.06,271.48,65.45,272.57Z"/><path class="cls-10" d="M62.09,269.72a5.34,5.34,0,0,1,2.13-.81c8-1.24,16.06-.41,24.15-.17,7.88.24,15.69.31,23.57.14,7.39-.16,18.12-.22,25.48.57,7,.76,9.34,4,14.79,8.35a5.5,5.5,0,0,1,1.45,1.75,9.27,9.27,0,0,0,1.58-.57c-5-6.21-10-12.44-18.56-12.83-9-.41-63.65-1-71.29-.77-4.7.13-5.6,2.23-3.9,3.8Z"/><path class="cls-7" d="M209.25,256.26a7,7,0,0,1-4.78,4.18c-5,1.45-7.68,7.32-11.06,11.13-4.91,5.5-11.14,8.11-18.47,8.44S12.22,281.23,6.28,277.36L0,282.7v3.92H194.09l17.47-26.5V256.2Z"/><path class="cls-11" d="M25.53,256.45,0,283H194.09l17.47-26.5Zm124.05,10.7c-3.28,8.73-9.06,9.34-17.35,9.84-21.34,1.31-42.92.47-64.3.45-4.33,0-10.87,1.66-14.57-1.42a2.73,2.73,0,0,1-.25-.23c-3.24-3.15,2.62-7.68,4.8-10.12,4.46-5,9.82-5.8,16.2-5.8H89.19c8.69,0,17.37.34,26.06.55,8.22.21,16.19-.64,24.4-.24C143.82,260.38,152,260.68,149.58,267.15Z"/><polygon class="cls-12" points="194.09 286.62 194.09 282.7 211.56 256.2 211.56 260.12 194.09 286.62"/><polygon class="cls-13" points="4.13 281.24 17.13 264.92 0 282.7 194.09 282.7 211.56 256.2 194.09 280.98 4.13 281.24"/><path class="cls-14" d="M201.45,256.2c-3.13,1.15-6.33,2.06-9,3.07A242.73,242.73,0,0,1,160.23,269c-4.35,1-8.73,1.81-13.13,2.55-3.42,4.38-8.37,4.84-14.87,5.24-10.82.66-21.7.77-32.59.71-2.32.21-4.65.41-7,.56-17.69,1.15-36.5,1.38-53.87-2.81-6.38-1.54-16.93-4.25-21.67-10.29L0,282.7H194.09l17.47-26.5Z"/><path class="cls-7" d="M166.11,184.65a111.62,111.62,0,0,1,13.28-26.72c1.33-1.94,2.34-3.18-.33-3.85-1.61-.4-4.08.1-5.07,1.39-15,19.63-22.52,49.14-22.5,73.91,0,10.17,6.93,56.92,26.57,47.89-15.56-10.55-17.84-30.42-18.71-48.47C158.74,216.18,161.63,197.39,166.11,184.65Z"/><path class="cls-7" d="M186.5,166.5a111.44,111.44,0,0,1,13.28-26.72c1.33-1.95,2.34-3.18-.33-3.86-1.61-.4-4.08.1-5.07,1.39-15,19.63-22.52,49.15-22.5,73.91,0,10.18,6.93,56.92,26.57,47.89-15.56-10.55-17.84-30.42-18.71-48.47C179.13,198,182,179.23,186.5,166.5Z"/><path class="cls-7" d="M27.34,184.65a110.89,110.89,0,0,0-13.28-26.72c-1.32-1.94-2.34-3.18.33-3.85,1.61-.4,4.09.1,5.08,1.39C34.5,175.1,42,204.61,42,229.38,42,239.55,35,286.3,15.4,277.27,31,266.72,33.23,246.85,34.11,228.8,34.72,216.18,31.83,197.39,27.34,184.65Z"/><path class="cls-7" d="M46.87,166.5a111.44,111.44,0,0,0-13.28-26.72c-1.33-1.95-2.34-3.18.33-3.86,1.6-.4,4.08.1,5.07,1.39,15,19.63,22.51,49.15,22.5,73.91,0,10.18-6.94,56.92-26.57,47.89,15.56-10.55,17.84-30.42,18.71-48.47C54.24,198,51.35,179.23,46.87,166.5Z"/><polygon class="cls-7" points="194.09 156.22 0 156.22 0 152.3 25.79 130.37 211.56 125.8 211.56 129.72 194.09 156.22"/><polygon class="cls-12" points="194.09 156.22 194.09 152.3 211.56 125.8 211.56 129.72 194.09 156.22"/><polygon class="cls-11" points="194.09 152.3 0 152.3 25.53 125.8 211.56 125.8 194.09 152.3"/><path class="cls-14" d="M192.45,128.86a242.77,242.77,0,0,1-32.22,9.7,327.74,327.74,0,0,1-33,5.34c-11.49,1.35-23,3-34.58,3.71C75,148.76,56.17,149,38.8,144.81c-6.38-1.54-16.93-4.26-21.67-10.29L0,152.3H194.09l17.47-26.5H201.45C198.32,126.94,195.12,127.86,192.45,128.86Z"/><polygon class="cls-13" points="4.13 150.84 17.13 134.52 0 152.3 194.09 152.3 211.56 125.8 194.09 150.57 4.13 150.84"/><path class="cls-15" d="M63.29,125.31c-4.07,6.58-11.44,7.5-17.21,12.09-4.35,3.46.11,2.42.56,5.53.31,2.18-4,3.5-5.5,4.49-2.44,1.67-2.71,2.39-2,5,.53,2.07.42,4.14.8,6.13,2.56,13.13,6,26.21,4.91,39.7-.83,9.89-7.19,29.36-15,11.88-8.1,4.07-9.13-4.19-12.42-9.5-3.51-5.67-7.37-6.26-13.95-8-.23-8.68,4.28-17.38,6-25.88.63-3.16-.34-5-1-8-.51-2.35.25-5.12,1-7.34.89-2.52,2.82-3.64,4.24-5.81s1.57-3.44,3.75-5c1.91-1.34,4.23-2.52,5.69-4.28,1.59-1.93.92-4.17,2.09-5.89s3.65-2.07,5.62-2.59c2.3-.62,3.16-1.53,5-2.62,4-2.36,8.19-.06,12.45-.27S59.51,123.09,63.29,125.31Z"/><path class="cls-16" d="M41.93,204.78a75.49,75.49,0,0,0-5-20.39c-4.17-10.6-13.24-19.25-15.69-30.46-4.2.84-8.65,1.52-12.66.27a10.43,10.43,0,0,0-.21,4.53c.64,3,1.61,4.82,1,8-1.69,8.5-6.2,17.2-6,25.88,6.58,1.74,10.44,2.33,14,8,3.29,5.31,4.32,13.57,12.42,9.5,5.27,11.74,9.86,6.82,12.56-.67C42.2,207.87,42.08,206.33,41.93,204.78Z"/><path class="cls-17" d="M46.08,137.4c5.77-4.59,13.14-5.51,17.21-12.09-3.78-2.22-10.76-.54-15-.33a21.32,21.32,0,0,1-4.29-.37,5.1,5.1,0,0,1,1.51,3.24c.16,2.77-4.11,4.36-6.13,4.9-4.47,1.19-7.23,3.5-10.91,6.08-3.3,2.31-8.57,2.78-11.13,6-2.28,2.82-2.15,4.47-1.16,7.72.47,1.56.92,3.14,1.24,4.74a1.79,1.79,0,0,1,.56,1c.92,3.86,1.34,7.93,2.76,11.67a9.1,9.1,0,0,0,3.19,4.58l.16.05c8.6,3.27,9.57,10.38,10.12,18.71.43,6.63.87,12.46,4.5,18.21.51.82,1,1.64,1.55,2.45,2.49-4,4.16-11,4.56-15.69,1.14-13.49-2.35-26.57-4.91-39.7-.38-2-.27-4.06-.8-6.13-.66-2.57-.39-3.29,2-5,1.45-1,5.81-2.31,5.5-4.49C46.19,139.82,41.73,140.86,46.08,137.4Z"/><rect class="cls-18" x="68.71" y="100.95" width="1.79" height="11.42"/><path class="cls-19" d="M68.71,101v1.84c1.57.38.81,8.11.24,8.82a.24.24,0,0,1-.24.08v.68H70.5V101Z"/><path class="cls-20" d="M68.71,101v1.36a1.38,1.38,0,0,1,1.11.64,22.34,22.34,0,0,1,.17,4.16,27,27,0,0,1-.17,4.23,1.27,1.27,0,0,1-1.11.7v.33H70.5V101Z"/><rect class="cls-21" x="127.77" y="71.45" width="2.16" height="2.19"/><path class="cls-22" d="M127.77,71.45V72c.43-.06,1-.13,1.35.19a.27.27,0,0,1-.14.46,3.08,3.08,0,0,1-1.21.11v.83h2.16V71.45Z"/><path class="cls-18" d="M124.86,72.15c-.16.25-.9.1-1.16.14a18,18,0,0,1-.08-1.84c0-.37-.14-1.44.12-1.69s.6-.12.8-.08.34.17.36.53A18.35,18.35,0,0,1,124.86,72.15Z"/><path class="cls-20" d="M124.9,69.21c0-.36,0-.48-.36-.53l-.25,0a4,4,0,0,1,.25,1.63c0,.45-.09,1.14-.6,1.3a.38.38,0,0,1-.3,0,3.56,3.56,0,0,0,.06.73c.26,0,1,.11,1.16-.14A18.35,18.35,0,0,0,124.9,69.21Z"/><path class="cls-18" d="M125.48,72a1.28,1.28,0,0,1,.15,1.47c-.25.21-1.15.15-1.47.17a4.26,4.26,0,0,1-1-.07c-.31-.06-.33,0-.36-.32s0-1.07.35-1.25a2,2,0,0,1,.81-.07,4.35,4.35,0,0,1,1.44,0A.24.24,0,0,1,125.48,72Z"/><path class="cls-20" d="M125.48,72a.24.24,0,0,0-.09-.06h-.08c-.34.76-1.75.94-2.5.74a1.94,1.94,0,0,0,0,.58c0,.31,0,.26.36.32a4.26,4.26,0,0,0,1,.07c.32,0,1.22,0,1.47-.17A1.28,1.28,0,0,0,125.48,72Z"/><path class="cls-23" d="M76.32,72.17a2.48,2.48,0,0,1-.77,0,1,1,0,0,1-.18,0c-.07,0,0-.15.07-.21a1.35,1.35,0,0,0,0-.29c0-.18,0-.37,0-.55a.87.87,0,0,1,0-.48c.09-.14.33-.1.48-.1.31,0,.62,0,.92,0s.41,0,.39.2a4,4,0,0,0,0,.69,2.14,2.14,0,0,0,.07.43c0,.08.2.2.08.27a1.27,1.27,0,0,1-.44.07Z"/><path class="cls-24" d="M76.89,71.25a3.09,3.09,0,0,1-1.34-.41,3.86,3.86,0,0,0,1.08.15,3.58,3.58,0,0,1-1-.25,2.22,2.22,0,0,0,.77,0,4.33,4.33,0,0,1-.72-.12l-.21-.09,0,0a.87.87,0,0,0,0,.48c0,.18,0,.37,0,.55a.88.88,0,0,1,0,.17l.06,0a3.24,3.24,0,0,0,1.12,0,5,5,0,0,1-.52-.07c-.11,0-.41-.14-.46-.25a2.26,2.26,0,0,1,.44.08,1.18,1.18,0,0,0,.56,0,2.26,2.26,0,0,1-.68-.17c-.08,0-.44-.21-.4-.31a2,2,0,0,0,.5.13A7.3,7.3,0,0,0,76.89,71.25Z"/><path class="cls-25" d="M77.4,71.9a.86.86,0,0,0-.07-.1,2.14,2.14,0,0,1-.07-.43,4,4,0,0,1,0-.69c0-.17-.09-.2-.22-.2l-.29.06a1.49,1.49,0,0,1-.47,0,1.17,1.17,0,0,0,.38.08,2.88,2.88,0,0,0,.41,0,2.43,2.43,0,0,1-.73.13,1.67,1.67,0,0,0,.77,0,1.71,1.71,0,0,1-.71.11,3.58,3.58,0,0,0,.74.06,1.31,1.31,0,0,1-.68.12,1.62,1.62,0,0,0,.62.07.93.93,0,0,1-.41.23,1.61,1.61,0,0,1-.49,0,1.23,1.23,0,0,0,.44.08c.1,0,.35,0,.41.06a1.07,1.07,0,0,1-.41.16,1.29,1.29,0,0,1-.4,0,2,2,0,0,1,.34,0,1.32,1.32,0,0,0,.62-.06.71.71,0,0,1-.3.15,1.34,1.34,0,0,0-.37.08,3.17,3.17,0,0,0,.87,0Z"/><path class="cls-26" d="M77.88,73.27c-.64,0-1.28,0-1.92,0a3.38,3.38,0,0,0-.78,0c-.11,0-.46.15-.54,0s.39-.38.27-.65-.27-.18-.34-.32c-.21-.41.62-.36.84-.35.44,0,.9,0,1.35,0a6.19,6.19,0,0,1,1.21,0c.59.15-.21.52-.12.76s.32.18.39.34S78.09,73.28,77.88,73.27Z"/><path class="cls-27" d="M76.4,72.77c-.84,0-1.16.06-1.16-.33-.28,0-.53-.18-.53-.44-.14,0-.22.14-.14.3s.28.16.34.32-.35.53-.27.65.43,0,.54,0a3.38,3.38,0,0,1,.78,0c.64,0,1.28,0,1.92,0,.21,0,.47,0,.36-.24s-.32-.19-.39-.34.71-.61.12-.76h-.08c.11,0-.12.37-.18.41a2.46,2.46,0,0,1-.82.19,5.82,5.82,0,0,0-.94,0,4.85,4.85,0,0,1,1.19.1C77.23,72.89,76.49,72.76,76.4,72.77Z"/><path class="cls-28" d="M71,70.35a4.86,4.86,0,0,1,0,.77c0,.39-.06.81-.08,1.2s.2,1-.07,1.47c-.68,1.18-.74-1.27-.78-1.59a7.47,7.47,0,0,1-.2-1.88c.08-.45.64-.81,1-.37A.83.83,0,0,1,71,70.35Z"/><path class="cls-29" d="M71,70.35a.83.83,0,0,0-.14-.4.51.51,0,0,0-.4-.19,4.24,4.24,0,0,1,.15,2,1.15,1.15,0,0,1-.52.89c.06.76.22,2.07.75,1.14.27-.47,0-1,.07-1.47s.06-.81.08-1.2A4.86,4.86,0,0,0,71,70.35Z"/><rect class="cls-30" x="129.34" y="78.12" width="8.07" height="12.83" rx="2.37"/><path class="cls-31" d="M136.38,89.29c-2.21.46-2.44-2.93-2.47-4.24s-.42-5.59,1-6.93h-3.15a2.38,2.38,0,0,0-2.37,2.38v8.08A2.37,2.37,0,0,0,131.71,91H135a2.35,2.35,0,0,0,2.35-2.19A2.11,2.11,0,0,1,136.38,89.29Z"/><path class="cls-30" d="M132.73,133.61a2.3,2.3,0,0,1-2.35,2.24H54.77a2.3,2.3,0,0,1-2.35-2.24h0a2.3,2.3,0,0,1,2.35-2.25h75.61a2.3,2.3,0,0,1,2.35,2.25Z"/><path class="cls-32" d="M59.3,73c-9.15,0-8.17,21.26-4.13,26.09,2.75,3.29,10.48,2.83,14.62,2.78,7.95-.11,9.48.09,10.9-5.46.51-2,.3-3.78,2.18-5S97.78,89,101.34,92.54c3.24,3.24,4,18.94.81,19.26-2.62.26-44.15.11-46.51,1-4.44,1.6-7.11,4.17-8.29,8.34-1.24,4.38-.3,9.52,5.07,11.86l81.14,0c3.51-3,3.12-13.52,2.27-17.61a140.54,140.54,0,0,1-2.54-15.07c-.52-5.17,1.62-26.3-3-27.26Z"/><path class="cls-33" d="M135.83,115.32a140.54,140.54,0,0,1-2.54-15.07c-.52-5.17,1.62-26.3-3-27.26H59.3c-9.15,0-8.17,21.26-4.13,26.09,2.75,3.29,10.48,2.83,14.62,2.78,7.95-.11,9.48.09,10.9-5.46.51-2,.3-3.78,2.18-5S97.78,89,101.34,92.54c3.24,3.24,4,18.94.81,19.26-2.62.26-44.15.11-46.51,1-4.44,1.6-7.11,4.17-8.29,8.34-1.24,4.38-.3,9.52,5.07,11.86l81.14,0C137.07,129.89,136.68,119.41,135.83,115.32Zm-12.38,8.13c-3.56.53-7-.11-10.55-.15-4.47,0-8.93.08-13.39.26-9.43.37-18.79,1-28.19,1.61a65.56,65.56,0,0,1-12.45.11c-2-.25-4.67-.58-6.25-2-4.72-4.39,4.8-7.91,7.86-8.4,6.55-1,13.16.33,19.71.55s13.16,1.47,19.53.17c3.11-.64,7.43-2.13,8.25-5.69.66-2.82-.16-5.84-.12-8.7a2,2,0,0,1,.18-.79,42.89,42.89,0,0,0-.67-5.92c-.7-2.7-2.44-4-4.84-5.31-4.59-2.41-9.85-4.43-15.1-3.8a40.58,40.58,0,0,1-5.48.5c-1.65.1-4.5.17-5.42,1.91-.62,1.16-.93,2.54-1.66,3.64-2.67,4-9,5.87-13.56,4.28-9-3.16-6.26-17,1.52-20,.15-.11,9.49.11,18,.86C93.08,74,105.9,76,118.3,76.42c3.89.14,9.12.65,9.76,5.38a61,61,0,0,1,0,6.9c0,1,0,1.91,0,2.86a43.31,43.31,0,0,1,1.06,7.8c.28,3.15,1.11,6.16,1.55,9.28C131.52,114.47,130.69,122.39,123.45,123.45Z"/><path class="cls-21" d="M135.83,115.32a140.54,140.54,0,0,1-2.54-15.07c-.52-5.17,1.62-26.3-3-27.26H59.3c-9.15,0-8.17,21.26-4.13,26.09,2.75,3.29,10.48,2.83,14.62,2.78,7.95-.11,9.48.09,10.9-5.46.51-2,.3-3.78,2.18-5S97.78,89,101.34,92.54c3.24,3.24,4,18.94.81,19.26-2.62.26-44.15.11-46.51,1-4.44,1.6-7.11,4.17-8.29,8.34-1.24,4.38-.3,9.52,5.07,11.86l81.14,0C137.07,129.89,136.68,119.41,135.83,115.32Zm-6.49,14.9c-1.4.31-73.86,2.17-77.52-.21-5.38-2.58-4-10.26,0-13.69,4.88-4.24,12.35-2.92,18.22-2.67,8.63.37,17.18-.08,25.8-.08a26.9,26.9,0,0,0,7.06-.46c2.59-3,2.8-7.6,2.82-11.81,0-5.38-.57-11.73-6.64-13.44A1.89,1.89,0,0,1,98,87.13a87.16,87.16,0,0,0-11.79.29c-1.4.28-5.59,0-6.6,1.13-1.78,2-1,6.44-3.15,8.28-3.82,3.22-12.41,3.69-16.75,1.34-4.77-2.6-6.82-8.13-5.94-13.36,1.08-6.41,5.56-10.22,12.11-10.09,9.13.19,18.27,1,27.41,1.2,7.66.2,28.61-1.24,33.61.24a5,5,0,0,1,4.28,3.51c1.48,4,.68,8.28.28,12.39-.45,4.58.5,9.06,1.07,13.6a106.15,106.15,0,0,1,1.21,14.61C134.14,124.65,133.53,129.31,129.34,130.22Z"/><path class="cls-34" d="M70.12,72.94c-.07.61-.12,1.16-.12,1.28,0,1.59.15,19,.23,21.34.06,2-.07,4.24.14,6.23h.39c.53-3.89.07-23.34.07-26.11,0-.94,0-1.82.08-2.73Z"/><path class="cls-34" d="M74.64,95.63c.07,2,0,4.09.08,6.1l.66,0c.4-6.12,0-23.92,0-28.69h-1C74.4,79,74.57,93.34,74.64,95.63Z"/><path class="cls-35" d="M121.9,105.91a25.14,25.14,0,0,0,5.35-.56c5.67-1.34,2.62-10.5,2.38-14.51a85.83,85.83,0,0,1,.34-9.49c.09-2.1.09-5.35-2.52-5.9-3.94-.83-8.12-.47-12.11-.35-4.41.13-8.82,0-13.24,0s-9.15-.28-13.75-.28c-2.58,0-5.53-.51-8,.45-2.91,1.13-3,5.39-2.79,8,.2,2.9,1.29,6.17,4.65,6.46,3,.25,5.79-1,8.72-1.17,3.2-.14,7.17-.19,10.07,1.41s3.73,5.11,3.89,8.27c.13,2.67-.52,6.9,2.77,7.51,3,.55,6.53.18,9.69.18C118.83,105.9,120.37,105.94,121.9,105.91Z"/><path class="cls-36" d="M99.73,84.45a36.45,36.45,0,0,1,2.48-8.18c.2-.42.42-.82.65-1.22h-.76c-1.86,0-3.72,0-5.58-.1a26,26,0,0,0-2.66,1.7,32.53,32.53,0,0,0-7.44,7.69A32.63,32.63,0,0,0,83,89.73c2.68,0,5.26-1.08,7.94-1.2a25.88,25.88,0,0,1,7.9.55C99.05,87.52,99.41,86,99.73,84.45Z"/><path class="cls-37" d="M112.2,106a19.31,19.31,0,0,0,4.86-4.66,59.36,59.36,0,0,0,6.75-10.11A111.65,111.65,0,0,0,128.7,79.7c.26-.74.57-1.53.88-2.33a2.84,2.84,0,0,0-2.13-1.92c-.61-.13-1.22-.22-1.84-.29-.57.75-1.12,1.5-1.6,2.26a104.36,104.36,0,0,1-6.26,8.93,40.64,40.64,0,0,1-7.49,7.16,28.92,28.92,0,0,1-5.44,3.68c0,.34.06.68.08,1,.13,2.67-.52,6.9,2.77,7.51A24.88,24.88,0,0,0,112.2,106Z"/><path class="cls-38" d="M129.63,90.84a85.83,85.83,0,0,1,.34-9.49c.09-2.1.09-5.35-2.52-5.9-3.94-.83-8.12-.47-12.11-.35-4.41.13-8.82,0-13.24,0s-9.15-.28-13.75-.28c-2.58,0-5.53-.51-8,.45-2.91,1.13-3,5.39-2.79,8,.2,2.9,1.29,6.17,4.65,6.46,3,.25,5.79-1,8.72-1.17,3.2-.14,7.17-.19,10.07,1.41s3.73,5.11,3.89,8.27c.13,2.67-.52,6.9,2.77,7.51,3,.55,6.53.18,9.69.18,1.47,0,3,0,4.54,0a25.14,25.14,0,0,0,5.35-.56C132.92,104,129.87,94.85,129.63,90.84Zm-2.51,12.22c-3,1.26-7,1.15-10.22,1.31-2.69.14-5.36.36-7.8-1s-2.37-4.55-2.66-6.92c-.42-3.53-.94-6.75-4.56-8.4a20.5,20.5,0,0,0-12.27-1c-2.85.69-6.15,1.84-8.84.11-3.6-2.32-3.29-7.72-.56-10.17a7.33,7.33,0,0,1,4.66-1.44c3.16.4,6.17.84,9.38,1,4.58.24,9.21.59,13.8.48,4.37-.11,8.77-.95,13.14-.88,2.26,0,4.8.28,6.39,2.06,1.78,2,0,5,0,7.25-.11,4.35,1.56,8.44,1.61,12.76C129.17,100.18,129.13,102.23,127.12,103.06Z"/><path class="cls-39" d="M70.9,81.9c0-.88-.08-1.76-.08-2.64a16.48,16.48,0,0,1,0-2.11c.09-.58.17-1-.48-1.12s-.84,0-.92.67a21.9,21.9,0,0,0,0,2.69c0,.94,0,1.89.12,2.82,0,.54.09,2,1,1.53C71.28,83.41,70.92,82.49,70.9,81.9Z"/><path class="cls-40" d="M69.69,78.63c0,.38,0,1.4.23,1.65a5.43,5.43,0,0,0,.25-2,7.94,7.94,0,0,0,0-1.29c-.1-.41-.37-.43-.49,0A6.78,6.78,0,0,0,69.69,78.63Z"/><path class="cls-41" d="M77.66,72.19a12.51,12.51,0,0,0-1.5,0c-.26,0-.49-.1-.75-.09s-.55,0-.33.19.34.08.46.09c.41,0,.82,0,1.23,0C77,72.4,77.56,72.48,77.66,72.19Z"/><path class="cls-21" d="M135,83.57c0,1-.33,4.12.69,4.47,1.18.4,1-3.72.92-4.58s-.18-3.28-.73-4C134.91,78.21,135,82.83,135,83.57Z"/><path class="cls-33" d="M130.5,71.44a.48.48,0,0,1-.47.48h-2.37a.49.49,0,0,1-.48-.48h0a.48.48,0,0,1,.48-.47H130a.47.47,0,0,1,.47.47Z"/><path class="cls-21" d="M130,71h-2.37a.48.48,0,0,0-.48.47.49.49,0,0,0,.48.48H130a.48.48,0,0,0,.47-.48A.47.47,0,0,0,130,71Zm.16.64a6.29,6.29,0,0,1-2.38.07c-.37.07-.53-.5-.16-.57h0a14.54,14.54,0,0,1,2.46,0C130.38,71.1,130.4,71.49,130.19,71.61Z"/><path class="cls-42" d="M112.57,99.46a2.67,2.67,0,1,1-2.67-2.67A2.68,2.68,0,0,1,112.57,99.46Z"/><path class="cls-43" d="M112,99.46a2.12,2.12,0,1,1-2.12-2.12A2.12,2.12,0,0,1,112,99.46Z"/><path class="cls-32" d="M108.85,99.5c.17-.25.18-.53.42-.75a3.54,3.54,0,0,1,1-.48c.71-.35.16-.65-.4-.59a2,2,0,0,0-1.46.83C108.15,98.87,108.36,100.17,108.85,99.5Z"/><path class="cls-42" d="M120,99.46a2.67,2.67,0,1,1-2.67-2.67A2.67,2.67,0,0,1,120,99.46Z"/><path class="cls-44" d="M119.49,99.46a2.12,2.12,0,1,1-2.12-2.12A2.12,2.12,0,0,1,119.49,99.46Z"/><path class="cls-32" d="M116.32,99.5c.18-.25.19-.53.42-.75a3.86,3.86,0,0,1,1-.48c.71-.35.17-.65-.39-.59a2,2,0,0,0-1.46.83C115.62,98.87,115.83,100.17,116.32,99.5Z"/><path class="cls-42" d="M127.52,99.46a2.67,2.67,0,1,1-2.67-2.67A2.68,2.68,0,0,1,127.52,99.46Z"/><path class="cls-45" d="M127,99.46a2.12,2.12,0,1,1-2.12-2.12A2.12,2.12,0,0,1,127,99.46Z"/><path class="cls-32" d="M123.8,99.5c.17-.25.18-.53.42-.75a3.54,3.54,0,0,1,1-.48c.71-.35.16-.65-.4-.59a2,2,0,0,0-1.45.83C123.1,98.87,123.31,100.17,123.8,99.5Z"/><path class="cls-42" d="M94.63,84.14a1.34,1.34,0,0,1-1.19,1.45H83.34a1.34,1.34,0,0,1-1.19-1.45h0a1.34,1.34,0,0,1,1.19-1.45h10.1a1.34,1.34,0,0,1,1.19,1.45Z"/><path class="cls-46" d="M94,84.17a1.06,1.06,0,0,1-1.07,1.06H83.85a1.06,1.06,0,0,1-1.08-1.06h0a1.06,1.06,0,0,1,1.08-1.06h9.09A1.06,1.06,0,0,1,94,84.17Z"/><path class="cls-47" d="M93.1,84.17a1,1,0,0,1-.87,1.06H84.87A1,1,0,0,1,84,84.17h0a1,1,0,0,1,.87-1.06h7.36a1,1,0,0,1,.87,1.06Z"/><path class="cls-32" d="M84.33,85c1.92-2.27,5.91-2.07,8.75-1a.93.93,0,0,0-.85-.86H84.87A1,1,0,0,0,84,84.17,1.14,1.14,0,0,0,84.33,85Z"/><path class="cls-48" d="M88.91,84.19a2.7,2.7,0,0,1-.2.86,3.54,3.54,0,0,1-.19-.39,2.28,2.28,0,0,1-.09-.51,1.28,1.28,0,0,1,.25-1,1.36,1.36,0,0,1,.24.94S88.91,84.17,88.91,84.19Z"/><path class="cls-49" d="M88.71,85.05a3.54,3.54,0,0,1-.19-.39,2.28,2.28,0,0,1-.09-.51,1.28,1.28,0,0,1,.25-1Z"/><path class="cls-42" d="M125.27,117.33a7.49,7.49,0,1,1-7.48-7.49A7.47,7.47,0,0,1,125.27,117.33Z"/><path class="cls-50" d="M124.6,116.93a6.82,6.82,0,1,1-7.21-6.41A6.83,6.83,0,0,1,124.6,116.93Z"/><path class="cls-32" d="M114.41,117.65c.52-.82.49-1.74,1.22-2.5a11.41,11.41,0,0,1,3-1.7c2.22-1.26.41-2.12-1.38-1.84a6.58,6.58,0,0,0-4.54,2.93C112.05,115.76,113,119.9,114.41,117.65Z"/><path class="cls-51" d="M111.5,117.17h0a.1.1,0,0,1-.07-.1c.08-.51.17-.63.27-.65s.22.14.31.3a.87.87,0,0,0,.08.14c0,.06.06.06.07.06s0-.09,0-.15a.5.5,0,0,1,.21-.33.16.16,0,0,1,.16,0c.1,0,.16.17.21.31a.51.51,0,0,0,.08.18l0,0a.76.76,0,0,0,.09-.16c.06-.11.12-.25.26-.3s.36.19.42.35,0,.11,0,.13a.08.08,0,0,1,.06.08.07.07,0,0,1-.08.08h0c-.1,0-.14-.11-.19-.23s-.12-.28-.2-.25-.12.12-.17.22a.82.82,0,0,1-.12.2.21.21,0,0,1-.18.08c-.11,0-.16-.15-.21-.29a.74.74,0,0,0-.11-.22c-.08,0-.12.15-.15.25s-.09.24-.19.26a.26.26,0,0,1-.22-.12,1.28,1.28,0,0,1-.1-.17,1.08,1.08,0,0,0-.14-.21,1.86,1.86,0,0,0-.12.51A.08.08,0,0,1,111.5,117.17Z"/><path class="cls-51" d="M114.14,114.74l0-.08a.09.09,0,0,1,0-.12h0a1,1,0,0,0,0-.17,3.8,3.8,0,0,1,.06-.59,7.45,7.45,0,0,0-.87.49l-.09.07,0-.11a1.6,1.6,0,0,1,0-.58c0-.08,0-.15,0-.22l-.21.1a2.07,2.07,0,0,0-.61.34.07.07,0,0,1-.12,0,.09.09,0,0,1,0-.12,2.39,2.39,0,0,1,.67-.38l.32-.15.11-.06v.13a1.59,1.59,0,0,1,0,.37,2.77,2.77,0,0,0,0,.4c.31-.2.65-.36,1-.52l.19-.09-.07.2a2.74,2.74,0,0,0-.1.73,2.45,2.45,0,0,1,0,.27v0l-.05,0Z"/><path class="cls-51" d="M115.34,112.9l-.06,0a.09.09,0,0,1,0-.12l.42-.42-.7.36.62-.72-.86.41.58-.61-.81.4.61-.63-.64.29a.08.08,0,0,1-.11,0,.08.08,0,0,1,0-.11l1.46-.64-.53.54.73-.36-.59.63.77-.37-.59.68.9-.46-1.18,1.18Z"/><path class="cls-51" d="M120,123.28a.08.08,0,0,1-.08-.06l-.8-2.93,2.08,1.88-.78-2.45,1.78,1.41-.83-1.95,1.75,1-.86-1.5,1.44.15-.8-1,1.15-.13-.68-.63.73-.35-.5-.55.53-.52-.29-.42a.08.08,0,0,1,0-.12.11.11,0,0,1,.12,0l.37.53-.51.52.54.6-.72.34.77.7-1.2.14.86,1.06-1.52-.16,1,1.74-1.85-1,.9,2.12-1.87-1.49.8,2.52-2.12-1.91.65,2.38a.09.09,0,0,1-.06.1Z"/><path class="cls-51" d="M118.77,112.61h-.12c-.36,0-.71,0-.82-.21a.21.21,0,0,1,0-.23.33.33,0,0,1,.21-.17.55.55,0,0,1-.28-.19.2.2,0,0,1,0-.21.55.55,0,0,1,.33-.2.69.69,0,0,1-.36-.21.21.21,0,0,1,0-.22c.11-.19.54-.2,1-.2h.07a.08.08,0,0,1,0,.16h-.07c-.68,0-.82.06-.84.11s0,0,0,0,.57.21.89.22v.17c-.29,0-.76,0-.86.2s0,0,0,0,.63.22.84.23v.16h-.14c-.2,0-.55,0-.63.12s0,.07,0,.08.51.12.68.12h.11a.09.09,0,0,1,.08.09A.08.08,0,0,1,118.77,112.61Z"/><path class="cls-51" d="M113.23,119.25a.73.73,0,0,1-.64.73,1.12,1.12,0,0,0-.1-1.59C113,118.51,113.3,118.74,113.23,119.25Z"/><rect class="cls-52" x="71.88" y="104.06" width="0.79" height="0.46"/><path class="cls-52" d="M74,104.24c0,.53-.32,1-.71,1s-.71-.43-.71-1,.32-1,.71-1S74,103.7,74,104.24Z"/><path class="cls-53" d="M70.46,104.78a2.87,2.87,0,0,0,1.51,0c.22-.1.23-.33.22-.59s-.1-.45-.44-.44-.62,0-.93,0-.51,0-.61.29A.6.6,0,0,0,70.46,104.78Z"/><path class="cls-54" d="M70.84,104.39a.52.52,0,0,1-.35-.52.29.29,0,0,1,0-.1.37.37,0,0,0-.31.27.6.6,0,0,0,.25.74,2.87,2.87,0,0,0,1.51,0,.41.41,0,0,0,.22-.39A1.8,1.8,0,0,1,70.84,104.39Z"/><rect class="cls-52" x="71.68" y="109.82" width="0.39" height="0.23"/><path class="cls-52" d="M72.71,109.91c0,.26-.16.47-.35.47s-.35-.21-.35-.47.15-.48.35-.48S72.71,109.65,72.71,109.91Z"/><path class="cls-53" d="M70.49,110.38a2.16,2.16,0,0,0,1.1,0c.16-.08.16-.24.16-.44s-.08-.32-.32-.32-.45,0-.68,0-.37,0-.45.21A.45.45,0,0,0,70.49,110.38Z"/><path class="cls-54" d="M70.76,110.09a.36.36,0,0,1-.25-.38.25.25,0,0,1,0-.07.29.29,0,0,0-.23.2.45.45,0,0,0,.19.54,2.16,2.16,0,0,0,1.1,0,.32.32,0,0,0,.16-.29A1.31,1.31,0,0,1,70.76,110.09Z"/><path class="cls-21" d="M77,115.68c5.6-.14,11.2-.1,16.79-.41,2-.11,5,.22,6.79-.53,1.36-.55,2.3-1.63,1.89-3a1.11,1.11,0,0,1-.3.08c-2.62.26-44.15.11-46.51,1a16.17,16.17,0,0,0-3.7,1.84,11.66,11.66,0,0,0,1.87.6,35.18,35.18,0,0,0,6.56.59C65.92,116,71.44,115.81,77,115.68Z"/><path class="cls-55" d="M75.75,114.63c-.3-.84-.72-1.67-1-2.53-3,0-5.9.07-8.51.13-.31,1.21-.64,2.42-1,3.63,3.61,0,7.21-.07,10.81-.16C76,115.34,75.88,115,75.75,114.63Z"/><path class="cls-56" d="M75.23,113.35l-.57-.07a21.56,21.56,0,0,1-5.44-1.11l-1.29,0a13.23,13.23,0,0,0,5.53,2.5c.82.2,1.65.35,2.48.54-.06-.2-.12-.4-.19-.6C75.6,114.2,75.41,113.78,75.23,113.35Z"/><path class="cls-56" d="M71.16,115.06a8.45,8.45,0,0,1-4.7-2.84h0c-.13.5-.5,2.93-.59,3.64,2.79,0,5.57,0,8.36-.12C73.17,115.55,72.16,115.33,71.16,115.06Z"/><path class="cls-56" d="M69.11,115.82c1.69,0,3.38,0,5.08-.08-1-.19-2-.41-3-.68a8.64,8.64,0,0,1-4.53-2.64A5.33,5.33,0,0,0,69.11,115.82Z"/><path class="cls-57" d="M102.45,111.72a1.11,1.11,0,0,1-.3.08l-.39,0a2.49,2.49,0,0,1-.62,1.13c-1.24,1.33-3.19,1.59-4.92,1.6-2.46,0-4.9-.34-7.35-.21-3.27.17-6.54.16-9.8.19-6.42.06-12.78.64-19.21.32-1.44-.08-3.44.07-4.62-.92a1.13,1.13,0,0,1-.48-.83,16,16,0,0,0-2.82,1.5,11.66,11.66,0,0,0,1.87.6,35.18,35.18,0,0,0,6.56.59c5.55.18,11.07,0,16.61-.11s11.2-.1,16.79-.41c2-.11,5,.22,6.79-.53C101.92,114.19,102.86,113.11,102.45,111.72Z"/><path class="cls-21" d="M71.61,112.14a1.82,1.82,0,0,0,0-.89c0-.09-.43,0-1.06,0a1,1,0,0,1-.41.53,1.31,1.31,0,0,1-.85,0,1,1,0,0,1-.54-.6s-.93-.06-1,.1-.16.82,0,.88Z"/><path class="cls-58" d="M70.42,112a6.15,6.15,0,0,1-2.63-.18.36.36,0,0,1-.12-.08c0,.22,0,.46,0,.49l3.92-.06s0-.21,0-.41A5.25,5.25,0,0,1,70.42,112Z"/><path class="cls-59" d="M71.56,112.17s-1,0-1.24,0h-.19c0-.07.1-.11.13-.18a1.45,1.45,0,0,0,.11-.26c.06-.14.13-.27.28-.31a1.55,1.55,0,0,1,.93.07.3.3,0,0,1,.19.22S71.7,112.11,71.56,112.17Z"/><path class="cls-58" d="M70.75,111.61c-.25.1-.43.57-.43.57h-.19c0-.07.1-.11.13-.18a1.45,1.45,0,0,0,.11-.26c.06-.14.13-.27.28-.31a1.55,1.55,0,0,1,.93.07.3.3,0,0,1,.19.22S71.17,111.44,70.75,111.61Z"/><path class="cls-59" d="M67.67,112.18s1,0,1.25,0l.19,0c0-.06-.11-.11-.14-.18a1.12,1.12,0,0,1-.11-.25.44.44,0,0,0-.28-.31,1.55,1.55,0,0,0-.93.07.3.3,0,0,0-.19.22S67.53,112.12,67.67,112.18Z"/><path class="cls-58" d="M68.49,111.62c.25.1.43.57.43.57l.19,0c0-.06-.11-.11-.14-.18a1.12,1.12,0,0,1-.11-.25.44.44,0,0,0-.28-.31,1.55,1.55,0,0,0-.93.07.3.3,0,0,0-.19.22S68.06,111.45,68.49,111.62Z"/><path class="cls-35" d="M59,118.59a5.76,5.76,0,0,0-.94,2.61,15.25,15.25,0,0,0-.13,4.47c.32,1.56,1.5,2.71,1.63,4.38.53,6.57-10.37,4.79-14.24,5-4.41.2-9-.65-12.27,2.85a27.47,27.47,0,0,0-2,2.66c-3.1,4.22-12.51,1.83-12.87,9-.26,5.29,5.14,9.69,6.68,14.47.64,2,.37,4.45,1.3,6.28,1.44,2.81,5,3.81,6.67,6.59,2.29,3.87,2.34,9,2.37,13.35.05,6.21,0,5.13,3.12,11.3,4,7.78,3.31,17.15,8.17,24.49,7-4.54,11.36-19.16,14.31-27,2.42-6.44-1.51-21.55,6.88-22.64,3.8-7.39-2.19-18.26,2.51-24.78,4.52-6.28,20.55-4.06,27.76-4.54,1.54-.1,3.46.19,4.63-1.15,1.31-1.51-.86-2.62-2-3.4-2.23-1.49-5.54-1.09-7.54-2.67-.76-.59-1-1.72-1.71-2.38-.95-.86-2.21-1.22-3.13-2.15a21.79,21.79,0,0,0-2.28-2.52c-1.06-.82-2.29-1.45-3.36-2.29a9.73,9.73,0,0,1-2.89-3.2c-.71-1.41-.34-2.29-.08-3.73.53-2.8-1.27-4-2.24-6.33a3.93,3.93,0,0,1,0-3c.14-.32,1.63-2.52,2-2.3a5.94,5.94,0,0,0-4.25-.3,27.87,27.87,0,0,1-4.5.63,32.53,32.53,0,0,1-3.56-.19c-.76,0-3.17-.31-3.69.28-.37.42-.15,1.7-.53,2.32-.76,1.23-2.06,2-3.07,3A7.26,7.26,0,0,0,59,118.59Z"/><path class="cls-60" d="M69.12,153.57c-16.71,1.6-33.55.25-50.35-.65,1.39,3.86,4.92,7.34,6.11,11.06.64,2,.37,4.45,1.3,6.28,1.44,2.81,5,3.81,6.67,6.59,2.29,3.87,2.34,9,2.37,13.35.05,6.21,0,5.13,3.12,11.3,4,7.78,3.31,17.15,8.17,24.49,7-4.54,11.36-19.16,14.31-27,2.42-6.44-1.51-21.55,6.88-22.64C71.13,169.66,66.59,160.16,69.12,153.57Z"/><path class="cls-61" d="M69.12,153.57c-16.71,1.6-33.55.25-50.35-.65.11.31.24.61.37.9l.11,0c5.21,1.84,10.73,1.53,16,2.93s10.31,3.76,15.53,5.54c3.39,1.16,7.32,1.91,9.3,5.22,1.26,2.11.57,4.92-.07,7.1-.54,1.81-1.63,4.19-1.5,6.1s.82,4.07,0,5.77a10,10,0,0,0-1.21,6.92,71.93,71.93,0,0,1,.31,7.49,36.3,36.3,0,0,1-.89,9.19c1.63-4.07,3-8.11,4.11-11.14,2.42-6.44-1.51-21.55,6.88-22.64C71.13,169.66,66.59,160.16,69.12,153.57Z"/><path class="cls-62" d="M100.6,142.46c-2.23-1.49-5.54-1.09-7.54-2.67-.76-.59-1-1.72-1.71-2.38-.95-.86-2.21-1.22-3.13-2.15a21.79,21.79,0,0,0-2.28-2.52c-1.06-.82-2.29-1.45-3.36-2.29a9.73,9.73,0,0,1-2.89-3.2c-.71-1.41-.34-2.29-.08-3.73.53-2.8-1.27-4-2.24-6.33a3.93,3.93,0,0,1,0-3c.14-.32,1.63-2.52,2-2.3a4.62,4.62,0,0,0-1.93-.53c-2.75,4.72-6.46,10.62-2.79,15.83,1.79,2.53,4.7,3.46,6.72,5.77,1.51,1.72,2.43,3.93,3.71,5.81A1.93,1.93,0,0,1,84,141.55a27.15,27.15,0,0,1-10,1.57c-3.94.09-6,1.24-9.31,3-5.69,3.13-12.33,2.25-18.58,2.32-9.34.1-18.59.3-27.85.16,0,.14,0,.28-.07.42,18.18,1,36.48,2.6,54.56.28,6.33-3.5,19-1.93,25.17-2.34,1.54-.1,3.46.19,4.63-1.15C103.91,144.35,101.74,143.24,100.6,142.46Z"/><path class="cls-63" d="M193.38,124.82c.35-.56-29.21-2.11-32.63-1.4-16.23,3.36-29.13,18.65-39.38,30.63,11.34,6.36,7.06,38.15,10.13,50,8.55-13,12.79-29.11,20.32-42.75C161.26,144.17,183.31,141.09,193.38,124.82Z"/><path class="cls-64" d="M169.82,138.79c-12.58,6.16-28.06,12-42,7.83-2.25,2.53-4.4,5-6.44,7.43,11.34,6.36,7.06,38.15,10.13,50,8.55-13,12.79-29.11,20.32-42.75,9.43-17.12,31.45-20.21,41.53-36.45A193.24,193.24,0,0,1,169.82,138.79Z"/><path class="cls-65" d="M123.59,151.45l-2.22,2.6c11.34,6.36,7.06,38.15,10.13,50,8.55-13,12.79-29.11,20.32-42.75a35.19,35.19,0,0,1,6.77-8.61C146.94,153.38,135.15,152.6,123.59,151.45Z"/><path class="cls-66" d="M147.51,157.27c-6.2.42-12.55.78-18.74,0-1.47-.18-3-.39-4.52-.69,7.7,9.83,4.47,36.77,7.25,47.48,8.55-13,12.79-29.11,20.32-42.75a32,32,0,0,1,3.13-4.67C152.47,156.88,150,157.1,147.51,157.27Z"/><path class="cls-62" d="M61.65,137.37a123.89,123.89,0,0,0,14.83,1.55c-3.51-3.63-8.79-5-12.16-8.59-1-1.07-1-2.06-1.66-3.15-.92-1.54-1.17-1.51-2.81-2.47a13.21,13.21,0,0,1-2-1.38,8.31,8.31,0,0,0,.09,2.34c.32,1.56,1.5,2.71,1.63,4.38.53,6.57-10.37,4.79-14.24,5-4.41.2-9-.65-12.27,2.85a27.47,27.47,0,0,0-2,2.66,5,5,0,0,1-1.24,1.18,30.47,30.47,0,0,1,3.57-.41c3-.13,12.69,1.25,14.42-1.33-.34-.31-.6-1.09-.79-1.28C51.87,138.56,56.73,136.71,61.65,137.37Z"/><path class="cls-67" d="M43.45,136.67c6.87-.82,14-1.77,20.84-.87a18.25,18.25,0,0,1-4.81-4.32c-1.1,4.86-10.59,3.38-14.15,3.54-4.41.2-9-.65-12.27,2.85a11.06,11.06,0,0,0-1,1.26C35.05,136.45,39.51,136.55,43.45,136.67Z"/><path class="cls-68" d="M64.34,123.45c-6.09,4.94,13.59,10.76,13.51,14.66-.1,4.59-22-.1-20,4.49-2.28,0-7.9-1.55-7.21,2.93-3.63,1.16-8.72-.26-12.42-.82-4.2-.63-9.26-.94-13.36.11,3.23,3.18,8.82,1.87,13,2.08,4.44.21,8.77-.27,13.33-.27,2.21,0,4.35.3,6.15-.78.17-.11,0-1,.5-1.29s1.13-.19,1.61-.38c1-.43,2.23-.63,3.2-1,4.21-1.62,7.69-1.77,12.26-2.2a38.06,38.06,0,0,0,8.48-1.85c-.24-3.14-6.21-5.39-8.45-7.21.14-.17.35-.53.53-.74-1.38-1.48-3.78-1.3-5.42-2.59-2.79-2.2-1.67-2.7-.46-4.81.58-1,1.34-1.37,1.06-2.73-.38-1.8-1.49-1.13-2.41-2.2-1.7-2,0-1.79,1.63-3.66.08-.1-5.28-.22-6.33.59C60.37,118.3,62.22,121,64.34,123.45Z"/><path class="cls-69" d="M54.72,153.83c2.92.15,7.88.69,10.11-1-7.86-.32-15.44-1.45-23.17-2.18-3.95-.38-7.63-.93-11.72-1.13-2.23-.12-6.58-1.4-8.54,0-4.46,3.15,4.67,2.46,6.07,2.46,4.25,0,8,1.21,12.16.61C44.62,151.86,49.71,153.58,54.72,153.83Z"/><path class="cls-61" d="M50.23,216.72c-.4-3-.24-6.23-.4-9.39-.3-6-.34-13.37-2.86-18.78-2.53,3.74-1.42,10.9-4.11,15.21A64.9,64.9,0,0,1,37.37,185c-1-6.69,1-14.64-.95-21.12-3.06,2.46-4.35,6.81-5.7,10.68a8.81,8.81,0,0,1,2.13,2.3c2.29,3.87,2.34,9,2.37,13.35.05,6.21,0,5.13,3.12,11.3,4,7.78,3.31,17.15,8.17,24.49a18,18,0,0,0,5-5.38A13.19,13.19,0,0,1,50.23,216.72Z"/><path class="cls-70" d="M41.56,211.36a3.29,3.29,0,0,0-1.93-.89c-4.39-.44-3.73.94-7-3.16-1.64-2.07-4.07-3.38-4.89-5.77-1.71-5,2.78-13.44-.62-17.68-.47,2.85-1.89,13.41-5.11,13.6-.24-.72-.56-2.75-1.14-3.16-1.47-1-1.73,0-3.24-.59-3-1.12-3.44-2.35-3.13-6.36.38-4.92,3.33-10.68,2.26-15.65.5,2.32-6.78,12.77-8.64,14.54a7.17,7.17,0,0,1-4.47,1.61,28,28,0,0,0-.3,4.74c6.58,1.74,10.44,2.33,14,8,3.29,5.31,4.32,13.57,12.42,9.5C34.57,220.77,38.8,217.66,41.56,211.36Z"/><path class="cls-35" d="M19.09,141.4c.16.22.66.26,1.25.06a26,26,0,0,0,6.48-3.23c1.59-1.14,3.9-2.27,4.87-4a5.85,5.85,0,0,1,3.68-2.87c1.88-.48,3.75,0,5.42-1.28s2.7-3.86.21-4.66a8.13,8.13,0,0,0-3.66.41,8.71,8.71,0,0,0-3.18,2.12c-1.4,1.24-3.29.62-4.87,1.49-1.83,1-1.55,2.65-2.06,4.37-.72,2.39-2.73,4.07-4.81,5.28a18.17,18.17,0,0,0-2.92,1.48C19.07,140.92,19,141.22,19.09,141.4Z"/><path class="cls-71" d="M259.07,127.46c.94-7.16,2-14.31,1.06-21.37-.56-4.3-3.08-11.52-5.88-14.4-6.65,11.57-5.8,26.06-6.91,38.89s-1.93,27.25,4.85,38.74c7.81-5.65,6.21-17.95,5.82-26.13A89.59,89.59,0,0,1,259.07,127.46Z"/><path class="cls-72" d="M260.13,106.09c-.56-4.3-3.08-11.52-5.88-14.4a39.48,39.48,0,0,0-4.06,10.5c1.91,2.69,2.4,6.44,2.68,9.58a90.58,90.58,0,0,1-.52,18.55,120.69,120.69,0,0,1-3.28,17.8,58.43,58.43,0,0,1-1.86,6,40.26,40.26,0,0,0,5,15.23c7.81-5.65,6.21-17.95,5.82-26.13a89.59,89.59,0,0,1,1.06-15.73C260,120.3,261.05,113.15,260.13,106.09Z"/><path class="cls-73" d="M267.6,274.72c-1-.27-4.2.3-5.41.32a8.47,8.47,0,0,1-3.42-1c-1.7,3.07-5.3,5.47-8.32,7.3s-8.94,2.42-9.68,5.94c-1.92,9.09,15.86,3.85,20,2.92,4.86-1.1,10-2.3,9.24-9.08C269.72,278.41,269,275.12,267.6,274.72Z"/><path class="cls-74" d="M267.6,274.72a6.64,6.64,0,0,0-1.93,0c.61,3,.94,5.8-.43,8.74a19,19,0,0,1-5.26,6.71l-.44.33,1.23-.29c4.86-1.1,10-2.3,9.24-9.08C269.72,278.41,269,275.12,267.6,274.72Z"/><path class="cls-75" d="M270,283.53c-2.32,2.23-6.87,3.28-9.48,4-3.24.94-17.32,4.95-19.73-.32v0c-1.92,9.09,15.86,3.85,20,2.92,3.25-.74,7.84-2.12,9.53-3.71C271,285.88,270.61,283.71,270,283.53Z"/><path class="cls-71" d="M257.1,228c2.2,12.75,3.17,27.08,1.5,46.94-3.68,4,4.77,4.2,9.25,1.37,1.57-10.34,5.22-35.47,3.76-46.12A78.09,78.09,0,0,0,257.1,228Z"/><path class="cls-76" d="M254.83,289.88c-2.54.45-6.94,1-9.33.61s-4.41-1.09-4.78-2.85c-1.37,8.58,16,3.48,20,2.56,3.25-.74,7.84-2.12,9.53-3.71.56-.52.38-2.16-.06-2.75C269.36,286.19,260.29,288.92,254.83,289.88Z"/><path class="cls-77" d="M263.91,228.67a36.89,36.89,0,0,1,2.8,9,56.44,56.44,0,0,1,1,18.38,70.67,70.67,0,0,1-6.1,22.12,13.72,13.72,0,0,0,6.29-1.88c1.57-10.34,5.22-35.47,3.76-46.12C269.19,229.64,266.56,229.09,263.91,228.67Z"/><path class="cls-73" d="M295.58,276.12c-1-.12-4.1.93-5.3,1.14-1.41.24-2.19-1-3-1.15a37.67,37.67,0,0,1-7.64,9.14c-2.64,2.21-8.47,3.75-8.67,7.33-.53,9.28,16.25,1.42,20.21-.13,4.64-1.82,9.5-3.77,7.76-10.37C298.23,279.45,297.06,276.31,295.58,276.12Z"/><path class="cls-74" d="M295.58,276.12a5.8,5.8,0,0,0-1.62.22c2.44,5.51,1,11.1-2.23,15.89,4.47-1.77,8.87-3.82,7.2-10.15C298.23,279.45,297.06,276.31,295.58,276.12Z"/><path class="cls-75" d="M299.28,284.47c-2,2.55-6.3,4.28-8.77,5.43-3.05,1.41-16.37,7.49-19.55,2.66v0c-.53,9.28,16.25,1.42,20.21-.13,3.1-1.21,7.43-3.27,8.86-5.1C300.58,286.65,299.92,284.55,299.28,284.47Z"/><path class="cls-76" d="M286.94,292.18c-3.81,1.32-13.19,5.29-16,1,.22,8.34,16.34.8,20.21-.72,3.1-1.21,7.43-3.27,8.86-5.1a2.35,2.35,0,0,0,0-2C296.83,288.14,290,291.13,286.94,292.18Z"/><path class="cls-71" d="M283.15,230.11c4,10.66,6.69,29.33,4,46.79-3.47,4.18,5,3.94,9.31.87,1-10.41,3.32-35.69,1.28-46.25A77.12,77.12,0,0,0,283.15,230.11Z"/><path class="cls-77" d="M290.55,230.48c4.75,9.34,5,20.38,4.17,30.7-.5,6.2-1,12.44-2.83,18.43,0,0,0,.08,0,.12a13.31,13.31,0,0,0,4.62-2c1-10.41,3.32-35.69,1.28-46.25C295.48,231.14,293,230.75,290.55,230.48Z"/><path class="cls-78" d="M253.11,205.28c.86,9.28,2.24,18.06,2.24,30.88,4.56,2.5,13.63,3.27,20.67.31,1-6.11-3.42-25.7-4.07-31.06s.08-43.61.67-44.1c.23-.19,4.24,1.75,4.73,2,.18,3.19.19,33.79,1.89,44.4,1.87,11.71,3.91,21.29,3.91,28.44,0,0,2.54,2.66,9,2.49,4.88-.13,8.85-1,11.51-4.12,0-3.51-2.42-10-3-13.52-2.2-12.8-1.79-13.18-1.32-23.07.51-10.7,2-24.49,2.51-35.26.41-8.26.64-27.59-8.78-31.57-4.92-2.08-11.32,3.18-16.29,3.68-6.07.61-15.71-3.76-21,.26-4.83,3.65-5.56,26.91-5,37.43s1.46,21.83,2.41,32.26C253.08,204.92,253.09,205.1,253.11,205.28Z"/><path class="cls-79" d="M274.2,148.27c2.41-.38,9.67-2.35,11.26.7,1.34,2.6,0,4-.48,6.67s1.68,5.6,2.35,8c2,7.23.5,15.28.85,22.74,1.64-.25,3.3-.11,5-.46a.89.89,0,0,1,1.07.61c.78,3.79-.24,7.14-1.67,10.65-.53,1.28-5.36,10.85-3.08,11.62,5.18,1.75,5,6.52,3.14,10.74,8.43,2.65,5,11.8-.11,19.11,4.71-.16,8.55-1.1,11.14-4.1,0-3.51-2.42-10-3-13.52-2.2-12.8-1.79-13.18-1.32-23.07.51-10.7,2-24.49,2.51-35.26.41-8.26.64-27.59-8.78-31.57-4.92-2.08-11.32,3.18-16.29,3.68-6.07.61-15.71-3.76-21,.26-1.13.85-2,2.79-2.75,5.38C258.32,145.67,266.72,149.47,274.2,148.27Z"/><path class="cls-79" d="M272.62,161.31a10.56,10.56,0,0,1,2.63,1c1.16-3.81-5.89-3.3-9.32-3.31,2.24,7.25.12,15.78.46,23.22s-3.66,13.61-4.68,20.79a25.35,25.35,0,0,0,3.43-.44.88.88,0,0,1,1.07,1.07c-.56,3-.15,6.11-.54,9.14,2.38.78,4,2.38,3.39,5.22-1.06,4.73-3.12,8.26-2.84,13.33.12,2.24.56,4.68.53,7a26.09,26.09,0,0,0,9.27-1.89c1-6.11-3.42-25.7-4.07-31.06S272,161.8,272.62,161.31Z"/><path class="cls-80" d="M253.18,55.91c.53.87,1.26,1.58,1.79,2.43a15.9,15.9,0,0,0,2.36,2.37,18.52,18.52,0,0,1,3-1,23.37,23.37,0,0,1,3.66-.25,103.26,103.26,0,0,1,10.41-.06c2.62.22,5.27.31,7.84.57,1.13.11,4.86.13,4.86,1.91.5-.86,2.15-1.54,3.05-1.94s2-.67,3-1c.71-.24,1.3-.72,2-1a15.51,15.51,0,0,0,1.93-.63c.75-.38,1.53-.69,2.27-1.13,2.51-1.5,5.52-3.06,7.16-5.63s1.42-6.6,1-9.53c-.68-5-1-11.47-4.81-15.27A44.47,44.47,0,0,0,278.46,13.4C270,12.1,262.52,12.26,256.4,19a24.67,24.67,0,0,0-5.79,12.06c-.79,4-2.85,8-2.24,12.17a25.74,25.74,0,0,0,2.7,7.74,13.64,13.64,0,0,1,1.44,3.28A5.12,5.12,0,0,0,253.18,55.91Z"/><path class="cls-81" d="M299,132.56c-1.39-4-2.61-7.83-3.69-11.89-1.4-5.28-1.33-10.24-1-15.63a36.89,36.89,0,0,1,.7-5.46c.1-3.19.23-6.37.41-9.57,0-.24-.07-.48-.11-.72-1.89-2.4-2.51-5.65-2.39-9.08a37.59,37.59,0,0,1,.78-6.17c.27-1.39,1.48-4,.86-5.23s-3.7-2.64-4.93-3.36A23.69,23.69,0,0,0,284.21,63a38.69,38.69,0,0,0-6.67-1.64c-5.86-.57-10.76,1.77-15.62,4.69a10.79,10.79,0,0,0-3,2.4,16.16,16.16,0,0,0-2.21,3.56c-.91,1.93-2.05,3.8-2.87,5.8a5.81,5.81,0,0,0-.6,2.93,24.7,24.7,0,0,1,.65,2.6,6.43,6.43,0,0,1-.91,2.47c-1,2.19-2.58,4.15-2.29,6.71.47,4.11,2.92,6.58,4.17,10.12.94,2.66.63,13.4.42,15.66-.27,2.86-.09,5.8-.58,8.61a37.3,37.3,0,0,1-1.37,6.56c-.68,1.79-1.95,3.33-2.49,5.19a22.75,22.75,0,0,1,8.32,2.71c2.81,1.46,6.59,1.69,9.66,2a105,105,0,0,0,10.65.14c3.39,0,6.35-1.74,9.72-2a30.5,30.5,0,0,0,8.16-2c1-.39,2.87-1,3.39-2.09C301.48,135.86,299.49,134,299,132.56Z"/><path class="cls-82" d="M271.08,64.73c.84-.4,3-.69,3.43-1.65.33-.8-.22-1.31-1-1.62-4.17.51-7.91,2.4-11.63,4.63a10.79,10.79,0,0,0-3,2.4,16.07,16.07,0,0,0-1.78,2.69,2.18,2.18,0,0,0,1,1.09c2.4-2.49,5.52-3.81,8.53-5.29C268.19,66.26,269.65,65.43,271.08,64.73Z"/><path class="cls-82" d="M294.5,88.1h0c-.17-.29-.32-.59-.46-.89h0a.78.78,0,0,1-.05-.14h0q-.21-.51-.39-1s0,0,0,0v0c-.12-.39-.22-.78-.31-1.18-1.87,27.77-4.78,23.59-5.35,27.7-.33,2.3,2.46,3.76,2.45,4.56,0,2.09-3.39,1.94-3.1,4,.36,2.5,1.65,3.68.32,6.06a7.48,7.48,0,0,1-4.18,3.49c-1.54.61-4.16,1.7-5.12,3,2.34.65,6.25-.41,8.58-1.14,1-.3,2.05-1.19,3-.74,1.74.85-.79,4.67-1.6,5.52a7.86,7.86,0,0,1-4.55,2.14c-1.54.31-2.87.83-4.43,1.06-1,.15-3.1.3-3.74,1,2.11.91,5.66-.1,7.89-.21s4.38.12,6.59.1a31.34,31.34,0,0,0,7.37-1.91c1-.39,2.87-1,3.39-2.09.72-1.54-1.27-3.42-1.77-4.84-.8-2.3-1.54-4.56-2.24-6.83-.56-1.66-1-3.37-1.45-5.06-.1-.39-.18-.78-.27-1.16s-.12-.49-.17-.73h0l0-.09a39.47,39.47,0,0,1-.88-10.17c.06-1.17.25-2.31.32-3.47a36.89,36.89,0,0,1,.7-5.46c.1-3.19.23-6.37.41-9.57,0-.24-.07-.48-.11-.72a9.72,9.72,0,0,1-.77-1.16Z"/><path class="cls-83" d="M290.17,125.67c1.69-.22,2.8-.33,4,1.47.89,1.3-.2,4.5-.6,5.78a13.53,13.53,0,0,1-6.08,7.34,43.56,43.56,0,0,0,13.37-3.39c.15-1.43-1.47-3.05-1.91-4.31-.8-2.3-1.54-4.56-2.24-6.83-.56-1.66-1-3.37-1.45-5.06-.1-.39-.18-.78-.27-1.16s-.12-.49-.17-.73h0l0-.09a39.47,39.47,0,0,1-.88-10.17c.06-1.17.25-2.31.32-3.47a36.89,36.89,0,0,1,.7-5.46c.1-3.19.23-6.37.41-9.57,0-.24-.07-.48-.11-.72a9.72,9.72,0,0,1-.77-1.16v0h0c-.17-.29-.32-.59-.46-.89a.78.78,0,0,1-.05-.14h0q-.21-.51-.39-1s0,0,0,0v0c-.12-.39-.22-.78-.31-1.18-.24,3.56-.5,6.59-.76,9.18,1.68,3.27,0,10.13-.31,12.67-.4,3.51.34,6,.91,9.39a5.79,5.79,0,0,1-.2,2.62C292.49,121.24,291.19,123.3,290.17,125.67Z"/><path class="cls-82" d="M275.67,143.32c-2.39-.68-4.73-.92-7.14-1.38a17.94,17.94,0,0,1-3.57-1.16c-1-.42-3.2-.56-3.34-1.89,1.79,0,3.78.79,5.66.86,3,.1,6.05,0,9.08-.14,2.46-.13,6.72,0,8.21-2.53-.34-.11-.53,0-.89,0-1.59-.08-3.37.65-5,.83-2,.24-4.19.79-6.16.44s-3.7-.7-5.53-1.06c-1.57-.31-4.09-.29-5.19-1.48,1.17-.07,2.59.14,3.33-.94-.79,1.16-6.86-3.6-7.39-4.31-2.47-3.3,0-5.72,3.37-6.42-3.82-.17-5.36-3.45-4.27-4.12,1.87-1.15-1.58-1.67,0-11.24.43-2.62.52-5.31-.88-7.69-1.1-1.85-2.5-3.47-3.66-5.28a14.92,14.92,0,0,1-1.62-3.18,13.22,13.22,0,0,0,.24,1.31c0,.19.1.36.15.54s.14.5.22.73.13.36.2.53.19.47.29.7l.21.45c.13.28.27.57.42.85l.1.19a35,35,0,0,1,2.33,4.76,26,26,0,0,1,.63,6.7c0,1.89,0,3.84,0,5.47V115l0,.79c0,.11,0,.22,0,.32s0,.26,0,.39,0,.39,0,.57a1.41,1.41,0,0,0,0,.2c0,.21,0,.39,0,.56v.07c0,.19,0,.35,0,.48v.06c0,.32,0,.63-.05.93a.52.52,0,0,1,0,.11c-.08,1.39-.1,2.79-.18,4.18,0,.43,0,.86-.08,1.29,0,.13,0,.26,0,.39q-.08.83-.21,1.65a37.3,37.3,0,0,1-1.37,6.56c-.68,1.79-1.95,3.33-2.49,5.19a22.75,22.75,0,0,1,8.32,2.71c2.81,1.46,6.59,1.69,9.66,2a62.38,62.38,0,0,0,7.61.17C276.19,143.48,275.92,143.39,275.67,143.32Z"/><path class="cls-82" d="M293.07,77.85q.21-1.92.6-3.81c.27-1.39,1.48-4,.86-5.23s-3.7-2.64-4.93-3.36A23.69,23.69,0,0,0,284.21,63c-1.33-.38-2.69-.81-4.07-1.15-2.95.92-3.81,3.91-.15,5a20.55,20.55,0,0,1,3.54,1c4.73,2.25,7.5,6.41,9.39,11.12C293,78.67,293,78.28,293.07,77.85Z"/><path class="cls-82" d="M259.6,67.79c-.22.21-.43.44-.66.7a16.16,16.16,0,0,0-2.21,3.56c-.91,1.93-2.05,3.8-2.87,5.8a5.81,5.81,0,0,0-.6,2.93,24.7,24.7,0,0,1,.65,2.6,2.83,2.83,0,0,1-.27,1.13c.84-.34,2.35-3.67,2.52-4.18.92-2.84,1.09-5.85,2.26-8.62a23.14,23.14,0,0,1,2.23-4.41Z"/><path class="cls-84" d="M258.94,68.49c-.31.38-.59.77-.86,1.17s-.29.58-.42.88c-1.14,2.66-1.37,5.31-2,8.06a27.74,27.74,0,0,1-.77,2.7c-.22.61-.73,1.32-1,2,0,0,0,.07,0,.11a3.82,3.82,0,0,1-.49,1.63,21.88,21.88,0,0,0,2.74-4.68c.9-2.77,1.46-5.67,2.11-8.48.45-1.94,1.78-3.41,2.66-5.13A9.63,9.63,0,0,0,258.94,68.49Z"/><path class="cls-82" d="M285.73,96c-2.4,1.79-3.75,2.18-8.34,3.33,2.35,1.4,7.59-.79,9.46-2.4,2.14-1.86,3.39-5.48,3.66-8.25C289.23,91,287.81,94.49,285.73,96Z"/><path class="cls-85" d="M269.18,54.69c-.06-.19-.11-.38-.17-.57v.55Z"/><path class="cls-72" d="M266.9,64.27a2.32,2.32,0,0,0,0,.24c.09.8.18,1.6.26,2.39a10.16,10.16,0,0,0,1.16,4.33c.7,1.07,2.29.72,3.36.54,4.84-.84,8.82-3.81,11.85-7.53,0,0-1.66-3.3-1.74-3.73-.16-1,.81-3.44.18-4.23-.49-.62-1.9.51-2.36.74a13.63,13.63,0,0,1-4.2,1,12.49,12.49,0,0,1-3.9-.6,14.41,14.41,0,0,1-2.26-.38A6.49,6.49,0,0,1,267.63,56a15.53,15.53,0,0,0,.41,2.36,14.89,14.89,0,0,1,.21,3.19,2.58,2.58,0,0,1-.56,1.49C267.26,63.5,266.91,63.64,266.9,64.27Z"/><path class="cls-71" d="M253.93,45.11a17.17,17.17,0,0,0,3.47,9.33,41.68,41.68,0,0,0,5.05,5.16c5.15,4.38,13.28,3.19,19.09.67a19,19,0,0,0,8.92-8.39c3.1-5.44,4.42-12.12,5.53-17.36,1.07-5.07-1.11-10.44-1.06-13.83-4.23-1.67-8.32,2-12.28-1.23-3.33-2.76-5.61-6.7-10.23-7.53-2.45-.44-4.65.31-6.87,1.18-10,3.91-14.67,11-10.77,21.55A7.43,7.43,0,0,1,255,40,11.49,11.49,0,0,0,253.93,45.11Z"/><path class="cls-77" d="M294.68,20.79c-1.05-2.6-2.64-1-5.63-1.21-3.67-.3-7.09-3.74-10.62-5A30.22,30.22,0,0,0,266,12.87c-11.59,1-14.94,11.78-11.26,21.79A7.43,7.43,0,0,1,255,40a14.67,14.67,0,0,0-1,3.45c.05-.15.1-.29.16-.43.52-1.27,1.36-2.48,2-3.73.93-1.82-.86-5.34,0-7.7a18.07,18.07,0,0,1,5-6.76,22.92,22.92,0,0,1,3.93-3.15c2.22-1.11,2.64-.36,4.66.92,6.76,4.26,15.94,5.92,18.8,14.47,1.56,4.69,3.09,11.69,1,16.38.32-.5.64-1,.94-1.52,3.1-5.44,4.42-12.12,5.53-17.36.83-3.91,0-9-1-12.86A8,8,0,0,0,294.68,20.79Z"/><path class="cls-86" d="M258.2,32.24l.06,0c.46-.48,2.11-.54,3-.57,1.46-.06,1.33-.23,2-1a26.91,26.91,0,0,0-3.36,0C259.19,30.87,257.51,32,258.2,32.24Z"/><path class="cls-86" d="M278.83,31.47c.65.75.51.92,2.07,1,.94.05,2.69.13,3.15.63l.07,0c.75-.27-1-1.38-1.71-1.53A30.55,30.55,0,0,0,278.83,31.47Z"/><path class="cls-87" d="M280.21,40.43c3.88,1.89,5.74-5.57,1.58-7C278.25,32.13,277.75,39.2,280.21,40.43Z"/><path class="cls-88" d="M280.9,35c-1.61,1-1.17,3.47-.41,4.3a3.45,3.45,0,0,0,1.69.1c.4-.07,1-.27,1.14-.77C284.44,36.45,282.49,34,280.9,35Z"/><path class="cls-89" d="M280.88,37.09c.57.26.76-.36.24-.68C280.66,36.32,280.42,36.87,280.88,37.09Z"/><path class="cls-90" d="M284,38.48c1.15-1.43,0-3.94-1.3-4.93-1.52-1.16-4-.47-3.32,1.8,1.52-3.48,6.44.32,4.39,2.89Z"/><path class="cls-90" d="M279.84,40.33c.55.93,1.6.58,2.39.3,1-.35,1.43-.7,1.53-1.83l-.06-.14C283.2,40.36,281.32,40.35,279.84,40.33Z"/><path class="cls-87" d="M259.54,32.89c-4.2,1.35-2.43,9.44,1.37,7.09l.44.1C263.22,38.81,263.11,31.74,259.54,32.89Z"/><path class="cls-88" d="M258.15,38.42a1.34,1.34,0,0,0,1.12.8,3.32,3.32,0,0,0,1.7,0c.78-.81,1.29-3.27-.29-4.32S257.09,36.26,258.15,38.42Z"/><path class="cls-89" d="M259.05,37c.47-.2.25-.76-.22-.67C258.3,36.59,258.48,37.22,259.05,37Z"/><path class="cls-90" d="M262,35c.73-2.24-1.71-3-3.26-1.89-1.33,1-2.55,3.43-1.44,4.89l.24-.23C255.52,35.11,260.54,31.46,262,35Z"/><path class="cls-90" d="M257.46,38.43c.06,1.13.46,1.49,1.47,1.89.78.29,1.82.66,2.4-.25-1.48,0-3.36-.06-3.82-1.78Z"/><path class="cls-77" d="M293.45,40.32a4.4,4.4,0,0,0-1,1.39c-.37.81-.62,1.71-1,2.47-.55,1.22-1.82,4.25.27,4.83,1.82.51,3.41-2.29,4-3.57s3.11-4.45,1.73-5.8C296.56,38.69,294.33,39.52,293.45,40.32Z"/><path class="cls-90" d="M261.88,51.63c.11.32.33.32.37,0a1.35,1.35,0,0,1,.19-.71c.2-.22.59-.2.74-.49C262.55,49.94,261.71,51.05,261.88,51.63Z"/><path class="cls-90" d="M274.54,50.62c.26.21.6,0,.88.14s.34.38.45.57.4.21.36-.12C276.15,50.6,274.93,50,274.54,50.62Z"/><path class="cls-91" d="M264.68,44.12c.36,1.82,2,2.17,3.72,1.85a6.14,6.14,0,0,0,2-.57,2.87,2.87,0,0,0,.91-2.09c0-1.26-2.83-1.59-3.83-1.24l.21-.1C266.26,42.07,264.19,41.64,264.68,44.12Z"/><path class="cls-92" d="M265,42.48a13.48,13.48,0,0,1,5.36-.26c-1.54-.52-4.11-1-5.47.26Z"/><path class="cls-90" d="M268.08,46.62c1.78-.07,4.19-1.61,3.25-3.46.48,3.49-7.73,3-6.66-.1C263.71,45.38,266.3,46.7,268.08,46.62Z"/><path class="cls-90" d="M262.41,51a4.72,4.72,0,0,0,2.76,2.22,9.22,9.22,0,0,0,3.55.41,13.65,13.65,0,0,0,3.56-.67,14.37,14.37,0,0,0,3.35-1.62,9.7,9.7,0,0,1-6.86,3.26,8.35,8.35,0,0,1-3.88-.68A4.22,4.22,0,0,1,262.41,51Z"/><path class="cls-93" d="M282.07,27.25c4.17,2.7,6.81,6.26,7.77,12.66,1.11,7.44-.78,15.1-2.77,22.22.37-1.2,10.54-3,12.2-3.76,6.52-2.9,9.39-7.37,10.29-14.27.36-2.77-.2-5.51-.52-8.12-1-8.12-5.8-19.84-12.33-25.1s-18.85-7.55-26.45-3.79c-1.93,1-2.91,1.81-5,2.11-11.4,1.61-16.44,11.17-18,21.86a48.13,48.13,0,0,0,0,9.45c.11,2.48-.27,4.78.47,7.25,1.59,5.26,5.8,9.29,9.67,13-7.52-7.11-6.09-21.2-2.45-29.71a22,22,0,0,1,5.5-7c.49-.45,6.36-6.26,5.75-6.55,1.24.6,2.54,2.41,3.86,3.36a29.43,29.43,0,0,0,5.52,3.15A42.17,42.17,0,0,1,282.07,27.25Z"/><path class="cls-71" d="M294,148.52a35.94,35.94,0,0,1-1.9,10.79c-1.13,3.1-3.26,6.61-2.64,10,0,.2,2.63-3.84,2.78-4,1.8-1.48,2.31.49,1.89,2.47-.37,1.72-6.19,8.74-.75,7.92,3.66-.55,7.51-4.5,8.6-7.95s-.5-8.22-.12-12c.75-7.51,2.59-14.85,3.74-22.3s1.15-14.42,1.15-21.8c0-3.7.32-7.7-.6-11.31-1.26-5-6.48-4.62-10.25-2.23-2.65,1.69-1.06,6.18-.74,9.44a64.47,64.47,0,0,1,.24,8.93Q294.77,132.54,294,148.52Z"/><path class="cls-72" d="M293.57,157.48c4-8.92,4.51-17.52,4.93-27.19.29-6.69-1.12-13.87.36-20.45,1.11-5,3.79-5.35,7.79-6.22a19.6,19.6,0,0,0-.52-3.26c-1.26-5-6.48-4.62-10.25-2.23-2.65,1.69-1.06,6.18-.74,9.44a64.47,64.47,0,0,1,.24,8.93q-.61,16-1.4,32a35.94,35.94,0,0,1-1.9,10.79c-.92,2.53-2.51,5.33-2.72,8.14C290.31,163.91,292.3,160.35,293.57,157.48Z"/><path class="cls-82" d="M294.3,68.59a16.51,16.51,0,0,0-2,3.84,26.45,26.45,0,0,0-1.56,4.91,20,20,0,0,0,.35,10.18c1.81,5.14,2,9.71,2.25,15.18,2.84,1.56,10.29,1.56,13.48-1.29-.69-5.47-1.26-10.73-2.79-16-1.62-5.56-4.93-13.33-9.62-17Z"/><path class="cls-84" d="M291.67,80.35a22.92,22.92,0,0,1,1.95-6.57c.15-.34,1.2-2.49,2.11-4.16a14.33,14.33,0,0,0-1.32-1.18l-.11.15c-.12.16-.21.31-.32.47-.52,1-1,2.07-1.55,3.11a3.73,3.73,0,0,0-.16.35,26,26,0,0,0-1.49,4.65c0,.12,0,.23-.07.35l-.09.55a22,22,0,0,0,0,7.64l0,.09c.05.24.11.48.17.72s.18.67.29,1c.29.82.58,1.62.85,2.42A34.36,34.36,0,0,1,291.67,80.35Z"/><path class="cls-94" d="M252.23,29.3c3.41-4.84,12.15-8.52,11-15.56-.23.17-.41.39-.63.56-1.2-.8-1.05-2.3-.24-3.41-5.41.73-10.69,7.26-12.62,11.9,1-2.3,3.64-4.17,5.87-4.87-.74,2.37-2.78,5.08-3.95,7.4a14.7,14.7,0,0,1,3.38-3.3C255,24.32,253,27,252.23,29.3Z"/><path class="cls-94" d="M275.5,21.84c6.35,4.59,13.37,7.85,16.64,15.68-1.47-3.53-2-7.68-3.34-11.31a32.37,32.37,0,0,1,3.81,4.26c.33-3.24-2.38-6.92-2.92-10.08a23.82,23.82,0,0,1,8.4,5.69c-.2-3.61-3.73-6.76-4-10.08,1,.42,2.18,1.44,3.19,1.85,0-5-5.34-8.78-9.81-9.84-3.62-.86-11.65-3.45-14.5,0,1.55,0,3.65.27,4.05,1.92a7.89,7.89,0,0,0-3.21.39,5.37,5.37,0,0,1,1.85,2.34c-2.5-.58-4.75-1-7.33-.15,1.45,1.39,5.53,2.59,5.67,4.83,0,.15-5.89-1.57-6.53-1.56,2.17,0,4.52,3.37,6.1,4.64C274.2,20.88,274.84,21.37,275.5,21.84Z"/><path class="cls-95" d="M255.4,45.09c1,1.35,3,1.21,4.53.72s4.6-2.54,2.6-4.21c-.87-.73-2.89.09-3.91.07-1.78,0-4.62-.29-3.55,2.77A2.83,2.83,0,0,0,255.4,45.09Z"/><path class="cls-95" d="M278.34,46.61c2.05.86,7-.25,5.71-3.51-.56-1.39-1-.79-2.33-.64-1.85.2-5.42-1.83-7-.72C272.71,43.21,277.14,46.11,278.34,46.61Z"/><path class="cls-96" d="M374.9,279.62c-2.79.79-4.31,4.05-6.54,5.66-3.29,2.38-7.51,3.71-11.45,4.62a29.16,29.16,0,0,1-7,.94,11.78,11.78,0,0,1-3.34-.48c-.72-.22-1.9-1.15-2.64-1.08-1.84.19-1.24,2.09-.2,3.17a3.23,3.23,0,0,0,.57.49c4.57,2.91,10.43.66,15-.91,2.48-.86,4.7-2.33,7.09-3.4.85-.38,4.25-2.67,4.33-.77,2.47-.41,6.23-.93,6.89-3.76C378.07,282.37,377.36,278.93,374.9,279.62Z"/><path class="cls-97" d="M359.94,277c-4.14,1.79-22.26,10-15.32,14.25,6.53,4,24.55-4.65,31.61-9.18,3.18-2,.56-13.95-1-16.47l-11.85-.18C365.07,269.06,366.52,274.11,359.94,277Z"/><path class="cls-98" d="M359.94,277c-4.14,1.79-22.26,10-15.32,14.25a6.21,6.21,0,0,0,1,.47c0-3.6,4.32-6.6,7.69-8.12,4.29-1.92,8.76-3.85,12.06-7.51,2.79-3.09,4.28-6.77,2.36-10.6l-4.35-.07C365.07,269.06,366.52,274.11,359.94,277Z"/><path class="cls-99" d="M374.31,273.62c.07,6.26-7.44,9.43-12.88,12.3-5,2.62-13.16,4.81-17.76,1.35,0,0,0,0-.05,0-.91,1.47-.81,2.86,1,4,6.53,4,24.55-4.65,31.61-9.18,3.18-2,.56-13.95-1-16.47l-1.46,0a1.83,1.83,0,0,1,.5,1.27c.06,2.29.59,4.54.07,6.79Z"/><path class="cls-96" d="M419.88,277.48c-2.83.72-6.61,4.78-8.52,6.88-2.84,3.12-7.55,4.6-11.65,5.17-1.61.22-6.12.15-6.46,2.38-.29,1.88,3.63,3,4.93,3.42a17,17,0,0,0,6.86,1,15.89,15.89,0,0,0,6.32-1.78c3.09-1.59,4.95-7.89,8.48-7.91.87,1.79,5.07-2.76,5.33-3.94A4.48,4.48,0,0,0,419.88,277.48Z"/><path class="cls-97" d="M394.88,292c6.3,4.59,14.85,3.67,19.16-2,2.76-3.64,8.25-6.93,9.7-9.87,2.48-5-3.52-8.06-4.54-13.83l-10.42-.73c1,3,.48,10-3.35,15.73C402.91,285,390.17,288.52,394.88,292Z"/><path class="cls-98" d="M394.88,292l.38.25c1.81-2.7,5.57-4.7,8.4-6.17,7.34-3.83,9.91-12.45,8.89-20.26l-3.77-.26c1,3,.48,10-3.35,15.73C402.91,285,390.17,288.52,394.88,292Z"/><path class="cls-99" d="M414.43,284.31c-5.11,4.21-13,9-18.77,3.6-1.8,1.37-2.6,2.71-.78,4,6.3,4.59,14.85,3.67,19.16-2,2.76-3.64,8.25-6.93,9.7-9.87,2.48-5-3.52-8.06-4.54-13.83l-2-.14c.26,3.37,2.15,6.45,2.29,9.88C419.6,279.58,417,282.18,414.43,284.31Z"/><path class="cls-100" d="M416.16,61.05a10.7,10.7,0,0,0,.45,1.46c.32.94.72,2.22,1.91,2.12,1.35-.12,2.42-1.7,2.93-2.82a2.44,2.44,0,0,0-1.07-3.4c-.88-.5-2.82-1.49-3.76-.71-.71.58-.31,1.51-.38,2.28A2.73,2.73,0,0,0,416.16,61.05Z"/><path class="cls-101" d="M370.39,69.61c-3,1.28-6,2.73-9.06,4.06-1.14.5-2.29,1-3.44,1.43-9,3.55-18.26,4.46-27.53.85-3-1.17-8.73-5.65-13.45-6.7-2.3-.52-4.61,2.58-5.14,4.83-1.1,4.68-.22,8.66,6.41,12.63,7.05,4.23,18.13,8,29.15,7.18,14.09-1.07,25.69-6.43,32.3-9.89,7.13-3.73,11.19-7.71,8.66-15.61C385.2,58.75,375.94,67.24,370.39,69.61Z"/><path class="cls-102" d="M367.39,83.49c-.78-.4-.25-1.56-1.42-1.61s-1,1.12-1.4,1.85-1,1.53-1.89,1.08c-.73-.37-.68-1.71-1.2-2.24-2.14-2.21-3.42,1.86-5.49,1.68-1.27-.12-1.6-1.3-2.76-1.71-2.35-.83-4.28.35-5.58,2.15-.89,1.24-1,2.61-2.61,2.5s-2.75-1.2-4.27-.55c-1.08.46-1,1.08-2.39.73a15.36,15.36,0,0,1-3.8-1.41c-3-1.57-6.39-1.78-9.45-3.1-2-.87-2.1-1.49-2.75-3.46A20.73,20.73,0,0,0,318.05,72c-2.72-2.88-5.4-1.61-6.28,2.11-1.1,4.68-.22,8.66,6.41,12.63,7.05,4.23,18.13,8,29.15,7.18,14.09-1.07,25.69-6.43,32.3-9.89,7.13-3.73,11.19-7.71,8.66-15.61-2-6.1-6.38-4.94-10.77-2.66-1.22,2.2-1,5-2.26,7.18-1.34,2.43-4.49,1.7-5.55,4.44a7.16,7.16,0,0,0-.57,2.53c0,.84.7,1.69.39,2.53S368.08,83.85,367.39,83.49Z"/><path class="cls-103" d="M338.72,91.49c-1.77-.76-3.49-1.68-5.24-2.5-3.24-1.53-6.68-3-10.33-3.12a4,4,0,0,1-3.36-1.43c-.52-.69-.63-1.52-1.59-1.47s-2.16,1.25-3.11,1.46a15.43,15.43,0,0,0,3.09,2.28c7.05,4.23,18.13,8,29.15,7.18,14.09-1.07,25.69-6.43,32.3-9.89,7.13-3.73,11.19-7.71,8.66-15.61-1.1-3.45-3.61-5.16-7.16-4.16-4.41,1.23-3.05,6.42-3.95,9.79-.39,1.46-2,2.12-2.24,3.52-.36,2.06.94,4.21-.33,6.25s-4.6,3.26-6.68,4c-3,1.14-5.87,0-8.83.89-1.09.31-7.44,2.81-5.9.15.23-.41,4.12-3.55,2.42-3.68-1.87-.16-2.49,3.64-4.74,3.5-.18-1,1.33-2.43.74-3.24-.79-1.09-1.87.31-2.21.89-.78,1.36-.62,4-2,4.93s-3.31-1-4.44-1.64c-.32-.18-3.31-1.67-3.17-.53.1.83,1.44.78,1.68,1.61C342,92.44,339.42,91.79,338.72,91.49Z"/><path class="cls-104" d="M314.07,70.27a8.12,8.12,0,0,0-2.3,3.81c-.92,3.94-.4,7.38,3.72,10.74,3.14-.47,5.89-2,4.94-5.94A14.66,14.66,0,0,0,314.07,70.27Z"/><path class="cls-71" d="M311.37,73.52c-1.25.69-.85,2.17-1.77,3s-3.09.45-4.27.33-3.26-.61-4.11.25c-1.22,1.23.15,2.8,1.29,3.45a8.68,8.68,0,0,0,3.47.84l.8.1c2.79.45,5.59,2.12,8.49,1.63,1.57-.27,2.07-1.21,2.24-2.69.24-2,.41-4.71-1.38-6.18C315.08,73.39,312.62,72.83,311.37,73.52Z"/><path class="cls-105" d="M344.13,138.35c2.48-6.83,4.83-13.28,4.84-20.15,0-9.91-10.6-14.9-19.12-18.9a58.57,58.57,0,0,1-8.45-4.49C309.54,86.29,306.73,80.47,305.05,77,304,74.82,303,72.76,300.36,72a3.82,3.82,0,0,0-3.52.7C294,75.05,294.28,81,295.15,94.2c.61,9.34,1.3,19.94.05,27.58-.34,2.11-.73,4.13-1.1,6.11-2,10.41-3.84,20.23.44,37.9l5.12-1.24c-4-16.56-2.33-25.42-.39-35.67.39-2,.78-4.09,1.13-6.25,1.35-8.23.63-19.15,0-28.78-.34-5.19-.78-11.9-.46-15.3.11.21.23.46.36.74,1.78,3.67,5.08,10.5,18,19.8a62.48,62.48,0,0,0,9.29,5c7.55,3.54,16.1,7.56,16.09,14.13,0,5.94-2.1,11.69-4.52,18.35-1.32,3.62-2.68,7.36-3.81,11.45a65.91,65.91,0,0,0-1.1,30.72c.34,1.62.7,3.16,1.06,4.67,1.69,7.2,3,12.89,1.09,20.62-.39,1.57-.82,3.17-1.25,4.78-2.3,8.64-4.69,17.58-3.34,26.91,1.06,7.4,5,14.39,8.79,21.14C341.8,258.93,343,261,344,263l4.69-2.4c-1.06-2.07-2.25-4.19-3.46-6.34C341.65,247.93,338,241.38,337,235c-1.19-8.26,1.06-16.67,3.23-24.8.43-1.64.87-3.26,1.27-4.86,2.24-9,.62-15.84-1.08-23.11-.35-1.47-.71-3-1-4.55a60.67,60.67,0,0,1,1-28.23C341.52,145.52,342.85,141.88,344.13,138.35Z"/><path class="cls-106" d="M300.4,122.63c1.35-8.23.63-19.15,0-28.78-.33-5-.75-11.52-.48-15-.35-1-.71-1.91-1-2.87-.78-1.21-1.76-2.18-3-2.15a7.79,7.79,0,0,0-1,2.72c.49,7.79,3.29,15,4.51,22.61a62.65,62.65,0,0,1,.18,17.3,59.14,59.14,0,0,1-4,16.68c-1.14,2.65-2.37,5.25-3.5,7.88a67,67,0,0,0-.06,9,9.92,9.92,0,0,1,5.8,5.3c-1.53-11-.16-18.29,1.39-26.45C299.66,126.85,300.05,124.79,300.4,122.63Z"/><path class="cls-106" d="M347.47,128.3a38.51,38.51,0,0,0,1.5-10.1c0-6.12-4-10.37-9.15-13.66-1.89.92-3.83,1.74-5.62,2.79,5.2,2.84,9.51,6.21,9.5,10.87a26.14,26.14,0,0,1-.23,3.3A8.83,8.83,0,0,1,347.47,128.3Z"/><path class="cls-107" d="M403.22,267.23c.72,4,6.19,4,10.06,3.56,3.13-.32,9.83-.25,11.87-3.22,2.32-3.36-1.45-12-2.19-15.75-2.37-12.16-6.59-23.72-10.83-35.32-3.37-9.2-2.78-17.66-1.82-27.19.76-7.56,2-14.83,3.05-22.43,1.74-12.37,4.53-24.84-.62-36.85-1.7-4-5.45-3.78-9.54-4.56-7.45-1.43-15.24-3.41-22.83-3.83-2.91-.16-8.09-1.62-10.38.43-1.88,1.68-1.93,6-2.69,8.17-2.31,6.51-6.5,12.44-9,18.84-5.24,13.25-10.46,25.17-12.72,39.12-1.05,6.44-2.59,14.47-.57,21s3.82,12.82,5.77,19.52,5.13,13.25,6.91,20.1c1.66,6.38,1.28,13,2.39,19.45.53,3.1,21.34,1.74,21.57.63,2.47-11.95-4.12-23.42-8-34.28-3.63-10.1-8.53-22-8.71-32.89-.09-5.39,2.46-9.8,3.91-14.88a145.6,145.6,0,0,1,6.49-17c.61-1.44,2-7,3.44-7.59,1.59-.65,6.05,2.36,7.63,3,.93,16-.11,32.26,3.87,47.94a94.85,94.85,0,0,0,3.81,11.45c1.94,4.92,3.39,10.13,5,15.19,1.16,3.65,2.11,7.53,3,11.23C403.46,256.45,402.26,261.92,403.22,267.23Z"/><path class="cls-108" d="M402.89,264.22c5.06-1.54,10-10.18,10-13.38-4.89,6.68-8.91,6.39-8.35,5.52,5.48-8.47,6.32-13.72,6.32-18.18-2.11,2.43-4.34,13-8.68,13.19C403.15,255.66,402.64,260,402.89,264.22Z"/><path class="cls-108" d="M375.3,169.83c.61-1.44,2-7,3.44-7.59,1.59-.65,6.05,2.36,7.63,3,0,.33,0,.66,0,1a24.61,24.61,0,0,1,2.08-3.48c-2.72-2-6.34-4.11-9.21-2.09-2.53,1.77-4.16,4.43-5.62,7.08-3.56,6.41-7,13.13-9.91,19.85-.73,1.69-1.06,5-3.76,4.54a6.93,6.93,0,0,1-3.75-2,12.67,12.67,0,0,0,2.91,5.12,1.25,1.25,0,0,1,0,1.75c-2,2.07-4.53,3.08-7,4.3a38.36,38.36,0,0,0,6.47.71,1.25,1.25,0,0,1,1.08,1.86c-1.77,2.53-4.54,4.68-5.57,7.67,2.41-.51,4.67-1.33,7.21-1.39a1.23,1.23,0,0,1,1.24,1.23c-1.07,8.88,3.18,18.52,5.72,26.8,1.23,4,4.92,8.23,5.13,12.54.18,3.76-1.71,6.2,1.33,9.29a1.24,1.24,0,0,1,0,1.75c-3,2.5-5.05,5.79-8,8.37,6.28.3,14.68-.51,14.83-1.21,2.47-11.95-4.12-23.42-8-34.28-3.63-10.1-8.53-22-8.71-32.89-.09-5.39,2.46-9.8,3.91-14.88A145.6,145.6,0,0,1,375.3,169.83Z"/><path class="cls-109" d="M413.73,266a28.69,28.69,0,0,1-7.45,4.45,17.85,17.85,0,0,0,7,.36c3.13-.32,9.83-.25,11.87-3.22,2.32-3.36-1.45-12-2.19-15.75-2.37-12.16-6.59-23.72-10.83-35.32-3.37-9.2-2.78-17.66-1.82-27.19.76-7.56,2-14.83,3.05-22.43.7-5,1.56-9.94,2-14.9-4.34,1.4-8.67,2.81-13.12,3.81,2.32.29,4.7,1,5.54,3.15,1.54,3.91-1,8.78-.61,12.81.64,7.29-.85,15.66-1.55,23-.6,6.17-3,11.92-4.05,18,.71-.5,1.43-1,2.18-1.43a1.26,1.26,0,0,1,1.87,1.07,17.47,17.47,0,0,1-1.29,8.26c1.14-.77,2.28-1.54,3.49-2.21a1.26,1.26,0,0,1,1.82.74c1.61,4.13-.94,6.63-2.7,10,10.07,1,7.54,13.65,10.13,21.31C419.08,256.34,418.89,261.8,413.73,266Z"/><path class="cls-110" d="M357.66,248.81a67.2,67.2,0,0,1,1.57,12c3.84-8.43,2.7-18.42-.29-27.13-.77,3.86-1.42,7.75-2.37,11.58C357,246.42,357.35,247.61,357.66,248.81Z"/><path class="cls-111" d="M430.94,105.44c3.24-8.18,6.82-16.39,4.78-25.34-1.51-6.61-9.32-13.43-15.38-16.18-4.25-1.93-8.28-1.22-12.66-1.78-3.2-.41-5.74-2.23-9.17-1.85-5,.56-11.26.75-15.76,3.11-5.31,2.78-3.68,7.09-3.74,12.22A97.38,97.38,0,0,1,377.3,92.3a106.31,106.31,0,0,1-10.73,30.51,118.43,118.43,0,0,0-7,14.37c-1.53,4.13-4.25,8.64-4.87,13-.21,1.46,18.48,7.65,20.37,8.67-.63-.34,9.75-20.5,10-22.6.18,7.84,2.44,15.64,2.66,23.35a23.65,23.65,0,0,0,5.5-.32c9.18-1.17,26.74-4.38,28.8-4.46-.77,0-2.94-11-3-12.26a59.66,59.66,0,0,1,.39-11.53C420.73,122.23,427.58,113.92,430.94,105.44Z"/><path class="cls-101" d="M430.94,105.44c3.24-8.18,6.82-16.39,4.78-25.34-1.51-6.61-9.32-13.43-15.38-16.18-4.25-1.93-8.28-1.22-12.66-1.78-3.2-.41-5.74-2.23-9.17-1.85-5,.56-11.26.75-15.76,3.11-4.13,2.16-4.06,5.24-3.86,8.91a9.26,9.26,0,0,1,4.12-2c3.4-.6,5.07.72,7.63,2.79,4.54,3.66,11.19-.34,16.29,1.38,4.91,1.64,6.46,6.72,5,11.49-1.5,4.94-4.52,6.33-8.85,7.48-2.09.55-3.57,2.26-5.79,2.71-2.48.5-4.07-.89-6.45-1-3.43-.19-3.92,2.76-6.4,4.1-1,.55-8.84.54-8.53-.71a105.67,105.67,0,0,1-9.35,24.3c-.36.66-.72,1.35-1.09,2,16.08,3.46,9,19.91,2.6,31.37,3.39,1.26,6.29,2.31,7,2.68-.56-.3,7.49-16.1,9.53-21.19,2.57-9.39,4.33-13.66,9.73-15.34,2.4-.76,9.34-3.68,12.86-2.29,4,.21,3.94,5.32,3.71,8.92-.58,9.12-1.76,18.67.75,27.47,5.19-.86,9.43-1.57,10.38-1.6-.77,0-2.94-11-3-12.26a59.66,59.66,0,0,1,.39-11.53C420.73,122.23,427.58,113.92,430.94,105.44Z"/><path class="cls-112" d="M386.35,131.9q.78-5.2,1.75-10.37s0,0,0-.08c.12-2.31.29-4.62.6-6.92.36-2.68-1.21-3.57-1.75-.6-.22,1.23-.44,2.46-.67,3.68-.58,3.12-1.17,6.24-1.9,9.32-2.6,11-6.39,21.54-13.79,30.21,2.22.82,3.93,1.47,4.44,1.74-.56-.3,7.49-16.1,9.53-21.19C385.2,135.47,385.77,133.57,386.35,131.9Z"/><path class="cls-112" d="M430.94,105.44c2.48-6.26,5.13-12.54,5.34-19.15-.45.59-.94,1.15-1.43,1.7-2.38,6.45-18,15.29-14.49,19.47a1.26,1.26,0,0,1,0,1.75c-1.14,1-2.22,2-3.3,3a23,23,0,0,0,2.75.69,1.24,1.24,0,0,1,.74,1.82c-1.33,1.87-2.71,3.65-3.9,5.58h.77a1.24,1.24,0,0,1,1.19,1.56c-.67,2.92-2.86,5.35-3.4,8.24a61.67,61.67,0,0,0-.69,11.68c0,4.81,1.39,9.26,2.69,13.73,2.46-.39,4.24-.66,4.81-.68-.77,0-2.94-11-3-12.26a59.66,59.66,0,0,1,.39-11.53C420.73,122.23,427.58,113.92,430.94,105.44Z"/><path class="cls-113" d="M398.51,60.29c-4.35.49-9.64.7-13.91,2.29a.89.89,0,0,1-.14.32A9,9,0,0,0,382.54,68c3.44-1.18,6.91-1.88,9.51,1.58.38.51.71,1,1,1.56,1.19,1.87,3.83,2.6,5.87,2.49,3.17-.18,6-.81,9.09.26,4.4,1.5,7.32,5.62,11.74,6.86,1.5-1.75,2.76-4.22,4.57-5.63.94-.73,5.5-4.45,6.61-3.22a34.3,34.3,0,0,0-10.63-8c-4.25-1.93-8.28-1.22-12.66-1.78C404.48,61.73,401.94,59.91,398.51,60.29Z"/><path class="cls-101" d="M398.48,56.44c-2-3.56-6.33-3.58-9.37-1.32-2.72,2-6.83,9.67-6.86,13.14,1.21-1.59,4.59-5.3,6.75-4.55,3.25,1.13,3.6,7,7.22,8.7-.74-.35-1.6-7.66-1.6-8.64C394.65,60.78,396.14,58.43,398.48,56.44Z"/><path class="cls-114" d="M398.48,56.44c-1.8-3.17-5.4-3.53-8.32-2a5.48,5.48,0,0,1,.29,1.18c.82,2.37-.16,4.64-1.27,6.88-.08.39-.2.78-.26,1.18H389c3.25,1.13,3.6,7,7.22,8.7-.74-.35-1.6-7.66-1.6-8.64C394.65,60.78,396.14,58.43,398.48,56.44Z"/><path class="cls-115" d="M398.48,56.44c-1.8-3.17-5.4-3.53-8.32-2a1.21,1.21,0,0,1,0,.18.71.71,0,0,0,.07.09c.2.46.41.92.61,1.37a8.46,8.46,0,0,1,1.18,3.17,11.23,11.23,0,0,1,.53,3.26c0,1.71-.16,3.41-.24,5.1,1,1.88,2,3.87,3.86,4.77-.74-.35-1.6-7.66-1.6-8.64C394.65,60.78,396.14,58.43,398.48,56.44Z"/><path class="cls-85" d="M397.47,54.16l-.18-.58v.56Z"/><path class="cls-86" d="M391.6,21c-1-1.48-.33-4.66-1.57-5.73s-2.92.55-3.69,1.54c-2.81,3.58-1.23,8.92.14,12.78a32.82,32.82,0,0,1,2.1,7c.23,1.79-.59,5.75,2.25,5.46,5.16-.53,4.36-9.92,4.22-13.26a11.6,11.6,0,0,0-.75-3.85C393.68,23.19,392.55,22.44,391.6,21Z"/><path class="cls-72" d="M393.35,64.47a17.74,17.74,0,0,0,.39,2.6c.19,1.36,1.27,4.51,2.68,5,1.62.59,5.05-1.56,6.61-2.08l.75-.24c3.12-1,6.28-2,9.43-2.92,2.08-.62,4.08-1.62,6.05-2.32a31.24,31.24,0,0,1-1.63-5.76,9.1,9.1,0,0,1,.08-3c.08-.43.24-2.25.54-2.44-1.06.66-1.75,1.76-2.84,2.46-3,1.91-6.05,2.19-9.47,2.5a28,28,0,0,1-5.77-.58c-1.11-.16-2.25-.12-3.34-.38-.22-.06-2.43-1-2.43-1-.1,2,.76,4.07-.16,5.94C393.82,63.08,393.37,63.46,393.35,64.47Z"/><path class="cls-71" d="M385,42.4a17.62,17.62,0,0,0,3.54,9.53,42.85,42.85,0,0,0,5.17,5.27c5.26,4.48,13.56,3.26,19.5.69a19.36,19.36,0,0,0,9.11-8.57c3.17-5.57,4.52-12.39,5.66-17.75,1.09-5.17-1.14-10.67-1.09-14.13-2.46-1-6.7.8-9.68.4-2.77-.38-7.94-.39-10.95-.58h-.43c-3,.08-8.19-.06-11,.24-3.58.38-7.75-3-9.64,1-1.79,3.73-.75,9.42.64,13.2a7.56,7.56,0,0,1,.23,5.4A11.91,11.91,0,0,0,385,42.4Z"/><path class="cls-77" d="M385,42.4a17.62,17.62,0,0,0,3.54,9.53,42.85,42.85,0,0,0,5.17,5.27c5.26,4.48,13.56,3.26,19.5.69a19.36,19.36,0,0,0,9.11-8.57c3.17-5.57,4.52-12.39,5.66-17.75,1.09-5.17-1.14-10.67-1.09-14.13-2.46-1-6.7.8-9.68.4-2.77-.38-7.94-.39-10.95-.58h-.43c-3,.08-8.19-.06-11,.24-3.58.38-7.75-3-9.64,1-1.79,3.73-.75,9.42.64,13.2a7.56,7.56,0,0,1,.23,5.4A11.91,11.91,0,0,0,385,42.4ZM386.16,28A1.14,1.14,0,0,1,388,26.9c-.31-2-1.82-5.69.6-7.17a17.52,17.52,0,0,0,9.14,4.95c1.91.33,3.86.85,5.83,1.15,1.22.18,4.69.79,5.47.11a5.78,5.78,0,0,1-2.73-1.15c.77.74,2.74.79,3.73.86,2.35.17,2.11-.37,2.28-2.51,2.9-.45,8.89,2.68,10.59,4.92,3.08,4-.81,12.65-2.42,16.52-1.53,3.66-6.24,9.93-11.1,8.33-2.85-.93-2.87-2.64-6.09-1.93a12.64,12.64,0,0,1-7.65-.39,4.36,4.36,0,0,1,0,.73c-.11,1.53-2.33,2.31-3.53,1.51a12.26,12.26,0,0,1-5.27-7.76c-.4-2.47.72-5,.58-7.51C387.22,34.33,386.61,31.17,386.16,28Z"/><path class="cls-86" d="M386.94,31.1l.13.12c.87-1.68,4-1.88,5.74-2,2.8-.2,2.57-.81,3.82-3.35a28.31,28.31,0,0,0-6.44,0C388.84,26.39,385.62,30.1,386.94,31.1Z"/><path class="cls-86" d="M407.42,26.05c1.26,2.57,1,3.17,4,3.46,1.81.15,5.17.45,6.06,2.16l.13-.12c1.44-.95-1.87-4.77-3.29-5.28A32.89,32.89,0,0,0,407.42,26.05Z"/><path class="cls-95" d="M388.54,35.61c-1-.63-1.54.24-1.74,2a5,5,0,0,0,1,3.84c1.48,1.56,3.14.76,4.82-.43,1.47-1,3-3.38.5-4C391.31,36.55,390.07,37.07,388.54,35.61Z"/><path class="cls-95" d="M410.51,36.83c-2.87-.3-2.22,2.41-1.06,3.91,1.32,1.7,2.77,3,5,2.11a5.06,5.06,0,0,0,2.6-3.23c.49-1.7.23-2.71-1.06-2.47C413.75,38,412.64,37.05,410.51,36.83Z"/><path class="cls-87" d="M412.25,36.67c3.27,1.59,4.84-4.7,1.33-5.94C410.6,29.67,410.17,35.63,412.25,36.67Z"/><path class="cls-88" d="M412.83,32.05c-1.36.85-1,2.93-.35,3.63a2.89,2.89,0,0,0,1.43.09,1.16,1.16,0,0,0,1-.66C415.82,33.31,414.17,31.22,412.83,32.05Z"/><path class="cls-89" d="M412.81,33.85c.48.22.65-.3.2-.57C412.62,33.2,412.42,33.67,412.81,33.85Z"/><path class="cls-90" d="M415.43,35c1-1.21,0-3.32-1.1-4.17-1.28-1-3.36-.39-2.8,1.52,1.28-2.93,5.43.28,3.7,2.44Z"/><path class="cls-90" d="M411.93,36.58c.47.79,1.36.5,2,.26.86-.29,1.21-.59,1.29-1.55l-.05-.11C414.77,36.62,413.18,36.6,411.93,36.58Z"/><path class="cls-90" d="M418,35.67c-.52-.91-1.94-.47-2.7-.43-.41.15.57.86.74,1a5.34,5.34,0,0,1,1,1c-.34-.55-.6-1.29-1.28-1.54A14.94,14.94,0,0,1,418,35.67Z"/><path class="cls-87" d="M391.64,30.37c-3.54,1.14-2,8,1.16,6l.37.08C394.75,35.36,394.65,29.4,391.64,30.37Z"/><path class="cls-88" d="M390.47,35c.11.42.61.61.95.67a2.85,2.85,0,0,0,1.43,0c.65-.69,1.09-2.76-.25-3.64S389.58,33.21,390.47,35Z"/><path class="cls-89" d="M391.23,33.81c.39-.17.21-.64-.19-.57C390.59,33.49,390.75,34,391.23,33.81Z"/><path class="cls-90" d="M393.68,32.12c.61-1.89-1.44-2.53-2.75-1.6-1.13.81-2.16,2.9-1.22,4.13l.2-.19C388.25,32.24,392.49,29.16,393.68,32.12Z"/><path class="cls-90" d="M388,37a5.58,5.58,0,0,1,1.05-1c.17-.11,1.17-.79.77-.94-.75-.07-2.17-.55-2.71.33a18,18,0,0,1,2.21.13C388.67,35.69,388.39,36.41,388,37Z"/><path class="cls-90" d="M389.88,35c.06,1,.39,1.26,1.25,1.6.65.25,1.54.56,2-.21-1.24,0-2.84,0-3.22-1.5Z"/><path class="cls-77" d="M425.41,37.5a4.36,4.36,0,0,0-1,1.43c-.38.82-.63,1.74-1,2.51-.56,1.25-1.86,4.34.28,4.94,1.85.52,3.48-2.33,4.08-3.65s3.18-4.54,1.77-5.92C428.59,35.84,426.31,36.69,425.41,37.5Z"/><path class="cls-86" d="M426.19,38.05a6.52,6.52,0,0,1,1.68-1.47c.62-.48.72-1.81,1-2.53.54-1.45,1.09-2.9,1.52-4.39.95-3.23,3.61-10.46-.17-16.15C421-.38,405.75,1,403.83,2.57c.44-.84,2.73-2.32,4-2.11-8.28-1.56-12.77,1-16.12,4.92a1.46,1.46,0,0,1-.52.33h-.14c-1.3.78-2.68,1.4-4,2.17a9.6,9.6,0,0,0-4.29,8.06,13.79,13.79,0,0,0,1.58,7.27V23a1.81,1.81,0,0,0,0,.23,15.49,15.49,0,0,0,1.52,2.3c.46.34,1,.66,1.54,1a7.07,7.07,0,0,1-1.44-5.33,7.83,7.83,0,0,1,2.2-4c3.87,4.94,11.44,6.74,17.15,8.5-1.26-1.35-3.19-2.33-4.1-3.91,3.09,1.18,6.55,2,9.43,3.3.48-1.17.14-2.13.07-3.32,2.15-.24,4.59,1.26,6.57,1.86,2.35.7,4.52,1.63,6.75,2.47a24.1,24.1,0,0,0-.63-4.11c2.45,2.68,2.9,6.33,2.53,10a71,71,0,0,1-1.83,7.38c-.46,1.4-1.09,2.8-1.64,4.16-.09.22-.19.45-.3.67a.64.64,0,0,0,.08.14l-.12,0c-.35.74-.87,1.29-1.15,2.06a7.25,7.25,0,0,1-1.45,2,6.75,6.75,0,0,1-4.05,2.48c-1.63.18-2.29-.8-2.93-2.13a13.59,13.59,0,0,0-3.1-4.43c-2.34-2.15-5.36-2.07-8.2-1.11a4.61,4.61,0,0,1-3.17,0c-2.47-.59-3.49-1.58-5.66.38a11.44,11.44,0,0,0-3.08,4.3c-.46,1.32-.25,2.23-1.56,3.11-.35.23,5.09,7.09,5.83,7.52a20.5,20.5,0,0,0,7.37,2.45,20,20,0,0,0,11.07-1.58c3.23-1.44,5.25-4,7.78-6.41a24.32,24.32,0,0,0,1.6-2,9.42,9.42,0,0,0,.84-1,16.2,16.2,0,0,0,.92-1.93,7.43,7.43,0,0,1,.47-.88c.27-.44.26-.41.05-.82-.71-1.33,0-2.91.54-4.22A18.7,18.7,0,0,1,426.19,38.05ZM409.67,53c-.86,1.88-3.91,3-5.87,2.79A4,4,0,0,1,401,54.08c-.17-.22-1.19-3-.54-3-.61,0-1.09-.16-1.69-.16a3.87,3.87,0,0,1-1.23,3.32c-2.93,2-7-1.37-6.77-4.5.16-2.16,1.81-2.52,3.7-2.39s3.56,1,5.39,1.17c2.61.3,5.11-1.25,7.7-.91a2.92,2.92,0,0,1,2.17,2.25A4.55,4.55,0,0,1,409.67,53Z"/><path class="cls-116" d="M400.1,50.27c-4.42.12-5.22-1.33-6.46-2.17-.42,1.65,2.31,3.43,3.63,3.7a13.65,13.65,0,0,0,6,.12,5.62,5.62,0,0,0,2.63-1.38,4.79,4.79,0,0,0,1.35-2.43l-.08-.06a7.39,7.39,0,0,1-1.85,1.11A11.91,11.91,0,0,1,400.1,50.27Z"/><path class="cls-90" d="M393.72,48.15l-.08,0c-.42,1.65,2.31,3.43,3.63,3.7a13.65,13.65,0,0,0,6,.12,5.62,5.62,0,0,0,2.63-1.38,4.89,4.89,0,0,0,1.37-2.42h0C404.29,52.14,396,53.06,393.72,48.15Z"/><path class="cls-90" d="M393.16,49.06c.1.33.33.32.38,0a1.32,1.32,0,0,1,.18-.73c.21-.22.61-.2.76-.5C393.83,47.33,393,48.46,393.16,49.06Z"/><path class="cls-90" d="M406.09,48c.26.21.62,0,.89.14s.36.38.47.58.41.22.36-.12C407.74,48,406.48,47.34,406.09,48Z"/><path class="cls-117" d="M385.9,28c-2.79-.23-3,7.08-1.68,8.54s4.22,1.58,6.08,1.69c2.31.14,5,1.19,6-1.31.71-1.74,1.67-5.13,1.48-7-2.46-.82-5.66-.66-8.23-1.11C388.33,28.56,387.14,28.08,385.9,28Zm9.37,2.38c.7.09,1.43.14,1.41,1a13.07,13.07,0,0,1-.75,3.2,12.42,12.42,0,0,1-.77,2.17c-.39.77-.82.8-1.65.79-1.84,0-3.63-.28-5.44-.47-1.28-.13-2.79-.46-3.36-1.77a6.66,6.66,0,0,1-.14-5.25c1.13-2.24,4.37-.54,6.19-.2C392.25,30.13,393.76,30.2,395.27,30.36Z"/><path class="cls-118" d="M390.76,29.85c-1.82-.34-5.06-2-6.19.2a6.66,6.66,0,0,0,.14,5.25c.57,1.31,2.08,1.64,3.36,1.77,1.81.19,3.6.44,5.44.47.83,0,1.26,0,1.65-.79a12.42,12.42,0,0,0,.77-2.17,13.07,13.07,0,0,0,.75-3.2c0-.88-.71-.93-1.41-1C393.76,30.2,392.25,30.13,390.76,29.85Z"/><path class="cls-118" d="M384.57,30.05a6.66,6.66,0,0,0,.14,5.25,1.88,1.88,0,0,0,.16.23A10,10,0,0,1,388,31.7a12.7,12.7,0,0,1,3.16-1.8c-.12,0-.25,0-.37,0C388.94,29.51,385.7,27.81,384.57,30.05Z"/><path class="cls-117" d="M414.17,30.08c-2.71,0-6-.65-8.62-.24-.5,1.83-.05,5.33.41,7.17.64,2.63,3.53,2,5.92,2.27,1.92.19,4.88.57,6.51-.67s2.53-8.48-.37-8.71C416.73,29.79,415.43,30.07,414.17,30.08Zm4.88,2.09a6.41,6.41,0,0,1-1,5.16c-.79,1.19-2.4,1.27-3.73,1.19-1.89-.11-3.77-.15-5.66-.42-.86-.13-1.29-.23-1.57-1.06a12.21,12.21,0,0,1-.44-2.26,12.54,12.54,0,0,1-.26-3.29c.12-.88.87-.8,1.61-.77,1.58.08,3.13.26,4.7.23C414.66,30.92,418.25,29.77,419.05,32.17Z"/><path class="cls-118" d="M412.73,31c-1.57,0-3.12-.15-4.7-.23-.74,0-1.49-.11-1.61.77a12.54,12.54,0,0,0,.26,3.29,12.21,12.21,0,0,0,.44,2.26c.28.83.71.93,1.57,1.06,1.89.27,3.77.31,5.66.42,1.33.08,2.94,0,3.73-1.19a6.41,6.41,0,0,0,1-5.16C418.25,29.77,414.66,30.92,412.73,31Z"/><path class="cls-118" d="M406.42,31.49a12.54,12.54,0,0,0,.26,3.29,12.21,12.21,0,0,0,.44,2.26,1.39,1.39,0,0,0,.44.66,11.37,11.37,0,0,1,5.79-6.79c-.21,0-.43,0-.62,0-1.57,0-3.12-.15-4.7-.23C407.29,30.69,406.54,30.61,406.42,31.49Z"/><path class="cls-117" d="M396.86,33.07a6.17,6.17,0,0,1-.18,1.28,13.57,13.57,0,0,1,4.12-.83,9.31,9.31,0,0,1,5.25,1.67,7.06,7.06,0,0,1-.14-1.71C404.11,32.56,399.05,32,396.86,33.07Z"/><path class="cls-117" d="M425.89,34.24a13.16,13.16,0,0,0-1.77-.47c-1.35-.27-2.71-.46-4.08-.6l-.1,0a7.84,7.84,0,0,1-.32,1.31c.35,0,.7.06,1.05.12a36.41,36.41,0,0,1,3.95.84c.89.23,1.8.59,2.68.74.66.11,2.21.66,1.9-.43S426.81,34.53,425.89,34.24Z"/><path class="cls-91" d="M394.29,39.75c.59,3,3.25,3.56,6.1,3a10.12,10.12,0,0,0,3.33-.93,4.73,4.73,0,0,0,1.51-3.44c0-2.07-4.66-2.61-6.3-2l.35-.17C396.89,36.39,393.48,35.69,394.29,39.75Z"/><path class="cls-92" d="M394.85,37.06a22.18,22.18,0,0,1,8.8-.42c-2.53-.86-6.75-1.71-9,.41Z"/><path class="cls-90" d="M399.87,43.86c2.92-.13,6.88-2.64,5.33-5.68.79,5.72-12.69,4.91-10.92-.16C392.7,41.82,397,44,399.87,43.86Z"/><path class="cls-119" d="M419.42,12.34a29.22,29.22,0,0,1,7,2.81c1.36-2.2-2.93-5.14-4.36-6.05a16.44,16.44,0,0,0-3.69-1.93c-1.33-.41-3.4.14-4.41-1a17,17,0,0,0,1.85-1.35c-3.37-.27-8-.72-11.28.47a17.71,17.71,0,0,0,2.68-1.6c-1.84-1.32-5.72,0-7.55.83A3.51,3.51,0,0,1,401,2.25a25.49,25.49,0,0,0-3.78,1.39c-1.1.64-1.74,1.74-2.68,2.32-3.44,2.12-7.73,3.57-3.8,8.1,2,2.33,4.73,3.9,7.14,5.79-1.43-1.21-4.45-5.36-1.05-5.8,1-.12,6.38.93,7,1.63-1.72-2-4.7-2.66-6.27-4.61,1.69-.55,4.18.07,5.94.41,1.58.3,4.57.47,5.89,1.36a18.68,18.68,0,0,1-3-1.94c3.15.09,5.87,2.28,8.57,3.56-.78-1.92-3.79-3.07-5.28-4.37.42.37,3,.24,3.66.37C415.49,10.85,417.29,11.92,419.42,12.34Z"/><path class="cls-111" d="M413,66.08c-2.74,1.5-6.05,1.75-9,2.43-2.45.56-7.05,1.62-8.12,4.26,2.19-.07,4.67-1.85,6.8-2.41a20.24,20.24,0,0,1,7.13-1,6.19,6.19,0,0,1,3.48,1.4,6.93,6.93,0,0,1,1.91,2.78c.8,2,1,4.94,3.44,5.89a5.85,5.85,0,0,1,.78.48c.78-1.11,1-2.6,2-3.7a13.8,13.8,0,0,1,3.87-2.63,21.21,21.21,0,0,1,4.34-1.6c1.23-.29,2.91-.22,3.39-1.67-4.27.38-5.35-5.08-6.45-8.1a12.51,12.51,0,0,0-2.39-4.46c-.5-.53-6.12-3.69-6.33-2.49l-.23,1.32v1.2c1.13.09,3.16-.09,1.88,2.72C418.36,62.9,415.09,64.91,413,66.08Z"/><path class="cls-114" d="M413,66.08c-2.74,1.5-6.05,1.75-9,2.43-2.45.56-7.05,1.62-8.12,4.26,2.19-.07,4.67-1.85,6.8-2.41a20.24,20.24,0,0,1,7.13-1,6.22,6.22,0,0,1,3,1.15c4.81-4.37,12.11-10.14,8.78-13.91a1.21,1.21,0,0,1-.28-.52c-1.64-.82-3.38-1.48-3.5-.82l-.23,1.32v1.2c1.13.09,3.16-.09,1.88,2.72C418.36,62.9,415.09,64.91,413,66.08Z"/><path class="cls-114" d="M424.94,58.87c0,4.77-6.44,9.36-10.58,13.27a8.49,8.49,0,0,1,.75,1.44,34.49,34.49,0,0,0,1.42,4,12,12,0,0,1,6-5.56,18.68,18.68,0,0,1,4.74-1,24.26,24.26,0,0,0,3.3-1.28c-2.37-1.39-3.25-5.16-4.11-7.52A16.93,16.93,0,0,0,424.94,58.87Z"/><path class="cls-120" d="M411.45,69.82a5.77,5.77,0,0,1,1.75,1,5.05,5.05,0,0,1,.53.6,8.8,8.8,0,0,1,1.69-2.46c3.18-3.29,8.93-6.53,7.68-11.83a24.45,24.45,0,0,0-3.32-1.65C424.31,60.48,417.63,65.9,411.45,69.82Z"/><path class="cls-106" d="M300.36,72a3.82,3.82,0,0,0-3.52.7,4.57,4.57,0,0,0-.8.89c.22.22.49.41.68.64A12.07,12.07,0,0,1,298.94,77a4.91,4.91,0,0,1,5.61,2.21c1.87,3,3.5,5.2,6.63,6.81A33.07,33.07,0,0,1,305.05,77C304,74.82,303,72.76,300.36,72Z"/><path class="cls-71" d="M297.37,77.54c.61.2,1.4-.29,1.85-.63,1.08-.83,1.7-2.24,3-2.73,4-1.5,6.12,1.66,7.54,3,1.71,1.67,1.84,4.12,4.22,5.27a3.45,3.45,0,0,0,2,.3c2.8-.33,2.62-5.59,2.19-7.56-.85-3.91-4.11-6.46-9-7.46-3.42-.71-7.11-.76-10.08,1.33a7.49,7.49,0,0,0-2.79,3.39c-.36.86-1.05,2.62.44,2.75C296.76,76.06,296.34,77.2,297.37,77.54Z"/><path class="cls-71" d="M345,102.89c-3.18.32-7,2.46-8.64,5.19-1.27,2.15-1.18,4.67,1.71,7,1.21.95,4.28,4.17,5.89,4.23,3.14.11,6.11-3.61,9.46-3.87,2.45-.19,3.39,0,3.58-3.39C357.37,105.92,350.35,102.38,345,102.89Z"/><path class="cls-77" d="M344.18,115.42c-2.91-.39-6-2.19-8.52-4.35a5.72,5.72,0,0,0,2.45,4c1.21.95,4.28,4.17,5.89,4.23,3.14.11,6.11-3.61,9.46-3.87,2.45-.19,3.39,0,3.58-3.39.24-4.4-3.37-7.46-7.39-8.63a18.62,18.62,0,0,0-.52,7c.14.9.38,2.4-.21,3.22A4.63,4.63,0,0,1,344.18,115.42Z"/><path class="cls-77" d="M296.88,74.93a18.15,18.15,0,0,1,3.25-3.64c1.22-1,2.79-1.17,3.92-2a7.18,7.18,0,0,0-5,1.41C298,71.56,296.29,73.41,296.88,74.93Z"/><path class="cls-77" d="M300.76,73.83a10,10,0,0,0-1.58,1.86A2.32,2.32,0,0,1,296.89,77c.75,1.07,2,.31,2.66-.34,1.79-1.82,2.08-2.77,4.67-3.08a4.9,4.9,0,0,1,3.41,1.17c1.09.89,1.74,1.92,2,1.82s2.46-1.25,2.28-1.46a6.86,6.86,0,0,0-2.68-2.15C306.63,71.9,303,71.73,300.76,73.83Z"/><path class="cls-77" d="M315.83,78.94A5.1,5.1,0,0,1,312.48,80a25.75,25.75,0,0,1-3.73-.08,15.9,15.9,0,0,1-1.74-.22,1,1,0,0,0,.13.78c.55,1.14,1.49,1.05,2.53,1.36,1.56.47,3.11,1.2,4.79,1a4.22,4.22,0,0,0,2.63-1.38c.75-.87,1.67-3.78.81-4.81C317,77.23,316.62,78.27,315.83,78.94Z"/><path class="cls-121" d="M416.82,74.1c-.4-1.76-.56-4.39-2.4-5.27a13.33,13.33,0,0,0-6.2-1.17c-1.44.3-2.91.53-4.31.85-2.45.56-7.05,1.62-8.12,4.26,2.19-.07,4.67-1.85,6.8-2.41a20.24,20.24,0,0,1,7.13-1,6.19,6.19,0,0,1,3.48,1.4,6.93,6.93,0,0,1,1.91,2.78c.8,2,1,4.94,3.44,5.89a5.85,5.85,0,0,1,.78.48,5.5,5.5,0,0,0,.39-.72C418.06,78.27,417.29,76.15,416.82,74.1Z"/><path class="cls-121" d="M382.88,65.29a10,10,0,0,0-.63,3c1.21-1.59,4.59-5.3,6.75-4.55,3.25,1.13,3.6,7,7.22,8.7-.19-.09-.39-.65-.58-1.44-1.31-1.88-1.8-4.13-2.83-6.22C390.39,59.88,385.68,61.87,382.88,65.29Z"/><path class="cls-121" d="M389.33,121.15c.45-3,7.61-44.27,6.18-47.69-2,5.83-2.56,12.53-3.46,18.61-1,6.67-2.47,13.37-3.14,20.19-.32,3.27-1.18,6.53-1.65,9.71s-.62,6.57-1.25,9.7a51,51,0,0,0-.84,6.54c.44,7.19,2.35,14.35,2.55,21.42a12.88,12.88,0,0,0,2.24,0c-.06-1.05-2.91-15.52-2.91-18.88a60,60,0,0,1,.4-9.92C388,127.61,388.84,124.34,389.33,121.15Z"/><path class="cls-122" d="M395.73,72.81l-.42.41c.09,0,.15.11.2.24C395.59,73.25,395.65,73,395.73,72.81Z"/><path class="cls-101" d="M411.94,91.46a48.49,48.49,0,0,1-24.25,13.32c-5,1-10.63,1.87-15.85,1.43-15.93-1.35-17.89-5-19.91-3.3-3.29,2.85-1.05,12.41,1.56,15,4.78,4.71,23.28,4.74,28.86,4.25A99.74,99.74,0,0,0,401,118.81c15.87-4.46,35.95-18.29,36.74-33.16.28-5.22-.6-12.27-8-10.9C421.16,76.32,417.52,86,411.94,91.46Z"/><path class="cls-123" d="M401,101.22a46.6,46.6,0,0,1,8.56-3.89c4.87-1.67,5.28-4.71,7.69-8.59,1.7-2.72,5.57-3.92,7-6.64,1.17-2.27,2-4,4.06-5.47a10,10,0,0,1,5.19-1.73,7.47,7.47,0,0,0-3.77-.15c-8.52,1.57-12.16,11.24-17.74,16.71a48.49,48.49,0,0,1-24.25,13.32c-5,1-10.63,1.87-15.85,1.43-15.93-1.35-17.89-5-19.91-3.3a3.75,3.75,0,0,0-1,1.33,2.6,2.6,0,0,1,2.55.05c3.92,1.95,6.47,4.32,11.42,3.57,3.25-.49,6.42,1.27,9.62,1.35,4,.11,6.71,0,10.44-1.55.79-.34,3.11-1.1,4-.45,1.59,1.19,3,2.54,3.8,0,.52-1.69,1.93-3.59,3.92-2.43,1.65,1,2.26,1.79,2.05-.81C398.62,102.59,400,101.82,401,101.22Z"/><path class="cls-102" d="M414.68,108.35c-1.49.81-4.06,1.92-5.79,1.38-1.38-.44-2.41-3.14-4.13-2.34s-1.6,5-3.41,4.85c-1.38-.1-2.52-2.72-4.2-1.57s.79,2.82-.33,4.08c-1.53,1.72-3.83-2.38-5.81,0-1,1.25-.57,1.42-2.51,1.58a25,25,0,0,1-3.69.24c-4.07-.19-8.13.41-12.2.32a26.82,26.82,0,0,1-6-.87c-1.61-.4-3.21-.16-4.86-.52-2.26-.51-3.88-3.22-6.34-3.91-3.39-.93-4.32-4.39-4.4-7.5-1.86,3.72.16,11.48,2.47,13.76,4.78,4.71,23.28,4.74,28.86,4.25A99.74,99.74,0,0,0,401,118.81c15.87-4.46,35.95-18.29,36.74-33.16.22-4.22-.36-9.58-4.51-10.77,2.8,8.33-3.33,18.34-8.63,24.43C421.67,102.64,418.61,106.2,414.68,108.35Z"/><path class="cls-103" d="M414.51,111.56a14.26,14.26,0,0,1-11.93,2.72c-2.17-.54-2.81,2.29-4.61,2.79-2.5.68-4.43-1.2-6.94.67-2.07,1.55-3.65,1.58-6.26,1.44-4.29-.24-8.55,0-12.83-.19-5.27-.2-15.86-.91-20.7-5.36a11.08,11.08,0,0,0,2.25,4.26c4.78,4.71,23.28,4.74,28.86,4.25A99.74,99.74,0,0,0,401,118.81c15.87-4.46,35.95-18.29,36.74-33.16.19-3.66-.27-8.13-3.08-10,2.47,9.59-1.24,17.42-7.06,24C423.8,104.21,419.34,107.46,414.51,111.56Z"/><path class="cls-124" d="M344.68,263.45a9.11,9.11,0,0,0,2.6-1.45c.42-.27,1.63-.86,1.74-1.4.19-1-1.95-3.73-2.62-2-.29.75,0,.67-.81.53a1,1,0,0,0-.77.05c-.29.21-.09.3-.24.59-.35.63-.92.15-1.43.46s-.35,1-.14,1.48l-.11-.53C343.18,262.05,343.52,263.72,344.68,263.45Z"/><path class="cls-124" d="M294.87,166.45a8.89,8.89,0,0,0,2.92-.55c.49-.13,1.82-.32,2.09-.79.49-.84-.67-4.16-1.84-2.76-.51.62-.21.64-.94.25a1,1,0,0,0-.74-.2c-.35.11-.18.26-.42.48-.52.5-.92-.14-1.5,0s-.64.81-.59,1.35l0-.53C293.88,164.65,293.68,166.33,294.87,166.45Z"/></g></g></svg>