<svg width="100" height="100" viewBox="0 0 100 100" fill="none" xmlns="http://www.w3.org/2000/svg">
<path d="M15 42.8571C20.5156 42.8571 25 36.4509 25 28.5714C25 20.692 20.5156 14.2857 15 14.2857C9.48438 14.2857 5 20.692 5 28.5714C5 36.4509 9.48438 42.8571 15 42.8571ZM85 42.8571C90.5156 42.8571 95 36.4509 95 28.5714C95 20.692 90.5156 14.2857 85 14.2857C79.4844 14.2857 75 20.692 75 28.5714C75 36.4509 79.4844 42.8571 85 42.8571ZM90 50H80C77.25 50 74.7656 51.5848 72.9531 54.1518C79.25 59.0848 83.7188 67.9911 84.6875 78.5714H95C97.7656 78.5714 100 75.3795 100 71.4286V64.2857C100 56.4062 95.5156 50 90 50ZM50 50C59.6719 50 67.5 38.817 67.5 25C67.5 11.183 59.6719 0 50 0C40.3281 0 32.5 11.183 32.5 25C32.5 38.817 40.3281 50 50 50ZM62 57.1429H60.7031C57.4531 59.375 53.8438 60.7143 50 60.7143C46.1562 60.7143 42.5625 59.375 39.2969 57.1429H38C28.0625 57.1429 20 68.6607 20 82.8571V89.2857C20 95.2009 23.3594 100 27.5 100H72.5C76.6406 100 80 95.2009 80 89.2857V82.8571C80 68.6607 71.9375 57.1429 62 57.1429ZM27.0469 54.1518C25.2344 51.5848 22.75 50 20 50H10C4.48438 50 0 56.4062 0 64.2857V71.4286C0 75.3795 2.23438 78.5714 5 78.5714H15.2969C16.2812 67.9911 20.75 59.0848 27.0469 54.1518Z" fill="#00ADB5"/>
</svg>
