<svg width="66" height="100" viewBox="0 0 66 100" fill="none" xmlns="http://www.w3.org/2000/svg">
<path d="M0.852001 0.0399911H16.56L46.548 66.442C46.9288 67.2036 47.2144 67.9652 47.4048 68.7268C47.6904 69.3932 47.9284 70.012 48.1188 70.5832L49.404 74.1532C49.6896 75.01 49.9276 75.8192 50.118 76.5808C50.4036 77.3424 50.6416 78.0088 50.832 78.58H51.4032L51.1176 74.1532C50.9272 70.9164 50.832 68.346 50.832 66.442V0.0399911H65.112V100H49.404L19.416 33.598C18.5592 31.694 17.6072 29.1236 16.56 25.8868C16.3696 25.3156 16.1316 24.6492 15.846 23.8876C15.6556 23.126 15.4176 22.3168 15.132 21.46H14.5608L14.8464 25.8868C15.0368 29.5044 15.132 32.0748 15.132 33.598V100H0.852001V0.0399911Z" fill="#00ADB5"/>
</svg>
