<svg width="100" height="100" viewBox="0 0 100 100" fill="none" xmlns="http://www.w3.org/2000/svg">
<path d="M94.4444 55.5556H5.55556C2.5 55.5556 0 58.0556 0 61.1111V94.4444C0 97.5 2.5 100 5.55556 100H94.4444C97.5 100 100 97.5 100 94.4444V61.1111C100 58.0556 97.5 55.5556 94.4444 55.5556ZM22.2222 88.8889C16.1111 88.8889 11.1111 83.8889 11.1111 77.7778C11.1111 71.6667 16.1111 66.6667 22.2222 66.6667C28.3333 66.6667 33.3333 71.6667 33.3333 77.7778C33.3333 83.8889 28.3333 88.8889 22.2222 88.8889ZM94.4444 0H5.55556C2.5 0 0 2.5 0 5.55556V38.8889C0 41.9444 2.5 44.4444 5.55556 44.4444H94.4444C97.5 44.4444 100 41.9444 100 38.8889V5.55556C100 2.5 97.5 0 94.4444 0ZM22.2222 33.3333C16.1111 33.3333 11.1111 28.3333 11.1111 22.2222C11.1111 16.1111 16.1111 11.1111 22.2222 11.1111C28.3333 11.1111 33.3333 16.1111 33.3333 22.2222C33.3333 28.3333 28.3333 33.3333 22.2222 33.3333Z" fill="#00ADB5"/>
</svg>
