<svg width="100" height="100" viewBox="0 0 100 100" fill="none" xmlns="http://www.w3.org/2000/svg">
<path d="M96.25 14.2857C98.3209 14.2857 100 13.0864 100 11.6071V2.67857C100 1.19933 98.3209 0 96.25 0H3.75C1.67906 0 0 1.19933 0 2.67857V12.667C0 14.1462 1.67906 15.3455 3.75 15.3455H30.4C38.9338 15.3455 45.4816 17.5683 49.4531 21.4286H3.75C1.67906 21.4286 0 22.6279 0 24.1071V33.0357C0 34.515 1.67906 35.7143 3.75 35.7143H53.3616C51.4188 43.7692 43.0612 48.8018 30 48.8018H3.75C1.67906 48.8018 0 50.0011 0 51.4804V63.3134C0 64.0609 0.4375 64.7746 1.20656 65.2817L52.7853 99.2897C53.478 99.7464 54.3861 100 55.3288 100H81.1294C84.5431 100 86.1812 97.0071 83.6728 95.3531L36.5222 64.2647C60.4281 63.7424 77.5047 52.3462 79.7466 35.7143H96.25C98.3209 35.7143 100 34.515 100 33.0357V24.1071C100 22.6279 98.3209 21.4286 96.25 21.4286H77.9094C76.82 18.8525 75.3219 16.4629 73.4556 14.2857H96.25Z" fill="#00ADB5"/>
</svg>
