<svg width="100" height="100" viewBox="0 0 100 100" fill="none" xmlns="http://www.w3.org/2000/svg">
<path d="M95.8333 0H15.2778C12.9766 0 11.1111 2.79818 11.1111 6.25V8.33333H4.16667C1.86545 8.33333 0 11.1315 0 14.5833V85.4167C0 93.4708 4.35278 100 9.72222 100H91.6667C96.2691 100 100 94.4036 100 87.5V6.25C100 2.79818 98.1345 0 95.8333 0ZM9.72222 87.5C9.35386 87.5 9.0006 87.2805 8.74013 86.8898C8.47966 86.4991 8.33333 85.9692 8.33333 85.4167V20.8333H11.1111V85.4167C11.1111 85.9692 10.9648 86.4991 10.7043 86.8898C10.4438 87.2805 10.0906 87.5 9.72222 87.5ZM50.6944 83.3333H24.3056C23.155 83.3333 22.2222 81.9341 22.2222 80.2083V78.125C22.2222 76.3992 23.155 75 24.3056 75H50.6944C51.845 75 52.7778 76.3992 52.7778 78.125V80.2083C52.7778 81.9341 51.845 83.3333 50.6944 83.3333ZM86.8055 83.3333H60.4167C59.2661 83.3333 58.3333 81.9341 58.3333 80.2083V78.125C58.3333 76.3992 59.2661 75 60.4167 75H86.8055C87.9561 75 88.8889 76.3992 88.8889 78.125V80.2083C88.8889 81.9341 87.9561 83.3333 86.8055 83.3333ZM50.6944 58.3333H24.3056C23.155 58.3333 22.2222 56.9341 22.2222 55.2083V53.125C22.2222 51.3992 23.155 50 24.3056 50H50.6944C51.845 50 52.7778 51.3992 52.7778 53.125V55.2083C52.7778 56.9341 51.845 58.3333 50.6944 58.3333ZM86.8055 58.3333H60.4167C59.2661 58.3333 58.3333 56.9341 58.3333 55.2083V53.125C58.3333 51.3992 59.2661 50 60.4167 50H86.8055C87.9561 50 88.8889 51.3992 88.8889 53.125V55.2083C88.8889 56.9341 87.9561 58.3333 86.8055 58.3333ZM86.8055 33.3333H24.3056C23.155 33.3333 22.2222 31.9341 22.2222 30.2083V19.7917C22.2222 18.0659 23.155 16.6667 24.3056 16.6667H86.8055C87.9561 16.6667 88.8889 18.0659 88.8889 19.7917V30.2083C88.8889 31.9341 87.9561 33.3333 86.8055 33.3333Z" fill="#00ADB5"/>
</svg>
