<svg width="102" height="102" viewBox="0 0 102 102" fill="none" xmlns="http://www.w3.org/2000/svg">
<path d="M51 33.2663L34.54 19.7559V1H20.7775V19.7559C20.7775 29.1776 30.7875 50.95 30.7875 50.95L1 101H101L71.2125 50.9531C71.2125 50.9531 81.2225 29.176 81.2225 19.7559V1H67.4575V19.7559L51 33.2663Z" stroke="black" stroke-width="2" stroke-miterlimit="10" stroke-linecap="round" stroke-linejoin="round"/>
<path d="M40.205 50.9492H61.815" stroke="black" stroke-width="2" stroke-miterlimit="10" stroke-linecap="round" stroke-linejoin="round"/>
<path d="M51 33.2663L34.54 19.7559V1H20.7775V19.7559C20.7775 29.1776 30.7875 50.95 30.7875 50.95L1 101H101L71.2125 50.9531C71.2125 50.9531 81.2225 29.176 81.2225 19.7559V1H67.4575V19.7559L51 33.2663Z" fill="#00ADB5"/>
</svg>
