<svg id="Layer_1" data-name="Layer 1" xmlns="http://www.w3.org/2000/svg" viewBox="0 0 30 30"><path d="M6.44.05c-3.91.46-6,3-5.81,7.21l0,.89L.33,9.1c-.18.51-.33,1-.33,1s3.86,3.61,4,3.67a3.72,3.72,0,0,0,1.2-.95c.37-.38.39-.41.43-.86A8.85,8.85,0,0,1,7.19,7.87c.13-.16.14-.16.26,0s.12.15-.3.82A7.21,7.21,0,0,0,6,12.57a6.77,6.77,0,0,0,.46,2.58,24.68,24.68,0,0,1,.81,4.41l.56,3.79L7.57,24A21.58,21.58,0,0,0,6,29.79V30h9c7.14,0,9,0,9-.1s-.05-.41-.1-.8a21.37,21.37,0,0,0-1.36-4.82l-.38-1,.55-3.72a31.63,31.63,0,0,1,.72-4.13c.09-.23.25-.7.35-1.05A5.18,5.18,0,0,0,24,12.61a5.2,5.2,0,0,0-.15-1.76,9.86,9.86,0,0,0-1.09-2.46c-.26-.38-.27-.41-.17-.54s.16-.14.54.41a8.49,8.49,0,0,1,1.24,3.58l.07.62.36.36.76.69c.35.3.41.33.54.25s3.65-3.26,3.9-3.51c.08-.08.05-.23-.23-1l-.33-.9V7.06c0-2.4-.46-3.82-1.56-5a7.21,7.21,0,0,0-5.41-2l-.61,0-.09.44a13,13,0,0,1-1.38,3.57,5.82,5.82,0,0,1-4.52,3.06l-.63,0v7h-.34l0-3.48,0-3.47-.57,0A5.65,5.65,0,0,1,10,4.47,11.43,11.43,0,0,1,8.24.2l0-.2H7.44C7,0,6.57,0,6.44.05Z"/></svg>