<svg id="Layer_1" data-name="Layer 1" xmlns="http://www.w3.org/2000/svg" viewBox="0 0 30 30"><path d="M20.63.27A7.07,7.07,0,0,1,16.26,2.6a10.62,10.62,0,0,1-2.52,0A7,7,0,0,1,9.38.28C9.22.08,9.18.05,9.1.07a5.51,5.51,0,0,1-.58,0C8,.16,8,.14,7.32.6c-.94.62-5.8,4-7.07,5L0,5.78,1.47,6.93,2.93,8.08,4.88,6.54C5.94,5.7,6.83,5,6.84,5S8.18,8,8.36,8.41a11.17,11.17,0,0,1,.8,4.85c-.08,1.29-.11,1.43-1,4.38C7.07,21.6,5,28.9,4.81,29.43L4.66,30s4.72,0,10.49,0H25.63l0-.07c0-.05-.1-.34-.19-.66-.23-.82-2.91-10.14-3.48-12.11a12.07,12.07,0,0,1-.81-4.53,8.63,8.63,0,0,1,.23-2.4,12.58,12.58,0,0,1,.57-1.84c.19-.47,1.41-3.17,1.44-3.19s.85.63,1.86,1.43l1.84,1.45,1.47-1.16L30,5.77,29,5C26.53,3.19,23.48,1,22.74.47a1.3,1.3,0,0,0-1-.35,3.09,3.09,0,0,1-.58-.06L20.85,0Z"/></svg>